<?xml version="1.0" encoding="UTF-8"?>
<svg xmlns="http://www.w3.org/2000/svg" xmlns:xlink="http://www.w3.org/1999/xlink" version="1.2" >
<font id="Lays-Bold" horiz-adv-x="546">
<font-face  font-family="Lays" units-per-em="1000" ascent="769" descent="-231" font-style="normal" font-weight="700" font-stretch="normal" cap-height="704" x-height="529" underline-position="-80" underline-thickness="54" />
<missing-glyph horiz-adv-x="468" d="M5 0 L463 0 L463 785 L5 785 L5 0 Z M102 80 L102 705 L366 705 L366 80 L102 80 Z " />
<glyph glyph-name="NULL" horiz-adv-x="0" >
</glyph>
<glyph glyph-name="CR" unicode="&#xd;" horiz-adv-x="250" >
</glyph>
<glyph glyph-name="space" unicode="&#x20;" horiz-adv-x="250" />
<glyph glyph-name="exclam" unicode="&#x21;" horiz-adv-x="279" d="M68 704 L77 207 L199 207 L209 704 L68 704 Z M210 60 C210 99 178 132 138 132 C98 132 66 99 66 60 C66 21 98 -13 138 -13 C178 -13 210 21 210 60 L210 60 Z " />
<glyph glyph-name="quotedbl" unicode="&#x22;" horiz-adv-x="510" d="M199 476 L202 736 L103 736 C103 692 106 519 107 476 L199 476 Z M401 476 L404 736 L305 736 C305 692 308 519 309 476 L401 476 Z " />
<glyph glyph-name="numbersign" unicode="&#x23;" horiz-adv-x="616" d="M574 507 L475 507 L514 704 L428 704 L390 507 L272 507 L311 704 L227 704 L187 507 L48 507 L48 426 L171 426 L140 279 L17 279 L17 197 L123 197 L83 0 L166 0 L207 197 L325 197 L284 0 L368 0 L409 197 L546 197 L546 279 L427 279 L457 426 L574 426 L574 507 Z M372 426 L342 279 L225 279 L255 426 L372 426 Z " />
<glyph glyph-name="dollar" unicode="&#x24;" horiz-adv-x="518" d="M194 -101 L318 -101 L318 2 C404 25 470 93 470 199 C470 297 431 361 333 398 L237 434 C188 452 158 475 158 526 C158 588 209 618 259 618 C324 618 365 585 381 516 C427 529 443 566 443 597 C443 656 386 694 318 707 L318 789 L194 789 L194 703 C107 678 48 608 48 514 C48 422 93 358 182 322 L274 285 C325 264 354 245 354 191 C354 120 301 89 243 89 C217 89 193 95 175 104 C138 123 113 161 107 220 C72 207 50 169 50 133 C50 65 97 10 194 -4 L194 -101 Z " />
<glyph glyph-name="percent" unicode="&#x25;" horiz-adv-x="754" d="M626 158 C626 93 595 74 564 74 C534 74 504 92 504 157 C504 223 534 242 566 242 C597 242 626 223 626 158 L626 158 Z M722 159 C722 253 662 330 565 330 C467 330 407 253 407 159 C407 66 467 -13 564 -13 C661 -13 722 67 722 159 L722 159 Z M250 546 C250 481 219 462 188 462 C158 462 128 480 128 546 C128 610 159 630 189 630 C220 630 250 612 250 546 L250 546 Z M346 546 C346 641 286 718 189 718 C91 718 32 641 32 546 C32 455 91 375 188 375 C286 375 346 456 346 546 L346 546 Z M621 704 L517 704 L125 0 L230 0 L621 704 Z " />
<glyph glyph-name="ampersand" unicode="&#x26;" horiz-adv-x="713" d="M684 107 C660 96 639 91 620 91 C594 91 566 103 540 120 C592 174 618 242 618 301 C618 357 591 408 541 408 C522 408 500 400 482 388 C500 363 509 335 509 307 C509 265 488 219 460 186 C411 230 355 296 315 351 C402 395 478 453 478 546 C478 658 388 714 296 714 C184 714 111 636 111 532 C111 489 131 431 167 369 C106 335 43 280 43 180 C43 87 107 -9 262 -9 C334 -9 397 9 452 44 C499 10 545 -9 581 -9 C644 -9 685 19 685 93 C685 98 685 102 684 107 L684 107 Z M371 114 C344 99 310 89 280 89 C199 89 161 145 161 193 C161 243 187 271 217 292 C260 232 316 165 371 114 L371 114 Z M368 541 C368 484 328 452 266 420 C237 464 222 505 222 535 C222 592 259 618 296 618 C331 618 368 595 368 541 L368 541 Z " />
<glyph glyph-name="quotesingle" unicode="&#x27;" horiz-adv-x="268" d="M177 476 L180 736 L81 736 C81 692 84 519 85 476 L177 476 Z " />
<glyph glyph-name="parenleft" unicode="&#x28;" horiz-adv-x="376" d="M66 272 C66 21 165 -202 312 -202 L329 -202 C243 -94 201 70 201 272 C201 474 243 639 329 747 L312 747 C165 747 66 523 66 272 L66 272 Z " />
<glyph glyph-name="parenright" unicode="&#x29;" horiz-adv-x="376" d="M309 272 C309 523 210 747 63 747 L46 747 C132 639 174 474 174 272 C174 70 132 -94 46 -202 L63 -202 C210 -202 309 21 309 272 L309 272 Z " />
<glyph glyph-name="asterisk" unicode="&#x2a;" horiz-adv-x="512" d="M335 538 L451 602 L407 680 L296 610 L299 748 L211 748 L214 610 L104 680 L61 603 L176 538 L60 473 L103 395 L215 464 L211 326 L299 326 L297 464 L406 395 L450 472 L335 538 Z " />
<glyph glyph-name="plus" unicode="&#x2b;" horiz-adv-x="685" d="M597 207 L597 300 L391 300 L391 512 L294 512 L294 300 L88 300 L88 207 L294 207 L294 -7 L391 -7 L391 207 L597 207 Z " />
<glyph glyph-name="comma" unicode="&#x2c;" horiz-adv-x="289" d="M210 29 C210 98 169 132 128 132 C91 132 58 106 58 64 C58 36 70 22 86 11 C102 -1 115 -11 115 -39 C115 -60 96 -109 51 -139 C59 -141 66 -142 73 -142 C135 -142 210 -74 210 29 L210 29 Z " />
<glyph glyph-name="hyphen" unicode="&#x2d;" horiz-adv-x="344" d="M47 209 L288 209 L288 316 L47 316 L47 209 Z " />
<glyph glyph-name="period" unicode="&#x2e;" horiz-adv-x="255" d="M199 61 C199 100 167 133 127 133 C87 133 55 100 55 61 C55 22 87 -12 127 -12 C167 -12 199 22 199 61 L199 61 Z " />
<glyph glyph-name="slash" unicode="&#x2f;" horiz-adv-x="492" d="M489 785 L373 785 L-5 -80 L111 -80 L489 785 Z " />
<glyph glyph-name="zero" unicode="0" horiz-adv-x="557" d="M521 363 C521 603 413 718 279 718 C123 718 35 569 35 345 C35 110 144 -9 277 -9 C417 -9 521 107 521 363 L521 363 Z M393 356 C393 174 340 94 278 94 C214 94 165 165 165 353 C165 535 217 612 280 612 C345 612 393 535 393 356 L393 356 Z " />
<glyph glyph-name="one" unicode="1" horiz-adv-x="362" d="M27 532 C59 536 120 555 161 568 L161 0 L286 0 L286 723 C216 689 103 651 27 633 L27 532 Z " />
<glyph glyph-name="two" unicode="2" horiz-adv-x="507" d="M464 509 C464 647 367 718 239 718 C106 718 30 627 30 539 C30 483 60 435 114 429 C121 428 133 428 146 430 C140 455 136 475 136 497 C136 562 167 616 237 616 C294 616 337 582 337 509 C337 436 285 362 227 288 C167 210 92 130 41 78 L41 0 L468 0 L468 102 L212 102 C251 143 281 175 318 218 C395 308 464 412 464 509 L464 509 Z " />
<glyph glyph-name="three" unicode="3" horiz-adv-x="484" d="M452 198 C452 268 416 336 333 368 C401 401 438 462 438 534 C438 645 348 718 223 718 C87 718 22 639 22 580 C22 546 41 516 81 510 L85 522 C105 585 154 617 209 617 C269 617 311 580 311 518 C311 488 301 461 284 442 C264 420 234 407 195 407 L162 407 L162 309 L195 309 C233 309 261 302 283 287 C309 268 323 239 323 199 C323 138 277 91 210 91 C139 91 99 132 80 198 L76 213 C38 204 20 167 20 131 C20 64 77 -12 220 -12 C352 -12 452 79 452 198 L452 198 Z " />
<glyph glyph-name="four" unicode="4" horiz-adv-x="533" d="M416 704 L256 704 C215 624 79 323 38 244 L38 150 L300 150 L300 0 L417 0 L417 150 L455 150 C492 150 503 167 508 201 L514 244 L416 244 L416 704 Z M139 244 L300 572 L300 244 L139 244 Z " />
<glyph glyph-name="five" unicode="5" horiz-adv-x="470" d="M334 24 C399 64 435 140 435 223 C435 310 398 378 323 414 C287 432 241 442 182 442 L166 442 L186 600 L414 600 L414 704 L96 704 L51 344 L150 344 C199 344 233 336 258 320 C295 298 312 260 312 217 C312 139 265 93 207 93 C135 93 95 145 81 210 C46 199 28 169 28 129 C28 62 93 -9 213 -9 C258 -9 300 2 334 24 L334 24 Z " />
<glyph glyph-name="six" unicode="6" horiz-adv-x="525" d="M497 229 C497 333 434 432 308 432 C245 432 185 398 157 352 C157 486 197 611 321 611 C358 611 392 605 433 591 L454 680 C409 705 359 718 305 718 C106 718 37 524 37 331 C37 148 103 -10 278 -10 C422 -10 497 113 497 229 L497 229 Z M379 219 C379 156 345 91 278 91 C195 91 171 187 171 225 C171 275 209 336 279 336 C347 336 379 278 379 219 L379 219 Z " />
<glyph glyph-name="seven" unicode="7" horiz-adv-x="478" d="M452 704 L18 704 L19 688 C24 603 58 600 124 600 L303 600 L64 0 L199 0 L452 657 L452 704 Z " />
<glyph glyph-name="eight" unicode="8" horiz-adv-x="531" d="M497 186 C497 274 421 332 352 364 C419 398 487 451 487 531 C487 650 382 718 267 718 C147 718 44 649 44 528 C44 447 110 393 173 361 C104 327 34 270 34 183 C34 57 137 -10 263 -10 C390 -10 497 59 497 186 L497 186 Z M371 189 C371 127 328 89 267 89 C205 89 161 127 161 189 C161 246 206 283 261 310 C321 282 371 247 371 189 L371 189 Z M365 527 C365 471 321 438 268 411 C212 439 167 473 167 528 C167 581 209 619 264 619 C319 619 365 581 365 527 L365 527 Z " />
<glyph glyph-name="nine" unicode="9" horiz-adv-x="525" d="M203 96 C166 96 132 103 91 117 C85 87 77 58 71 28 C116 2 166 -10 220 -10 C419 -10 487 184 487 378 C487 561 422 718 247 718 C103 718 27 595 27 479 C27 375 91 276 216 276 C280 276 339 310 367 356 C367 211 324 96 203 96 L203 96 Z M246 372 C178 372 145 430 145 490 C145 553 180 618 247 618 C322 618 354 534 354 483 C354 434 316 373 246 372 L246 372 Z " />
<glyph glyph-name="colon" unicode="&#x3a;" horiz-adv-x="319" d="M247 61 C247 100 215 133 175 133 C135 133 103 100 103 61 C103 22 135 -12 175 -12 C215 -12 247 22 247 61 L247 61 Z M247 359 C247 398 215 431 175 431 C135 431 103 398 103 359 C103 320 135 286 175 286 C215 286 247 320 247 359 L247 359 Z " />
<glyph glyph-name="semicolon" unicode="&#x3b;" horiz-adv-x="319" d="M256 29 C256 98 215 132 174 132 C137 132 104 106 104 64 C104 36 116 22 132 11 C148 -1 161 -11 161 -39 C161 -60 142 -109 97 -139 C105 -141 112 -142 119 -142 C181 -142 256 -74 256 29 L256 29 Z M250 359 C250 398 218 431 178 431 C138 431 106 398 106 359 C106 320 138 286 178 286 C218 286 250 320 250 359 L250 359 Z " />
<glyph glyph-name="less" unicode="&#x3c;" horiz-adv-x="725" d="M602 -2 L602 103 L239 252 L602 404 L602 509 L122 288 L122 219 L602 -2 Z " />
<glyph glyph-name="equal" unicode="&#x3d;" horiz-adv-x="725" d="M624 313 L624 406 L100 406 L100 313 L624 313 Z M624 101 L624 194 L100 194 L100 101 L624 101 Z " />
<glyph glyph-name="greater" unicode="&#x3e;" horiz-adv-x="725" d="M602 216 L602 284 L122 506 L122 402 L484 252 L122 101 L122 -5 L602 216 Z " />
<glyph glyph-name="question" unicode="&#x3f;" horiz-adv-x="512" d="M342 527 C342 417 177 367 177 247 C177 228 180 212 183 198 L289 198 C289 248 304 276 358 331 C419 393 467 448 467 525 C467 633 388 718 242 718 C110 718 57 627 57 568 C57 512 91 482 128 481 C135 564 168 618 240 618 C302 618 342 583 342 527 L342 527 Z M313 61 C313 100 281 133 241 133 C201 133 169 100 169 61 C169 22 201 -11 241 -11 C281 -11 313 22 313 61 L313 61 Z " />
<glyph glyph-name="at" unicode="&#x40;" horiz-adv-x="859" d="M605 494 C573 514 533 532 468 532 C329 532 246 411 246 291 C246 197 303 132 377 132 C422 132 461 151 492 188 C507 150 541 132 580 132 C631 132 678 153 714 185 C771 236 806 318 806 397 C806 603 662 732 471 732 C251 732 53 562 53 293 C53 99 180 -78 443 -78 C521 -78 595 -60 671 -18 C681 -14 698 -5 698 17 C698 26 695 38 687 53 L673 79 C599 33 525 13 448 13 C244 13 148 150 148 301 C148 509 295 641 466 641 C611 641 712 544 712 393 C712 330 692 274 658 241 C645 228 624 217 604 217 C585 217 569 228 569 256 C569 258 570 269 570 272 L605 494 Z M507 436 L485 307 C475 245 430 217 398 217 C366 217 341 244 341 288 C341 353 377 448 458 448 C475 448 493 444 507 436 L507 436 Z " />
<glyph glyph-name="A" unicode="A" horiz-adv-x="644" d="M396 704 L248 704 L13 0 L131 0 L187 173 C220 178 254 181 284 181 C331 181 370 178 401 164 C428 151 450 130 462 89 L490 0 L631 0 L396 704 Z M314 564 L413 255 C376 273 327 281 277 281 C258 281 239 280 221 279 L314 564 Z " />
<glyph glyph-name="B" unicode="B" horiz-adv-x="575" d="M531 203 C531 272 484 343 416 365 C476 396 513 455 513 522 C513 647 424 709 229 709 C178 709 123 705 67 699 L67 4 C97 1 160 -4 236 -4 C398 -4 531 39 531 203 L531 203 Z M264 312 C370 312 394 260 394 203 C394 134 348 92 267 92 C240 92 213 93 195 95 L195 312 L264 312 Z M195 609 C219 612 242 613 260 613 C348 613 382 565 382 513 C382 428 331 403 233 403 L195 403 L195 609 Z " />
<glyph glyph-name="C" unicode="C" horiz-adv-x="567" d="M538 677 C485 698 430 713 363 713 C197 713 40 588 40 350 C40 143 167 -8 363 -8 C419 -8 476 4 521 28 L521 126 C478 112 433 102 394 102 C252 102 177 211 177 350 C177 480 250 601 358 601 C409 601 439 585 471 585 C498 585 515 603 525 633 L538 677 Z " />
<glyph glyph-name="D" unicode="D" horiz-adv-x="657" d="M196 606 C219 608 237 609 256 609 C420 609 480 498 480 356 C480 190 406 95 256 95 C238 95 218 96 196 99 L196 606 Z M67 4 C132 -4 188 -8 238 -8 C531 -8 617 173 617 356 C617 516 540 712 238 712 C189 712 131 707 67 700 L67 4 Z " />
<glyph glyph-name="E" unicode="E" horiz-adv-x="511" d="M198 594 L443 594 L458 704 L67 704 L67 0 L336 0 C403 0 438 3 460 25 C475 40 482 63 484 96 L486 120 C448 115 415 112 347 112 L198 112 L198 301 L322 301 C389 301 402 316 409 363 L415 408 L198 408 L198 594 Z " />
<glyph glyph-name="F" unicode="F" horiz-adv-x="475" d="M198 0 L198 267 L340 267 C382 267 395 286 400 325 L407 378 L198 378 L198 594 L433 594 L448 704 L67 704 L67 0 L198 0 Z " />
<glyph glyph-name="G" unicode="G" horiz-adv-x="670" d="M607 368 L366 368 L350 264 L484 264 L484 125 C456 107 417 100 387 100 C325 100 274 119 239 156 C200 198 177 265 177 350 C177 504 250 602 358 602 C415 602 456 585 484 585 C518 585 536 610 551 664 L554 675 L529 684 C485 700 429 713 367 713 C194 713 40 586 40 351 C40 147 159 -9 360 -9 C459 -9 548 22 607 85 L607 368 Z " />
<glyph glyph-name="H" unicode="H" horiz-adv-x="655" d="M198 704 L67 704 L67 0 L198 0 L198 301 L457 301 L457 0 L589 0 L589 704 L458 704 L458 408 L198 408 L198 704 Z " />
<glyph glyph-name="I" unicode="I" horiz-adv-x="270" d="M200 0 L200 704 L70 704 L70 0 L200 0 Z " />
<glyph glyph-name="J" unicode="J" horiz-adv-x="411" d="M344 704 L215 704 L215 229 C215 135 165 100 108 100 C77 100 51 108 29 120 C26 114 25 104 25 95 C25 70 35 38 62 16 C83 0 113 -12 153 -12 C247 -12 344 52 344 229 L344 704 Z " />
<glyph glyph-name="K" unicode="K" horiz-adv-x="621" d="M581 704 L445 704 L198 395 L198 704 L67 704 L67 0 L198 0 L198 302 L387 67 C432 4 468 -9 513 -9 C552 -9 594 11 613 45 C601 48 588 54 576 60 C544 81 518 112 485 152 L307 366 L581 704 Z " />
<glyph glyph-name="L" unicode="L" horiz-adv-x="476" d="M287 0 C370 0 407 1 430 28 C442 43 451 66 453 99 L454 120 C413 115 379 112 300 112 L198 112 L198 704 L67 704 L67 0 L287 0 Z " />
<glyph glyph-name="M" unicode="M" horiz-adv-x="754" d="M686 704 L564 704 L376 426 L217 661 C194 696 162 711 122 711 C97 711 71 705 45 692 C59 677 71 654 71 612 L64 0 L184 0 L183 512 L370 233 L557 512 L557 0 L686 0 L686 704 Z " />
<glyph glyph-name="N" unicode="N" horiz-adv-x="674" d="M596 704 L481 704 L481 222 L219 644 C182 703 158 715 121 715 C89 715 56 704 40 695 C53 679 65 663 65 621 L65 0 L180 0 L180 478 C280 320 408 111 481 0 L596 0 L596 704 Z " />
<glyph glyph-name="O" unicode="O" horiz-adv-x="719" d="M679 353 C679 575 549 714 361 714 C147 714 40 545 40 353 C40 135 169 -8 358 -8 C562 -8 679 137 679 353 L679 353 Z M542 356 C542 198 465 101 360 101 C251 101 176 208 176 356 C176 501 246 605 359 605 C472 605 542 496 542 356 L542 356 Z " />
<glyph glyph-name="P" unicode="P" horiz-adv-x="560" d="M250 710 C202 710 140 708 67 701 L67 0 L197 0 L197 276 C234 266 264 261 302 261 C441 261 526 351 526 489 C526 599 452 710 250 710 L250 710 Z M197 355 L197 609 C225 611 241 611 254 611 C360 611 397 547 397 486 C397 420 358 355 242 355 L197 355 Z " />
<glyph glyph-name="Q" unicode="Q" horiz-adv-x="728" d="M679 357 C679 582 549 714 361 714 C147 714 40 545 40 353 C40 150 145 15 311 -3 C400 -59 548 -103 636 -103 C691 -103 743 -76 743 -20 C743 -10 739 8 735 21 C704 12 668 7 633 7 C578 7 516 17 474 34 C610 75 679 194 679 357 L679 357 Z M542 356 C542 206 477 99 360 99 C251 99 176 198 176 356 C176 503 240 607 359 607 C471 607 542 504 542 356 L542 356 Z " />
<glyph glyph-name="R" unicode="R" horiz-adv-x="597" d="M515 496 C515 572 482 635 416 672 C386 689 331 710 224 710 C183 710 127 707 67 701 L67 0 L198 0 L198 277 L239 277 L385 69 C428 5 466 -9 513 -9 C552 -9 593 11 612 45 C596 50 581 58 566 67 C537 87 510 117 483 154 L373 305 C467 333 515 415 515 496 L515 496 Z M198 609 C218 611 237 611 251 611 C341 611 381 552 381 493 C381 457 368 424 342 399 C321 378 290 367 246 367 L198 367 L198 609 Z " />
<glyph glyph-name="S" unicode="S" horiz-adv-x="518" d="M39 509 C39 406 91 351 181 317 C292 275 354 267 354 192 C354 141 314 98 240 98 C167 98 111 140 103 230 C63 220 37 178 37 139 C37 59 103 -10 242 -10 C370 -10 478 62 478 198 C478 297 430 361 331 398 C248 429 158 443 158 522 C158 565 188 610 263 610 C326 610 370 581 391 516 C429 523 454 561 454 595 C454 672 356 715 261 715 C131 715 39 628 39 509 L39 509 Z " />
<glyph glyph-name="T" unicode="T" horiz-adv-x="575" d="M540 704 L35 704 L35 594 L222 594 L222 0 L353 0 L353 594 L540 594 L540 704 Z " />
<glyph glyph-name="U" unicode="U" horiz-adv-x="658" d="M649 84 C642 80 634 78 627 78 C610 78 598 82 589 90 C581 98 577 110 577 130 L577 704 L446 704 L446 254 C446 203 437 175 423 155 C402 119 364 103 322 103 C231 103 199 163 199 243 L199 704 L67 704 L67 292 C67 240 68 194 77 156 C105 39 202 -10 288 -10 C355 -10 417 18 452 61 C469 18 504 -9 551 -9 C601 -9 649 22 649 77 L649 84 Z " />
<glyph glyph-name="V" unicode="V" horiz-adv-x="632" d="M156 704 L14 704 C55 586 208 117 249 0 L381 0 L617 704 L487 704 L319 168 L156 704 Z " />
<glyph glyph-name="W" unicode="W" horiz-adv-x="924" d="M911 704 L783 704 L648 166 L517 628 L407 628 L280 166 L143 704 L13 704 L201 0 L340 0 L454 415 L573 0 L705 0 L911 704 Z " />
<glyph glyph-name="X" unicode="X" horiz-adv-x="636" d="M602 704 L472 704 L323 475 L221 637 C193 681 165 714 115 714 C67 714 20 680 20 623 C26 624 34 626 40 626 C71 626 87 605 103 579 L245 349 L20 0 L151 0 L307 241 L417 66 C455 5 473 -8 523 -8 C571 -8 616 25 616 82 C610 81 603 80 596 80 C565 80 549 100 533 126 L385 366 L602 704 Z " />
<glyph glyph-name="Y" unicode="Y" horiz-adv-x="607" d="M602 687 C581 703 552 713 521 713 C499 713 479 707 461 695 C447 686 436 672 419 638 L303 406 L161 704 L14 704 L235 275 L235 0 L366 0 L366 276 L541 617 C552 639 564 657 579 671 C587 678 594 682 602 687 L602 687 Z " />
<glyph glyph-name="Z" unicode="Z" horiz-adv-x="568" d="M53 704 L53 594 L338 594 L40 69 L40 0 L390 0 C457 0 491 2 512 25 C528 40 534 63 537 97 L539 118 C500 114 460 110 385 110 L209 110 C267 207 455 546 513 643 L513 704 L53 704 Z " />
<glyph glyph-name="bracketleft" unicode="&#x5b;" horiz-adv-x="301" d="M260 -194 L260 -117 L147 -117 L147 661 L260 661 L260 736 L40 736 L40 -194 L260 -194 Z " />
<glyph glyph-name="backslash" unicode="&#x5c;" horiz-adv-x="493" d="M371 -80 L487 -80 C363 208 237 496 113 785 L-3 785 C121 496 247 208 371 -80 L371 -80 Z " />
<glyph glyph-name="bracketright" unicode="&#x5d;" horiz-adv-x="316" d="M274 -194 L274 736 L54 736 L54 661 L167 661 L167 -117 L54 -117 L54 -194 L274 -194 Z " />
<glyph glyph-name="asciicircum" unicode="&#x5e;" horiz-adv-x="725" d="M624 221 L409 738 L315 738 L101 221 L207 221 L358 607 L515 221 L624 221 Z " />
<glyph glyph-name="underscore" unicode="&#x5f;" horiz-adv-x="603" d="M603 -163 L603 -70 L0 -70 L0 -163 L603 -163 Z " />
<glyph glyph-name="grave" unicode="&#x60;" horiz-adv-x="547" d="M391 578 L267 710 C249 730 230 738 212 738 C185 738 163 717 163 690 C163 663 184 642 218 631 L388 575 L391 578 Z " />
<glyph glyph-name="a" unicode="a" horiz-adv-x="575" d="M488 531 C470 524 452 519 433 519 C387 519 358 539 284 539 C134 539 33 422 33 265 C33 104 114 -8 225 -8 C293 -8 343 21 374 69 L377 56 C385 22 415 -7 466 -7 C518 -7 565 23 565 81 L565 91 C552 82 537 78 526 78 C504 78 488 92 488 119 L488 531 Z M364 433 L364 218 C364 128 324 88 266 88 C210 88 162 151 162 263 C162 361 197 448 289 448 C314 448 342 444 364 433 L364 433 Z " />
<glyph glyph-name="b" unicode="b" horiz-adv-x="552" d="M272 -9 C421 -9 516 106 516 277 C516 448 427 540 326 540 C280 540 220 520 186 468 L186 736 L61 736 L61 1 C88 5 108 8 129 8 C159 8 193 -9 272 -9 L272 -9 Z M186 313 C194 401 233 443 287 443 C344 443 388 382 388 272 C388 171 353 83 261 83 C237 83 207 87 186 97 L186 313 Z " />
<glyph glyph-name="c" unicode="c" horiz-adv-x="453" d="M425 508 C378 529 329 540 275 540 C118 540 32 408 32 261 C32 98 132 -9 263 -9 C315 -9 368 1 420 29 L420 111 C387 100 334 89 295 89 C212 89 159 160 159 266 C159 363 197 440 278 440 C317 440 345 426 371 426 C396 426 418 444 425 508 L425 508 Z " />
<glyph glyph-name="d" unicode="d" horiz-adv-x="577" d="M370 430 L370 218 C370 128 329 88 271 88 C215 88 167 151 167 263 C167 361 202 447 295 447 C319 447 349 442 370 430 L370 430 Z M568 91 C554 82 540 78 528 78 C507 78 491 92 491 119 L491 736 L365 736 L365 526 C343 532 314 535 287 535 C137 535 36 422 36 265 C36 104 117 -8 228 -8 C295 -8 346 21 377 69 C391 8 433 -7 469 -7 C521 -7 568 23 568 81 L568 91 Z " />
<glyph glyph-name="e" unicode="e" horiz-adv-x="514" d="M279 540 C133 540 34 412 34 257 C34 119 122 -8 272 -8 C383 -8 460 66 460 142 C420 113 359 90 303 90 C231 90 176 135 161 214 C364 218 471 276 471 392 C471 472 401 540 279 540 L279 540 Z M283 452 C333 452 356 422 356 390 C356 328 284 296 156 296 C163 390 221 452 283 452 L283 452 Z " />
<glyph glyph-name="f" unicode="f" horiz-adv-x="366" d="M376 662 C376 704 332 747 255 747 C180 747 103 705 103 556 L103 524 L75 524 C38 524 24 503 19 470 L13 430 L103 430 L103 0 L228 0 L228 430 L329 430 L329 524 L228 524 L228 557 C228 619 254 649 300 649 C325 649 347 641 368 630 C373 640 376 651 376 662 L376 662 Z " />
<glyph glyph-name="g" unicode="g" d="M365 433 L365 227 C365 148 333 109 275 109 C233 109 164 148 164 269 C164 362 203 447 291 447 C315 447 344 443 365 433 L365 433 Z M490 531 C472 523 454 518 435 518 C393 518 352 538 288 538 C115 538 37 403 37 269 C37 98 127 16 237 16 C291 16 337 37 365 76 L365 61 C365 -50 309 -100 221 -100 C173 -100 131 -82 94 -57 C87 -67 83 -83 83 -94 C83 -171 172 -202 246 -202 C425 -202 490 -51 490 108 L490 531 Z " />
<glyph glyph-name="h" unicode="h" horiz-adv-x="570" d="M484 319 C484 349 482 378 479 399 C464 501 394 540 322 540 C256 540 214 509 187 471 L187 736 L61 736 L61 0 L187 0 L187 338 C187 392 216 442 280 442 C326 442 358 416 358 334 L358 112 C358 24 411 -6 463 -6 C514 -6 561 23 561 81 L561 91 C547 83 533 79 521 79 C499 79 484 93 484 120 L484 319 Z " />
<glyph glyph-name="i" unicode="i" horiz-adv-x="268" d="M187 665 C187 703 158 734 119 734 C80 734 50 703 50 665 C50 627 80 596 119 596 C158 596 187 627 187 665 L187 665 Z M182 529 L56 529 L56 138 C56 37 95 -6 160 -6 C211 -6 259 23 259 82 L259 91 C245 83 231 79 219 79 C198 79 182 92 182 120 L182 529 Z " />
<glyph glyph-name="j" unicode="j" horiz-adv-x="244" d="M182 529 L56 529 L56 -45 C56 -102 19 -110 -9 -110 C-29 -110 -49 -105 -62 -99 C-61 -186 -2 -203 49 -203 C126 -203 182 -139 182 -54 L182 529 Z M187 665 C187 703 157 734 119 734 C80 734 49 703 49 665 C49 628 80 596 119 596 C157 596 187 628 187 665 L187 665 Z " />
<glyph glyph-name="k" unicode="k" horiz-adv-x="529" d="M500 529 L368 529 L187 305 L187 736 L61 736 L61 0 L187 0 L187 212 L200 220 L322 54 C351 12 388 -7 424 -7 C475 -7 519 29 519 83 L519 91 C505 83 492 79 481 79 C460 79 446 94 426 121 L301 290 L500 529 Z " />
<glyph glyph-name="l" unicode="l" horiz-adv-x="268" d="M56 112 C56 24 108 -6 160 -6 C211 -6 258 23 258 81 L258 91 C245 84 232 80 221 80 C199 80 182 96 182 125 L182 736 L56 736 L56 112 Z " />
<glyph glyph-name="m" unicode="m" horiz-adv-x="857" d="M645 113 C645 24 697 -6 749 -6 C799 -6 847 24 847 82 L847 92 C834 83 819 79 808 79 C786 79 771 93 771 121 L771 316 C771 347 769 374 764 397 C745 499 675 540 600 540 C537 540 478 506 450 453 C424 512 370 540 316 540 C261 540 203 513 174 459 L171 529 L61 529 L61 0 L187 0 L187 340 C187 393 214 442 276 442 C322 442 352 416 352 334 L352 0 L478 0 L478 338 C478 392 505 442 568 442 C613 442 645 416 645 334 L645 113 Z " />
<glyph glyph-name="n" unicode="n" horiz-adv-x="570" d="M484 317 C484 347 482 376 479 397 C464 499 396 540 318 540 C253 540 200 506 174 459 L171 529 L61 529 L61 0 L187 0 L187 339 C187 393 216 443 280 443 C326 443 358 417 358 335 L358 112 C358 24 411 -6 462 -6 C513 -6 561 24 561 82 L561 91 C547 83 533 79 521 79 C499 79 484 93 484 120 L484 317 Z " />
<glyph glyph-name="o" unicode="o" horiz-adv-x="555" d="M275 88 C202 88 163 171 163 265 C163 378 207 444 278 444 C352 444 390 361 390 266 C390 154 347 88 275 88 L275 88 Z M271 -8 C434 -8 520 115 520 269 C520 412 446 540 284 540 C121 540 35 416 35 262 C35 119 109 -8 271 -8 L271 -8 Z " />
<glyph glyph-name="p" unicode="p" horiz-adv-x="555" d="M187 313 C187 402 227 443 285 443 C341 443 389 380 389 265 C389 169 360 83 268 83 C244 83 206 91 187 101 L187 313 Z M61 529 L61 -194 L187 -194 L187 18 C214 -1 278 -7 297 -7 C436 -7 518 90 518 271 C518 433 436 540 325 540 C256 540 204 510 173 461 L171 529 L61 529 Z " />
<glyph glyph-name="q" unicode="q" horiz-adv-x="552" d="M491 532 C473 525 456 520 437 520 C392 520 359 540 288 540 C138 540 36 431 36 260 C36 88 127 -4 228 -4 C276 -4 333 13 366 62 L366 -84 C366 -153 404 -203 471 -203 C524 -203 568 -172 568 -113 C554 -121 540 -125 528 -125 C507 -125 491 -111 491 -81 L491 532 Z M366 433 L366 217 C366 128 325 88 267 88 C211 88 163 151 163 262 C163 363 198 447 291 447 C315 447 344 443 366 433 L366 433 Z " />
<glyph glyph-name="r" unicode="r" horiz-adv-x="399" d="M378 473 C378 511 349 540 293 540 C241 540 201 501 176 462 L171 529 L61 529 L61 0 L187 0 L187 304 C187 376 211 428 269 428 C294 428 327 414 348 399 C367 421 378 448 378 473 L378 473 Z " />
<glyph glyph-name="s" unicode="s" horiz-adv-x="428" d="M390 156 C390 259 321 290 253 313 C181 337 156 349 156 390 C156 425 183 448 225 448 C268 448 299 426 324 426 C349 426 365 436 375 487 L378 504 C331 526 283 539 221 539 C114 539 43 473 43 379 C43 279 112 246 175 224 C232 204 278 187 278 146 C278 109 249 83 209 83 C163 83 114 101 69 125 L38 37 C83 11 145 -9 209 -9 C318 -9 390 57 390 156 L390 156 Z " />
<glyph glyph-name="t" unicode="t" horiz-adv-x="364" d="M85 142 C85 33 154 -9 222 -9 C298 -9 348 38 348 95 C348 103 347 105 345 112 C320 97 295 89 267 89 C235 89 210 111 210 158 L210 438 L331 438 L331 529 L210 529 L210 620 L150 620 L35 500 C18 482 16 471 16 453 L16 438 L85 438 L85 142 Z " />
<glyph glyph-name="u" unicode="u" horiz-adv-x="564" d="M457 -7 C511 -7 556 32 556 81 L556 90 C542 82 528 78 516 78 C494 78 479 92 479 119 L479 529 L353 529 L353 186 C353 140 322 90 261 90 C210 90 182 146 182 223 L182 529 L56 529 L56 189 C56 49 118 -7 224 -7 C280 -7 332 20 366 62 C366 19 421 -7 457 -7 L457 -7 Z " />
<glyph glyph-name="v" unicode="v" horiz-adv-x="501" d="M492 529 L375 529 C344 418 297 266 262 151 L137 529 L8 529 C61 368 134 160 188 -2 L318 -2 C372 162 441 370 492 529 L492 529 Z " />
<glyph glyph-name="w" unicode="w" horiz-adv-x="821" d="M56 231 C56 198 58 169 61 143 C75 44 162 -9 250 -9 C311 -9 372 17 407 72 C443 17 506 -9 567 -9 C657 -9 746 43 759 141 C763 167 765 197 765 231 L765 529 L640 529 L640 195 C640 133 610 89 556 89 C510 89 473 119 473 197 L473 529 L348 529 L348 195 C348 133 316 90 262 90 C216 90 182 119 182 197 L182 529 L56 529 L56 231 Z " />
<glyph glyph-name="x" unicode="x" horiz-adv-x="548" d="M522 89 C508 81 495 78 485 78 C464 78 449 91 435 115 L339 275 L510 529 L389 529 L282 373 C233 450 194 537 118 537 C68 537 26 505 26 449 L26 441 C38 448 49 452 61 452 C105 452 161 332 205 261 L24 0 L153 0 C189 54 226 107 263 161 L308 87 C342 30 383 -7 430 -7 C480 -7 522 29 522 81 L522 89 Z " />
<glyph glyph-name="y" unicode="y" horiz-adv-x="535" d="M479 529 L353 529 L353 208 C353 150 315 107 260 107 C218 107 182 134 182 210 L182 529 L56 529 L56 232 C56 68 122 16 221 16 C278 16 324 38 355 74 L355 59 C355 -53 303 -102 215 -102 C172 -102 121 -85 87 -60 C81 -70 78 -82 78 -93 C78 -162 150 -202 240 -202 C427 -202 479 -59 479 127 L479 529 Z " />
<glyph glyph-name="z" unicode="z" horiz-adv-x="471" d="M422 529 L43 529 L43 430 L262 430 L43 56 L43 0 L304 0 C371 0 405 1 426 28 C437 42 444 65 446 97 L447 109 C409 104 372 101 293 101 L204 101 L422 472 L422 529 Z " />
<glyph glyph-name="braceleft" unicode="&#x7b;" horiz-adv-x="376" d="M253 -76 L253 132 C253 251 187 270 125 285 C170 294 253 309 253 437 L253 594 C253 687 276 742 371 748 C225 748 127 737 127 628 L127 440 C127 319 91 294 18 285 C91 275 127 249 127 128 L127 -83 C127 -191 222 -202 366 -203 C284 -197 253 -153 253 -76 L253 -76 Z " />
<glyph glyph-name="bar" unicode="&#x7c;" horiz-adv-x="264" d="M186 -194 L186 736 L77 736 L77 -194 L186 -194 Z " />
<glyph glyph-name="braceright" unicode="&#x7d;" horiz-adv-x="377" d="M249 -83 L249 99 C249 240 278 272 358 285 C284 294 249 319 249 440 L249 628 C249 737 151 748 5 748 C94 743 123 695 123 607 L123 437 C123 309 206 294 251 285 C193 271 123 257 123 132 L123 -62 C123 -149 95 -196 10 -203 C153 -202 249 -191 249 -83 L249 -83 Z " />
<glyph glyph-name="asciitilde" unicode="&#x7e;" horiz-adv-x="685" d="M550 315 C550 340 542 366 524 382 C523 365 520 353 516 342 C505 316 486 302 454 302 C422 302 389 316 352 330 C318 344 284 357 248 357 C172 357 135 303 135 251 C135 221 144 191 163 168 C164 186 167 200 171 211 C183 244 202 261 233 261 C262 261 293 246 328 232 C360 219 397 205 436 205 C510 205 550 261 550 315 L550 315 Z " />
<glyph glyph-name="uni00A0" unicode="&#xa0;" horiz-adv-x="243" />
<glyph glyph-name="exclamdown" unicode="&#xa1;" horiz-adv-x="258" d="M199 -194 L192 315 L67 315 L59 -194 L199 -194 Z M201 461 C201 501 170 534 129 534 C89 534 57 501 57 461 C57 422 89 389 129 389 C170 389 201 422 201 461 L201 461 Z " />
<glyph glyph-name="cent" unicode="&#xa2;" horiz-adv-x="449" d="M280 539 C320 539 342 530 357 530 C390 530 413 540 422 614 C386 629 349 635 319 637 L319 749 L206 749 L206 628 C100 594 32 490 32 361 C32 225 100 124 206 100 L206 -35 L319 -35 L319 96 C349 102 382 114 413 130 L413 210 C380 198 332 189 299 189 C210 189 159 260 159 366 C159 475 218 539 280 539 L280 539 Z " />
<glyph glyph-name="sterling" unicode="&#xa3;" horiz-adv-x="523" d="M485 678 C451 696 396 718 334 718 C204 718 143 647 123 515 L102 376 L77 376 C39 376 26 351 22 318 L15 266 L87 266 C73 168 54 94 26 0 L304 0 C467 0 494 9 494 120 C462 116 432 112 381 112 L188 112 C200 163 210 210 218 266 L328 266 C391 266 387 312 395 376 L232 376 C239 420 246 467 252 511 C259 564 278 599 342 599 C372 599 404 590 442 571 L485 678 Z " />
<glyph glyph-name="currency" unicode="&#xa4;" horiz-adv-x="468" d="M5 0 L463 0 L463 785 L5 785 L5 0 Z M102 80 L102 705 L366 705 L366 80 L102 80 Z " />
<glyph glyph-name="yen" unicode="&#xa5;" horiz-adv-x="585" d="M535 253 L364 253 L364 337 L535 337 L535 435 L407 435 L576 704 L436 704 L302 475 L164 704 L9 704 L182 435 L54 435 L54 337 L222 337 L222 253 L54 253 L54 156 L222 156 L222 0 L364 0 L364 156 L535 156 L535 253 Z " />
<glyph glyph-name="brokenbar" unicode="&#xa6;" horiz-adv-x="264" d="M185 386 L185 736 L75 736 L75 386 L185 386 Z M185 -194 L185 155 L75 155 L75 -194 L185 -194 Z " />
<glyph glyph-name="section" unicode="&#xa7;" horiz-adv-x="527" d="M365 242 C365 208 347 174 317 144 C296 153 274 162 254 171 C202 195 161 217 161 277 C161 311 180 346 209 376 C228 367 251 359 277 347 C324 327 365 303 365 242 L365 242 Z M483 242 C483 376 395 411 312 446 L269 464 C220 485 190 511 190 550 C190 590 224 616 271 616 C327 616 382 579 386 528 C420 536 440 566 440 600 C440 657 381 718 259 718 C149 718 74 644 74 550 C74 507 90 468 119 437 C73 389 44 332 44 277 C44 149 124 107 206 76 L232 66 C306 37 336 10 336 -29 C336 -69 300 -93 249 -93 C194 -93 118 -67 108 2 C73 -5 54 -35 54 -67 C54 -152 152 -203 251 -203 C352 -203 453 -150 453 -29 C453 13 437 51 407 83 C453 130 483 187 483 242 L483 242 Z " />
<glyph glyph-name="dieresis" unicode="&#xa8;" horiz-adv-x="547" d="M436 665 C436 698 409 727 374 727 C340 727 312 698 312 665 C312 631 340 602 374 602 C409 602 436 631 436 665 L436 665 Z M233 665 C233 698 207 727 172 727 C137 727 109 698 109 665 C109 631 137 602 172 602 C207 602 233 631 233 665 L233 665 Z " />
<glyph glyph-name="copyright" unicode="&#xa9;" horiz-adv-x="823" d="M35 360 C35 156 189 -11 406 -11 C616 -11 777 147 777 360 C777 557 629 731 406 731 C178 731 35 549 35 360 L35 360 Z M102 360 C102 514 212 664 406 664 C589 664 710 522 710 360 C710 191 583 56 406 56 C221 56 102 195 102 360 L102 360 Z M411 503 C427 503 439 501 457 496 C467 494 472 493 478 493 C505 493 522 500 530 559 C494 574 450 584 405 584 C273 584 212 470 212 361 C212 229 290 137 398 137 C440 137 481 147 522 170 L522 233 C493 222 454 215 427 215 C354 215 312 274 312 361 C312 431 338 503 411 503 L411 503 Z " />
<glyph glyph-name="ordfeminine" unicode="&#xaa;" horiz-adv-x="402" d="M340 742 C329 738 314 734 299 734 C268 734 249 748 204 748 C105 748 38 671 38 567 C38 461 92 387 168 387 C209 387 241 406 262 434 L264 425 C275 399 300 387 324 387 C358 387 391 408 391 448 L391 454 C383 449 371 447 364 447 C351 447 340 455 340 474 L340 742 Z M255 673 L255 538 C255 483 230 456 194 456 C156 456 127 494 127 565 C127 629 149 683 208 683 C224 683 242 680 255 673 L255 673 Z " />
<glyph glyph-name="guillemotleft" unicode="&#xab;" horiz-adv-x="510" d="M250 448 L218 448 C164 448 142 432 110 371 L49 252 L110 134 C143 71 165 56 218 56 L250 56 L165 217 C157 232 154 242 154 252 C154 262 157 272 165 286 L250 448 Z M454 448 L422 448 C368 448 346 432 314 371 L253 252 L314 134 C347 71 369 56 422 56 L454 56 L369 217 C361 232 358 242 358 252 C358 262 361 272 369 286 L454 448 Z " />
<glyph glyph-name="logicalnot" unicode="&#xac;" horiz-adv-x="725" d="M619 76 L619 341 L84 341 L84 250 L527 250 L527 76 L619 76 Z " />
<glyph glyph-name="registered" unicode="&#xae;" horiz-adv-x="373" d="M244 605 C244 644 217 658 172 658 C157 658 144 656 132 656 L132 487 L166 487 L166 553 L176 553 C200 518 218 485 238 485 C246 485 258 491 264 499 C251 505 242 516 232 530 L211 560 C231 568 244 585 244 605 L244 605 Z M210 605 C210 589 198 578 184 577 L166 577 L166 632 L177 632 C198 632 210 621 210 605 L210 605 Z M340 569 C340 643 290 718 188 718 C85 718 35 643 35 569 C35 494 86 417 188 417 C289 417 340 494 340 569 L340 569 Z M310 569 C310 507 269 446 188 446 C107 446 66 507 66 569 C66 628 107 689 188 689 C269 689 310 628 310 569 L310 569 Z " />
<glyph glyph-name="macron" unicode="&#xaf;" horiz-adv-x="547" d="M431 620 L431 705 L115 705 L115 620 L431 620 Z " />
<glyph glyph-name="degree" unicode="&#xb0;" horiz-adv-x="442" d="M392 579 C392 690 304 748 220 748 C135 748 50 690 50 579 C50 466 135 409 220 409 C304 409 392 465 392 579 L392 579 Z M297 579 C297 532 261 498 221 498 C180 498 144 531 144 579 C144 625 180 657 221 657 C261 657 297 626 297 579 L297 579 Z " />
<glyph glyph-name="plusminus" unicode="&#xb1;" horiz-adv-x="725" d="M621 336 L621 427 L408 427 L408 613 L315 613 L315 427 L103 427 L103 336 L315 336 L315 151 L408 151 L408 336 L621 336 Z M621 0 L621 91 L103 91 L103 0 L621 0 Z " />
<glyph glyph-name="twosuperior" unicode="&#xb2;" horiz-adv-x="353" d="M166 718 C72 718 24 656 24 595 C24 574 30 555 41 540 C52 523 68 513 88 513 C93 513 100 513 112 517 L119 519 C108 540 102 563 102 579 C102 618 129 642 165 642 C200 642 227 623 227 577 C227 506 144 414 77 342 L34 297 L34 241 L323 241 L323 317 L162 317 L183 339 C254 416 320 500 320 577 C320 672 253 718 166 718 L166 718 Z " />
<glyph glyph-name="threesuperior" unicode="&#xb3;" horiz-adv-x="355" d="M308 591 C308 654 258 718 160 718 C118 718 84 705 62 682 C39 665 28 638 28 616 C28 587 46 568 77 567 C79 590 86 606 95 617 C109 634 128 643 150 643 C194 643 215 611 215 581 C215 565 208 547 195 534 C183 522 163 514 133 514 L116 514 L116 442 L141 442 C188 441 223 423 223 375 C223 337 194 309 153 309 C123 309 100 321 87 343 C78 358 73 375 70 397 C44 391 26 367 26 339 C26 280 71 232 161 232 C259 232 318 301 318 374 C318 419 296 463 245 486 C286 509 308 551 308 591 L308 591 Z " />
<glyph glyph-name="acute" unicode="&#xb4;" horiz-adv-x="547" d="M165 575 L334 631 C368 642 389 663 389 690 C389 717 367 738 340 738 C322 738 303 730 285 710 L162 579 L165 575 Z " />
<glyph glyph-name="mu" unicode="&#xb5;" horiz-adv-x="564" d="M479 529 L353 529 L353 186 C353 140 323 90 261 90 C215 90 182 121 182 188 L182 529 L56 529 L56 189 C56 6 48 -194 48 -194 L176 -194 L168 29 C194 4 228 -8 264 -8 C312 -8 352 13 380 52 L382 36 C396 9 430 -8 464 -8 C511 -8 556 19 556 81 L556 91 C542 82 528 78 516 78 C494 78 479 92 479 119 L479 529 Z " />
<glyph glyph-name="paragraph" unicode="&#xb6;" horiz-adv-x="638" d="M24 479 C24 374 94 267 241 254 L241 -194 L350 -194 L350 595 L428 595 L428 -194 L540 -194 L540 595 L604 595 L604 704 L271 704 C104 704 24 591 24 479 L24 479 Z " />
<glyph glyph-name="periodcentered" unicode="&#xb7;" horiz-adv-x="270" d="M203 292 C203 329 173 360 135 360 C96 360 66 329 66 292 C66 254 96 222 135 222 C173 222 203 254 203 292 L203 292 Z " />
<glyph glyph-name="cedilla" unicode="&#xb8;" horiz-adv-x="421" d="M355 -104 C355 -63 326 -31 287 -22 L278 -20 L295 21 L213 21 L183 -50 L193 -51 C227 -57 259 -75 259 -101 C259 -124 238 -140 205 -140 C188 -140 169 -136 148 -127 C148 -166 187 -197 244 -197 C318 -197 355 -153 355 -104 L355 -104 Z " />
<glyph glyph-name="onesuperior" unicode="&#xb9;" horiz-adv-x="261" d="M26 609 C51 613 92 624 118 633 L118 265 L209 265 L209 747 C160 724 81 698 26 685 L26 609 Z " />
<glyph glyph-name="ordmasculine" unicode="&#xba;" horiz-adv-x="429" d="M382 568 C382 685 302 748 215 748 C126 748 46 677 46 556 C46 446 120 377 213 377 C303 377 382 449 382 568 L382 568 Z M286 563 C286 502 257 458 213 458 C165 458 143 510 143 561 C143 626 173 665 215 665 C260 665 286 618 286 563 L286 563 Z " />
<glyph glyph-name="guillemotright" unicode="&#xbb;" horiz-adv-x="510" d="M257 252 L201 359 C162 434 141 447 74 448 L55 448 C80 397 109 349 134 300 L141 286 C148 271 153 262 152 252 C152 242 149 232 141 217 C112 163 84 109 55 56 L74 56 C138 56 159 66 195 134 L257 252 Z M461 252 L405 359 C366 434 345 447 278 448 L259 448 C284 397 313 349 338 300 L345 286 C352 271 357 262 356 252 C356 242 353 232 345 217 C316 163 288 109 259 56 L278 56 C342 56 363 66 399 134 L461 252 Z " />
<glyph glyph-name="onequarter" unicode="&#xbc;" horiz-adv-x="846" d="M630 718 L536 718 L108 0 L202 0 L630 718 Z M717 99 C745 99 753 111 756 135 L760 169 L695 169 L695 468 L582 468 L437 167 L437 99 L610 99 L610 0 L696 0 L696 99 L717 99 Z M516 169 C546 232 578 294 610 355 L610 169 L516 169 Z M25 589 C50 593 91 604 116 613 L116 245 L207 245 L207 727 C158 704 80 677 25 665 L25 589 Z " />
<glyph glyph-name="onehalf" unicode="&#xbd;" horiz-adv-x="847" d="M631 718 L536 718 L108 0 L203 0 L631 718 Z M208 727 C158 704 80 677 25 665 L25 589 C50 593 91 605 117 613 L117 245 L208 245 L208 727 Z M787 336 C787 432 720 478 633 478 C539 478 491 416 491 355 C491 333 497 312 509 297 C520 281 535 273 554 273 C560 273 565 273 579 276 L586 278 C575 299 569 322 569 338 C569 378 596 402 631 402 C666 402 694 382 694 336 C694 265 608 170 543 101 L501 57 L501 0 L790 0 L790 77 L629 77 L650 99 C719 175 787 260 787 336 L787 336 Z " />
<glyph glyph-name="threequarters" unicode="&#xbe;" horiz-adv-x="869" d="M831 169 L766 169 L766 468 L653 468 L508 167 L508 99 L680 99 L680 0 L767 0 L767 99 L788 99 C815 99 824 111 827 135 L831 169 Z M310 591 C310 654 260 718 161 718 C121 718 87 705 64 686 C42 667 30 642 30 616 C30 587 48 568 79 567 C81 593 89 611 102 624 C115 637 133 643 152 643 C196 643 217 611 217 581 C217 564 209 546 194 533 C181 522 163 514 135 514 L117 514 L117 442 L143 442 C188 442 225 422 225 375 C225 337 196 309 154 309 C130 309 110 317 97 332 C82 348 74 370 72 397 C46 392 28 365 28 339 C28 280 72 232 163 232 C260 232 320 301 320 374 C320 419 297 463 246 486 C288 509 310 551 310 591 L310 591 Z M701 718 L607 718 L179 0 L273 0 L701 718 Z M586 169 L680 355 L680 169 L586 169 Z " />
<glyph glyph-name="questiondown" unicode="&#xbf;" horiz-adv-x="512" d="M467 -47 C467 8 433 38 396 40 C389 -43 355 -97 285 -97 C222 -97 183 -62 183 -6 C183 105 348 153 348 272 C348 292 345 307 341 322 L235 322 C235 271 219 242 166 189 C103 126 58 72 58 -8 C58 -114 139 -197 282 -197 C415 -197 467 -108 467 -47 L467 -47 Z M356 462 C356 501 324 535 284 535 C244 535 212 501 212 462 C212 423 244 390 284 390 C324 390 356 423 356 462 L356 462 Z " />
<glyph glyph-name="Agrave" unicode="&#xc0;" horiz-adv-x="644" d="M394 704 L246 704 L11 0 L129 0 L185 173 C218 178 252 181 282 181 C329 181 368 178 399 164 C426 151 448 130 460 89 L488 0 L629 0 L394 704 Z M312 564 L411 255 C374 273 325 281 275 281 C256 281 237 280 219 279 L312 564 Z M443 754 L305 880 C282 900 261 909 242 909 C216 909 195 889 195 863 C195 835 218 812 256 801 L439 749 L443 754 Z " />
<glyph glyph-name="Aacute" unicode="&#xc1;" horiz-adv-x="644" d="M394 704 L246 704 L11 0 L129 0 L185 173 C218 178 252 181 282 181 C329 181 368 178 399 164 C426 151 448 130 460 89 L488 0 L629 0 L394 704 Z M312 564 L411 255 C374 273 325 281 275 281 C256 281 237 280 219 279 L312 564 Z M210 749 L395 801 C433 811 456 835 456 863 C456 889 435 909 409 909 C390 909 369 900 346 880 L207 754 L210 749 Z " />
<glyph glyph-name="Acircumflex" unicode="&#xc2;" horiz-adv-x="644" d="M394 704 L246 704 L11 0 L129 0 L185 173 C218 178 252 181 282 181 C329 181 368 178 399 164 C426 151 448 130 460 89 L488 0 L629 0 L394 704 Z M312 564 L411 255 C374 273 325 281 275 281 C256 281 237 280 219 279 L312 564 Z M320 809 C356 809 393 793 445 764 L472 750 L477 755 L426 823 C390 869 361 905 320 905 C279 905 250 869 214 823 L163 755 L168 750 L195 764 C247 793 284 809 320 809 L320 809 Z " />
<glyph glyph-name="Atilde" unicode="&#xc3;" horiz-adv-x="644" d="M394 704 L246 704 L11 0 L129 0 L185 173 C218 178 252 181 282 181 C329 181 368 178 399 164 C426 151 448 130 460 89 L488 0 L629 0 L394 704 Z M312 564 L411 255 C374 273 325 281 275 281 C256 281 237 280 219 279 L312 564 Z M235 802 C281 802 349 777 405 777 C435 777 455 788 464 809 C468 819 470 831 470 853 L470 888 C454 873 436 858 404 858 C358 858 290 883 234 883 C204 883 184 872 175 851 C171 841 169 829 169 807 L169 772 C185 787 203 802 235 802 L235 802 Z " />
<glyph glyph-name="Adieresis" unicode="&#xc4;" horiz-adv-x="644" d="M394 704 L246 704 L11 0 L129 0 L185 173 C218 178 252 181 282 181 C329 181 368 178 399 164 C426 151 448 130 460 89 L488 0 L629 0 L394 704 Z M312 564 L411 255 C374 273 325 281 275 281 C256 281 237 280 219 279 L312 564 Z M484 816 C484 850 457 878 422 878 C388 878 360 850 360 816 C360 782 388 754 422 754 C457 754 484 782 484 816 L484 816 Z M281 816 C281 850 255 878 220 878 C185 878 157 850 157 816 C157 782 185 754 220 754 C255 754 281 782 281 816 L281 816 Z " />
<glyph glyph-name="Aring" unicode="&#xc5;" horiz-adv-x="644" d="M394 704 L246 704 L11 0 L129 0 L185 173 C218 178 252 181 282 181 C329 181 368 178 399 164 C426 151 448 130 460 89 L488 0 L629 0 L394 704 Z M312 564 L411 255 C374 273 325 281 275 281 C256 281 237 280 219 279 L312 564 Z M421 826 C421 881 376 926 320 926 C266 926 221 882 221 827 C221 772 266 725 320 725 C375 725 421 771 421 826 L421 826 Z M371 826 C371 797 349 773 321 773 C294 773 272 797 272 826 C272 854 294 877 321 877 C349 877 371 855 371 826 L371 826 Z " />
<glyph glyph-name="AE" unicode="&#xc6;" horiz-adv-x="878" d="M438 523 L438 266 L291 266 L438 523 Z M857 120 C820 115 786 112 718 112 L569 112 L569 301 L717 301 C761 301 774 318 779 355 L786 408 L569 408 L569 595 L814 595 L829 704 L428 704 L5 0 L140 0 L237 170 L438 170 L438 0 L707 0 C771 0 807 2 828 24 C846 39 853 63 855 98 L857 120 Z " />
<glyph glyph-name="Ccedilla" unicode="&#xc7;" horiz-adv-x="567" d="M521 126 C478 112 431 102 394 102 C252 102 177 211 177 350 C177 480 250 601 358 601 C410 601 437 585 475 585 C501 585 517 601 523 627 L538 677 C485 698 430 713 363 713 C197 713 40 588 40 350 C40 183 122 52 258 8 L233 -49 L243 -51 C277 -56 309 -74 309 -100 C309 -123 288 -140 255 -140 C238 -140 220 -135 198 -127 C198 -165 250 -196 294 -196 C367 -196 405 -154 405 -103 C405 -62 377 -31 337 -21 L329 -19 L335 -5 C343 -7 353 -7 363 -7 C419 -7 476 4 521 28 L521 126 Z " />
<glyph glyph-name="Egrave" unicode="&#xc8;" horiz-adv-x="511" d="M198 594 L443 594 L458 704 L67 704 L67 0 L336 0 C403 0 438 3 460 25 C475 40 482 63 484 96 L486 120 C448 115 415 112 347 112 L198 112 L198 301 L322 301 C389 301 402 316 409 363 L415 408 L198 408 L198 594 Z M372 754 L234 880 C211 900 190 909 171 909 C145 909 124 889 124 863 C124 835 147 812 185 801 L368 749 L372 754 Z " />
<glyph glyph-name="Eacute" unicode="&#xc9;" horiz-adv-x="511" d="M198 594 L443 594 L458 704 L67 704 L67 0 L336 0 C403 0 438 3 460 25 C475 40 482 63 484 96 L486 120 C448 115 415 112 347 112 L198 112 L198 301 L322 301 C389 301 402 316 409 363 L415 408 L198 408 L198 594 Z M153 749 L338 801 C376 811 399 835 399 863 C399 889 378 909 352 909 C333 909 312 900 289 880 L150 754 L153 749 Z " />
<glyph glyph-name="Ecircumflex" unicode="&#xca;" horiz-adv-x="511" d="M198 594 L443 594 L458 704 L67 704 L67 0 L336 0 C403 0 438 3 460 25 C475 40 482 63 484 96 L486 120 C448 115 415 112 347 112 L198 112 L198 301 L322 301 C389 301 402 316 409 363 L415 408 L198 408 L198 594 Z M259 809 C295 809 332 793 384 764 L411 750 L416 755 L365 823 C329 869 300 905 259 905 C218 905 189 869 153 823 L102 755 L107 750 L134 764 C186 793 223 809 259 809 L259 809 Z " />
<glyph glyph-name="Edieresis" unicode="&#xcb;" horiz-adv-x="511" d="M198 594 L443 594 L458 704 L67 704 L67 0 L336 0 C403 0 438 3 460 25 C475 40 482 63 484 96 L486 120 C448 115 415 112 347 112 L198 112 L198 301 L322 301 C389 301 402 316 409 363 L415 408 L198 408 L198 594 Z M421 816 C421 850 394 878 359 878 C325 878 297 850 297 816 C297 782 325 754 359 754 C394 754 421 782 421 816 L421 816 Z M218 816 C218 850 192 878 157 878 C122 878 94 850 94 816 C94 782 122 754 157 754 C192 754 218 782 218 816 L218 816 Z " />
<glyph glyph-name="Igrave" unicode="&#xcc;" horiz-adv-x="270" d="M200 0 L200 704 L70 704 L70 0 L200 0 Z M263 754 L125 880 C102 900 81 909 62 909 C36 909 15 889 15 863 C15 835 38 812 76 801 L259 749 L263 754 Z " />
<glyph glyph-name="Iacute" unicode="&#xcd;" horiz-adv-x="270" d="M200 0 L200 704 L70 704 L70 0 L200 0 Z M10 749 L195 801 C233 811 256 835 256 863 C256 889 235 909 209 909 C190 909 169 900 146 880 L7 754 L10 749 Z " />
<glyph glyph-name="Icircumflex" unicode="&#xce;" horiz-adv-x="270" d="M200 0 L200 704 L70 704 L70 0 L200 0 Z M139 809 C175 809 212 793 264 764 L291 750 L296 755 L245 823 C209 869 180 905 139 905 C98 905 69 869 33 823 L-18 755 L-13 750 L14 764 C66 793 103 809 139 809 L139 809 Z " />
<glyph glyph-name="Idieresis" unicode="&#xcf;" horiz-adv-x="270" d="M200 0 L200 704 L70 704 L70 0 L200 0 Z M301 816 C301 850 274 878 239 878 C205 878 177 850 177 816 C177 782 205 754 239 754 C274 754 301 782 301 816 L301 816 Z M98 816 C98 850 72 878 37 878 C2 878 -26 850 -26 816 C-26 782 2 754 37 754 C72 754 98 782 98 816 L98 816 Z " />
<glyph glyph-name="Eth" unicode="&#xd0;" horiz-adv-x="653" d="M63 4 C128 -4 183 -8 231 -8 C522 -8 613 171 613 355 C613 530 523 712 234 712 C185 712 127 707 63 700 L63 391 L-2 391 L-2 303 L63 303 L63 4 Z M192 607 C215 609 233 610 252 610 C390 610 476 523 476 355 C476 181 390 93 252 93 C234 93 214 94 192 97 L192 303 L307 303 L307 391 L192 391 L192 607 Z " />
<glyph glyph-name="Ntilde" unicode="&#xd1;" horiz-adv-x="680" d="M591 704 L476 704 L476 222 L214 644 C177 703 153 715 116 715 C84 715 51 704 35 695 C48 679 60 663 60 621 L60 0 L175 0 L175 478 C275 320 403 111 476 0 L591 0 L591 704 Z M245 802 C291 802 359 777 415 777 C445 777 465 788 474 809 C478 819 480 831 480 853 L480 888 C464 873 446 858 414 858 C368 858 300 883 244 883 C214 883 194 872 185 851 C181 841 179 829 179 807 L179 772 C195 787 213 802 245 802 L245 802 Z " />
<glyph glyph-name="Ograve" unicode="&#xd2;" horiz-adv-x="719" d="M679 353 C679 575 549 714 361 714 C147 714 40 545 40 353 C40 135 169 -8 358 -8 C562 -8 679 137 679 353 L679 353 Z M542 356 C542 198 465 101 360 101 C251 101 176 208 176 356 C176 501 246 605 359 605 C472 605 542 496 542 356 L542 356 Z M483 754 L345 880 C322 900 301 909 282 909 C256 909 235 889 235 863 C235 835 258 812 296 801 L479 749 L483 754 Z " />
<glyph glyph-name="Oacute" unicode="&#xd3;" horiz-adv-x="719" d="M679 353 C679 575 549 714 361 714 C147 714 40 545 40 353 C40 135 169 -8 358 -8 C562 -8 679 137 679 353 L679 353 Z M542 356 C542 198 465 101 360 101 C251 101 176 208 176 356 C176 501 246 605 359 605 C472 605 542 496 542 356 L542 356 Z M236 749 L421 801 C459 811 482 835 482 863 C482 889 461 909 435 909 C416 909 395 900 372 880 L233 754 L236 749 Z " />
<glyph glyph-name="Ocircumflex" unicode="&#xd4;" horiz-adv-x="719" d="M679 353 C679 575 549 714 361 714 C147 714 40 545 40 353 C40 135 169 -8 358 -8 C562 -8 679 137 679 353 L679 353 Z M542 356 C542 198 465 101 360 101 C251 101 176 208 176 356 C176 501 246 605 359 605 C472 605 542 496 542 356 L542 356 Z M360 809 C396 809 433 793 485 764 L512 750 L517 755 L466 823 C430 869 401 905 360 905 C319 905 290 869 254 823 L203 755 L208 750 L235 764 C287 793 324 809 360 809 L360 809 Z " />
<glyph glyph-name="Otilde" unicode="&#xd5;" horiz-adv-x="719" d="M679 353 C679 575 549 714 361 714 C147 714 40 545 40 353 C40 135 169 -8 358 -8 C562 -8 679 137 679 353 L679 353 Z M542 356 C542 198 465 101 360 101 C251 101 176 208 176 356 C176 501 246 605 359 605 C472 605 542 496 542 356 L542 356 Z M276 802 C322 802 390 777 446 777 C476 777 496 788 505 809 C509 819 511 831 511 853 L511 888 C495 873 477 858 445 858 C399 858 331 883 275 883 C245 883 225 872 216 851 C212 841 210 829 210 807 L210 772 C226 787 244 802 276 802 L276 802 Z " />
<glyph glyph-name="Odieresis" unicode="&#xd6;" horiz-adv-x="719" d="M679 353 C679 575 549 714 361 714 C147 714 40 545 40 353 C40 135 169 -8 358 -8 C562 -8 679 137 679 353 L679 353 Z M542 356 C542 198 465 101 360 101 C251 101 176 208 176 356 C176 501 246 605 359 605 C472 605 542 496 542 356 L542 356 Z M523 816 C523 850 496 878 461 878 C427 878 399 850 399 816 C399 782 427 754 461 754 C496 754 523 782 523 816 L523 816 Z M320 816 C320 850 294 878 259 878 C224 878 196 850 196 816 C196 782 224 754 259 754 C294 754 320 782 320 816 L320 816 Z " />
<glyph glyph-name="multiply" unicode="&#xd7;" horiz-adv-x="725" d="M612 68 L427 253 L612 438 L545 503 L362 319 L177 503 L113 438 L296 253 L113 68 L177 3 L362 188 L545 3 L612 68 Z " />
<glyph glyph-name="Oslash" unicode="&#xd8;" horiz-adv-x="720" d="M680 353 C680 458 649 546 597 608 L651 687 L569 746 L519 673 C473 699 420 714 361 714 C147 714 40 545 40 353 C40 247 70 159 123 97 L68 16 L152 -42 L202 32 C247 6 300 -8 358 -8 C562 -8 680 137 680 353 L680 353 Z M177 356 C177 501 246 605 359 605 C394 605 425 594 452 575 L211 224 C189 258 177 304 177 356 L177 356 Z M542 356 C542 198 466 101 360 101 C326 101 296 111 269 130 L509 481 C530 447 542 404 542 356 L542 356 Z " />
<glyph glyph-name="Ugrave" unicode="&#xd9;" horiz-adv-x="658" d="M649 84 C642 80 634 78 627 78 C610 78 598 82 589 90 C581 98 577 110 577 130 L577 704 L446 704 L446 254 C446 203 437 175 423 155 C402 119 364 103 322 103 C231 103 199 163 199 243 L199 704 L67 704 L67 292 C67 240 68 194 77 156 C105 39 202 -10 288 -10 C355 -10 417 18 452 61 C469 18 504 -9 551 -9 C601 -9 649 22 649 77 L649 84 Z M448 754 L310 880 C287 900 266 909 247 909 C221 909 200 889 200 863 C200 835 223 812 261 801 L444 749 L448 754 Z " />
<glyph glyph-name="Uacute" unicode="&#xda;" horiz-adv-x="658" d="M649 84 C642 80 634 78 627 78 C610 78 598 82 589 90 C581 98 577 110 577 130 L577 704 L446 704 L446 254 C446 203 437 175 423 155 C402 119 364 103 322 103 C231 103 199 163 199 243 L199 704 L67 704 L67 292 C67 240 68 194 77 156 C105 39 202 -10 288 -10 C355 -10 417 18 452 61 C469 18 504 -9 551 -9 C601 -9 649 22 649 77 L649 84 Z M208 749 L393 801 C431 811 454 835 454 863 C454 889 433 909 407 909 C388 909 367 900 344 880 L205 754 L208 749 Z " />
<glyph glyph-name="Ucircumflex" unicode="&#xdb;" horiz-adv-x="658" d="M649 84 C642 80 634 78 627 78 C610 78 598 82 589 90 C581 98 577 110 577 130 L577 704 L446 704 L446 254 C446 203 437 175 423 155 C402 119 364 103 322 103 C231 103 199 163 199 243 L199 704 L67 704 L67 292 C67 240 68 194 77 156 C105 39 202 -10 288 -10 C355 -10 417 18 452 61 C469 18 504 -9 551 -9 C601 -9 649 22 649 77 L649 84 Z M322 809 C358 809 395 793 447 764 L474 750 L479 755 L428 823 C392 869 363 905 322 905 C281 905 252 869 216 823 L165 755 L170 750 L197 764 C249 793 286 809 322 809 L322 809 Z " />
<glyph glyph-name="Udieresis" unicode="&#xdc;" horiz-adv-x="658" d="M649 84 C642 80 634 78 627 78 C610 78 598 82 589 90 C581 98 577 110 577 130 L577 704 L446 704 L446 254 C446 203 437 175 423 155 C402 119 364 103 322 103 C231 103 199 163 199 243 L199 704 L67 704 L67 292 C67 240 68 194 77 156 C105 39 202 -10 288 -10 C355 -10 417 18 452 61 C469 18 504 -9 551 -9 C601 -9 649 22 649 77 L649 84 Z M486 816 C486 850 459 878 424 878 C390 878 362 850 362 816 C362 782 390 754 424 754 C459 754 486 782 486 816 L486 816 Z M283 816 C283 850 257 878 222 878 C187 878 159 850 159 816 C159 782 187 754 222 754 C257 754 283 782 283 816 L283 816 Z " />
<glyph glyph-name="Yacute" unicode="&#xdd;" horiz-adv-x="607" d="M602 687 C581 703 552 713 521 713 C499 713 479 707 461 695 C447 686 436 672 419 638 L303 406 L161 704 L14 704 L235 275 L235 0 L366 0 L366 276 L541 617 C552 639 564 657 579 671 C587 678 594 682 602 687 L602 687 Z M168 749 L353 801 C391 811 414 835 414 863 C414 889 393 909 367 909 C348 909 327 900 304 880 L165 754 L168 749 Z " />
<glyph glyph-name="Thorn" unicode="&#xde;" horiz-adv-x="556" d="M522 364 C522 473 448 585 247 585 C242 585 209 585 194 584 L194 704 L64 704 L64 0 L193 0 L193 147 C229 139 260 135 290 135 C437 135 522 226 522 364 L522 364 Z M393 362 C393 323 377 284 344 258 C322 241 290 230 238 230 C232 230 199 231 193 231 L193 484 C221 486 237 486 250 486 C357 486 393 422 393 362 L393 362 Z " />
<glyph glyph-name="germandbls" unicode="&#xdf;" horiz-adv-x="604" d="M452 157 C452 119 422 86 367 86 C334 86 298 109 276 136 C247 126 234 95 234 71 C234 36 282 -9 378 -9 C491 -9 566 67 566 164 C566 257 490 301 438 333 C411 349 389 363 389 377 C389 397 406 416 428 437 C458 467 495 507 495 571 C495 667 417 747 279 747 C144 747 61 653 61 530 L61 0 L186 0 L186 537 C186 609 228 650 284 650 C331 650 373 620 373 562 C373 522 348 496 323 470 C297 443 274 416 274 370 C274 311 326 274 373 243 C414 216 452 192 452 157 L452 157 Z " />
<glyph glyph-name="agrave" unicode="&#xe0;" horiz-adv-x="575" d="M488 531 C470 524 452 519 433 519 C387 519 358 539 284 539 C134 539 33 422 33 265 C33 104 114 -8 225 -8 C293 -8 343 21 374 69 L377 56 C385 22 415 -7 466 -7 C518 -7 565 23 565 81 L565 91 C552 82 537 78 526 78 C504 78 488 92 488 119 L488 531 Z M364 433 L364 218 C364 128 324 88 266 88 C210 88 162 151 162 263 C162 361 197 448 289 448 C314 448 342 444 364 433 L364 433 Z M405 578 L281 710 C263 730 244 738 226 738 C199 738 177 717 177 690 C177 663 198 642 232 631 L402 575 L405 578 Z " />
<glyph glyph-name="aacute" unicode="&#xe1;" horiz-adv-x="575" d="M488 531 C470 524 452 519 433 519 C387 519 358 539 284 539 C134 539 33 422 33 265 C33 104 114 -8 225 -8 C293 -8 343 21 374 69 L377 56 C385 22 415 -7 466 -7 C518 -7 565 23 565 81 L565 91 C552 82 537 78 526 78 C504 78 488 92 488 119 L488 531 Z M364 433 L364 218 C364 128 324 88 266 88 C210 88 162 151 162 263 C162 361 197 448 289 448 C314 448 342 444 364 433 L364 433 Z M191 575 L360 631 C394 642 415 663 415 690 C415 717 393 738 366 738 C348 738 329 730 311 710 L188 579 L191 575 Z " />
<glyph glyph-name="acircumflex" unicode="&#xe2;" horiz-adv-x="575" d="M488 531 C470 524 452 519 433 519 C387 519 358 539 284 539 C134 539 33 422 33 265 C33 104 114 -8 225 -8 C293 -8 343 21 374 69 L377 56 C385 22 415 -7 466 -7 C518 -7 565 23 565 81 L565 91 C552 82 537 78 526 78 C504 78 488 92 488 119 L488 531 Z M364 433 L364 218 C364 128 324 88 266 88 C210 88 162 151 162 263 C162 361 197 448 289 448 C314 448 342 444 364 433 L364 433 Z M273 638 C305 638 339 621 382 596 L423 572 L426 575 C412 598 373 650 368 657 C335 703 311 732 273 732 C235 732 211 703 178 657 C172 650 133 598 119 575 L122 572 L164 598 C208 623 240 638 273 638 L273 638 Z " />
<glyph glyph-name="atilde" unicode="&#xe3;" horiz-adv-x="575" d="M488 531 C470 524 452 519 433 519 C387 519 358 539 284 539 C134 539 33 422 33 265 C33 104 114 -8 225 -8 C293 -8 343 21 374 69 L377 56 C385 22 415 -7 466 -7 C518 -7 565 23 565 81 L565 91 C552 82 537 78 526 78 C504 78 488 92 488 119 L488 531 Z M364 433 L364 218 C364 128 324 88 266 88 C210 88 162 151 162 263 C162 361 197 448 289 448 C314 448 342 444 364 433 L364 433 Z M198 631 C244 631 312 606 368 606 C398 606 418 617 427 638 C431 648 433 660 433 682 L433 717 C417 702 399 687 367 687 C321 687 253 712 197 712 C167 712 147 701 138 680 C134 670 132 658 132 636 L132 601 C148 616 166 631 198 631 L198 631 Z " />
<glyph glyph-name="adieresis" unicode="&#xe4;" horiz-adv-x="575" d="M488 531 C470 524 452 519 433 519 C387 519 358 539 284 539 C134 539 33 422 33 265 C33 104 114 -8 225 -8 C293 -8 343 21 374 69 L377 56 C385 22 415 -7 466 -7 C518 -7 565 23 565 81 L565 91 C552 82 537 78 526 78 C504 78 488 92 488 119 L488 531 Z M364 433 L364 218 C364 128 324 88 266 88 C210 88 162 151 162 263 C162 361 197 448 289 448 C314 448 342 444 364 433 L364 433 Z M442 665 C442 698 415 727 380 727 C346 727 318 698 318 665 C318 631 346 602 380 602 C415 602 442 631 442 665 L442 665 Z M239 665 C239 698 213 727 178 727 C143 727 115 698 115 665 C115 631 143 602 178 602 C213 602 239 631 239 665 L239 665 Z " />
<glyph glyph-name="aring" unicode="&#xe5;" horiz-adv-x="575" d="M488 531 C470 524 452 519 433 519 C387 519 358 539 284 539 C134 539 33 422 33 265 C33 104 114 -8 225 -8 C293 -8 343 21 374 69 L377 56 C385 22 415 -7 466 -7 C518 -7 565 23 565 81 L565 91 C552 82 537 78 526 78 C504 78 488 92 488 119 L488 531 Z M364 433 L364 218 C364 128 324 88 266 88 C210 88 162 151 162 263 C162 361 197 448 289 448 C314 448 342 444 364 433 L364 433 Z M379 671 C379 726 334 771 278 771 C224 771 179 726 179 672 C179 616 224 570 278 570 C333 570 379 615 379 671 L379 671 Z M329 671 C329 642 307 618 279 618 C252 618 230 641 230 670 C230 699 252 722 279 722 C307 722 329 700 329 671 L329 671 Z " />
<glyph glyph-name="ae" unicode="&#xe6;" horiz-adv-x="837" d="M800 392 C800 470 733 537 625 537 C556 537 489 507 451 448 L452 523 C443 521 435 520 427 520 C387 520 357 539 284 539 C134 539 33 422 33 265 C33 70 146 -8 251 -8 C319 -8 390 21 427 83 C463 27 525 -8 601 -8 C713 -8 789 68 789 143 C750 113 696 90 631 90 C558 90 504 138 490 214 C693 218 800 276 800 392 L800 392 Z M289 449 C314 449 343 445 364 434 L364 218 C364 128 324 88 266 88 C210 88 162 151 162 263 C162 361 197 449 289 449 L289 449 Z M685 390 C685 328 613 296 485 296 C492 390 550 451 612 451 C662 451 685 422 685 390 L685 390 Z " />
<glyph glyph-name="ccedilla" unicode="&#xe7;" horiz-adv-x="453" d="M422 514 C376 533 328 540 280 540 C110 540 32 398 32 261 C32 126 99 25 202 0 L182 -50 L192 -51 C225 -57 258 -75 258 -101 C258 -124 236 -140 203 -140 C186 -140 168 -136 146 -127 C147 -166 185 -197 243 -197 C316 -197 354 -153 354 -104 C354 -63 325 -31 285 -22 L277 -20 L282 -9 C326 -6 369 6 413 30 L413 110 C380 98 332 89 299 89 C210 89 159 160 159 266 C159 354 193 439 287 439 C320 439 342 430 357 430 C390 430 413 440 422 514 L422 514 Z " />
<glyph glyph-name="egrave" unicode="&#xe8;" horiz-adv-x="514" d="M279 540 C133 540 34 412 34 257 C34 119 122 -8 272 -8 C383 -8 460 66 460 142 C420 113 359 90 303 90 C231 90 176 135 161 214 C364 218 471 276 471 392 C471 472 401 540 279 540 L279 540 Z M283 452 C333 452 356 422 356 390 C356 328 284 296 156 296 C163 390 221 452 283 452 L283 452 Z M389 578 L265 710 C247 730 228 738 210 738 C183 738 161 717 161 690 C161 663 182 642 216 631 L386 575 L389 578 Z " />
<glyph glyph-name="eacute" unicode="&#xe9;" horiz-adv-x="514" d="M279 540 C133 540 34 412 34 257 C34 119 122 -8 272 -8 C383 -8 460 66 460 142 C420 113 359 90 303 90 C231 90 176 135 161 214 C364 218 471 276 471 392 C471 472 401 540 279 540 L279 540 Z M283 452 C333 452 356 422 356 390 C356 328 284 296 156 296 C163 390 221 452 283 452 L283 452 Z M159 575 L328 631 C362 642 383 663 383 690 C383 717 361 738 334 738 C316 738 297 730 279 710 L156 579 L159 575 Z " />
<glyph glyph-name="ecircumflex" unicode="&#xea;" horiz-adv-x="514" d="M279 540 C133 540 34 412 34 257 C34 119 122 -8 272 -8 C383 -8 460 66 460 142 C420 113 359 90 303 90 C231 90 176 135 161 214 C364 218 471 276 471 392 C471 472 401 540 279 540 L279 540 Z M283 452 C333 452 356 422 356 390 C356 328 284 296 156 296 C163 390 221 452 283 452 L283 452 Z M264 638 C296 638 330 621 373 596 L414 572 L417 575 C403 598 364 650 359 657 C326 703 302 732 264 732 C226 732 202 703 169 657 C163 650 124 598 110 575 L113 572 L155 598 C199 623 231 638 264 638 L264 638 Z " />
<glyph glyph-name="edieresis" unicode="&#xeb;" horiz-adv-x="514" d="M279 540 C133 540 34 412 34 257 C34 119 122 -8 272 -8 C383 -8 460 66 460 142 C420 113 359 90 303 90 C231 90 176 135 161 214 C364 218 471 276 471 392 C471 472 401 540 279 540 L279 540 Z M283 452 C333 452 356 422 356 390 C356 328 284 296 156 296 C163 390 221 452 283 452 L283 452 Z M425 665 C425 698 398 727 363 727 C329 727 301 698 301 665 C301 631 329 602 363 602 C398 602 425 631 425 665 L425 665 Z M222 665 C222 698 196 727 161 727 C126 727 98 698 98 665 C98 631 126 602 161 602 C196 602 222 631 222 665 L222 665 Z " />
<glyph glyph-name="igrave" unicode="&#xec;" horiz-adv-x="268" d="M237 578 L113 710 C95 730 76 738 58 738 C31 738 9 717 9 690 C9 663 30 642 64 631 L234 575 L237 578 Z M181 529 L56 529 L56 138 C56 37 95 -6 160 -6 C211 -6 258 23 258 82 L258 91 C244 83 230 79 218 79 C197 79 181 92 181 120 L181 529 Z " />
<glyph glyph-name="iacute" unicode="&#xed;" horiz-adv-x="268" d="M37 575 L206 631 C240 642 261 663 261 690 C261 717 239 738 212 738 C194 738 175 730 157 710 L34 579 L37 575 Z M181 529 L56 529 L56 138 C56 37 95 -6 160 -6 C211 -6 258 23 258 82 L258 91 C244 83 230 79 218 79 C197 79 181 92 181 120 L181 529 Z " />
<glyph glyph-name="icircumflex" unicode="&#xee;" horiz-adv-x="268" d="M181 529 L56 529 L56 138 C56 37 95 -6 160 -6 C211 -6 258 23 258 82 L258 91 C244 83 230 79 218 79 C197 79 181 92 181 120 L181 529 Z M123 638 C155 638 189 621 232 596 L273 572 L276 575 C262 598 223 650 218 657 C185 703 161 732 123 732 C85 732 61 703 28 657 C22 650 -17 598 -31 575 L-28 572 L14 598 C58 623 90 638 123 638 L123 638 Z " />
<glyph glyph-name="idieresis" unicode="&#xef;" horiz-adv-x="268" d="M283 665 C283 698 256 727 221 727 C187 727 159 698 159 665 C159 631 187 602 221 602 C256 602 283 631 283 665 L283 665 Z M80 665 C80 698 54 727 19 727 C-16 727 -44 698 -44 665 C-44 631 -16 602 19 602 C54 602 80 631 80 665 L80 665 Z M181 529 L56 529 L56 138 C56 37 95 -6 160 -6 C211 -6 258 23 258 82 L258 91 C244 83 230 79 218 79 C197 79 181 92 181 120 L181 529 Z " />
<glyph glyph-name="eth" unicode="&#xf0;" horiz-adv-x="539" d="M268 -9 C385 -9 504 67 504 289 C504 449 451 564 366 643 L424 681 C418 689 375 736 369 744 C355 735 311 703 297 694 C257 718 179 738 109 743 L83 648 C122 643 152 638 190 617 L127 576 L185 516 L266 572 C314 535 346 473 364 410 C335 443 294 467 233 467 C108 467 39 352 39 236 C39 114 112 -9 268 -9 L268 -9 Z M267 86 C201 86 167 163 167 236 C167 307 200 375 267 375 C334 375 375 307 375 238 C375 138 319 86 267 86 L267 86 Z " />
<glyph glyph-name="ntilde" unicode="&#xf1;" horiz-adv-x="570" d="M484 317 C484 347 482 376 479 397 C464 499 396 540 318 540 C253 540 200 506 174 459 L171 529 L61 529 L61 0 L187 0 L187 339 C187 393 216 443 280 443 C326 443 358 417 358 335 L358 112 C358 24 411 -6 462 -6 C513 -6 561 24 561 82 L561 91 C547 83 533 79 521 79 C499 79 484 93 484 120 L484 317 Z M188 631 C234 631 302 606 358 606 C388 606 408 617 417 638 C421 648 423 660 423 682 L423 717 C407 702 389 687 357 687 C311 687 243 712 187 712 C157 712 137 701 128 680 C124 670 122 658 122 636 L122 601 C138 616 156 631 188 631 L188 631 Z " />
<glyph glyph-name="ograve" unicode="&#xf2;" horiz-adv-x="555" d="M275 88 C202 88 163 171 163 265 C163 378 207 444 278 444 C352 444 390 361 390 266 C390 154 347 88 275 88 L275 88 Z M271 -8 C434 -8 520 115 520 269 C520 412 446 540 284 540 C121 540 35 416 35 262 C35 119 109 -8 271 -8 L271 -8 Z M392 578 L268 710 C250 730 231 738 213 738 C186 738 164 717 164 690 C164 663 185 642 219 631 L389 575 L392 578 Z " />
<glyph glyph-name="oacute" unicode="&#xf3;" horiz-adv-x="555" d="M275 88 C202 88 163 171 163 265 C163 378 207 444 278 444 C352 444 390 361 390 266 C390 154 347 88 275 88 L275 88 Z M271 -8 C434 -8 520 115 520 269 C520 412 446 540 284 540 C121 540 35 416 35 262 C35 119 109 -8 271 -8 L271 -8 Z M170 575 L339 631 C373 642 394 663 394 690 C394 717 372 738 345 738 C327 738 308 730 290 710 L167 579 L170 575 Z " />
<glyph glyph-name="ocircumflex" unicode="&#xf4;" horiz-adv-x="555" d="M275 88 C202 88 163 171 163 265 C163 378 207 444 278 444 C352 444 390 361 390 266 C390 154 347 88 275 88 L275 88 Z M271 -8 C434 -8 520 115 520 269 C520 412 446 540 284 540 C121 540 35 416 35 262 C35 119 109 -8 271 -8 L271 -8 Z M276 638 C308 638 342 621 385 596 L426 572 L429 575 C415 598 376 650 371 657 C338 703 314 732 276 732 C238 732 214 703 181 657 C175 650 136 598 122 575 L125 572 L167 598 C211 623 243 638 276 638 L276 638 Z " />
<glyph glyph-name="otilde" unicode="&#xf5;" horiz-adv-x="555" d="M275 88 C202 88 163 171 163 265 C163 378 207 444 278 444 C352 444 390 361 390 266 C390 154 347 88 275 88 L275 88 Z M271 -8 C434 -8 520 115 520 269 C520 412 446 540 284 540 C121 540 35 416 35 262 C35 119 109 -8 271 -8 L271 -8 Z M190 631 C236 631 304 606 360 606 C390 606 410 617 419 638 C423 648 425 660 425 682 L425 717 C409 702 391 687 359 687 C313 687 245 712 189 712 C159 712 139 701 130 680 C126 670 124 658 124 636 L124 601 C140 616 158 631 190 631 L190 631 Z " />
<glyph glyph-name="odieresis" unicode="&#xf6;" horiz-adv-x="555" d="M275 88 C202 88 163 171 163 265 C163 378 207 444 278 444 C352 444 390 361 390 266 C390 154 347 88 275 88 L275 88 Z M271 -8 C434 -8 520 115 520 269 C520 412 446 540 284 540 C121 540 35 416 35 262 C35 119 109 -8 271 -8 L271 -8 Z M439 665 C439 698 412 727 377 727 C343 727 315 698 315 665 C315 631 343 602 377 602 C412 602 439 631 439 665 L439 665 Z M236 665 C236 698 210 727 175 727 C140 727 112 698 112 665 C112 631 140 602 175 602 C210 602 236 631 236 665 L236 665 Z " />
<glyph glyph-name="divide" unicode="&#xf7;" horiz-adv-x="725" d="M423 443 C423 480 394 504 361 504 C330 504 301 480 301 443 C301 406 331 382 361 382 C392 382 423 405 423 443 L423 443 Z M622 209 L622 299 L100 299 L100 209 L622 209 Z M422 66 C422 104 392 127 361 127 C329 127 301 103 301 66 C301 29 329 5 361 5 C392 5 422 29 422 66 L422 66 Z " />
<glyph glyph-name="oslash" unicode="&#xf8;" horiz-adv-x="555" d="M520 269 C520 341 500 410 460 460 L497 513 L434 556 L402 510 C370 529 330 539 284 539 C121 539 35 416 35 262 C35 188 55 117 97 67 C84 48 71 29 57 10 L119 -32 L156 19 C188 2 226 -8 271 -8 C434 -8 520 115 520 269 L520 269 Z M163 265 C163 374 207 443 278 443 C302 443 323 434 339 419 L179 185 C168 208 163 236 163 265 L163 265 Z M275 88 C252 88 233 95 218 109 C267 180 326 266 376 337 C385 315 390 293 390 266 C390 158 350 88 275 88 L275 88 Z " />
<glyph glyph-name="ugrave" unicode="&#xf9;" horiz-adv-x="564" d="M457 -7 C511 -7 556 32 556 81 L556 90 C542 82 528 78 516 78 C494 78 479 92 479 119 L479 529 L353 529 L353 186 C353 140 322 90 261 90 C210 90 182 146 182 223 L182 529 L56 529 L56 189 C56 49 118 -7 224 -7 C280 -7 332 20 366 62 C366 19 421 -7 457 -7 L457 -7 Z M384 578 L260 710 C242 730 223 738 205 738 C178 738 156 717 156 690 C156 663 177 642 211 631 L381 575 L384 578 Z " />
<glyph glyph-name="uacute" unicode="&#xfa;" horiz-adv-x="564" d="M457 -7 C511 -7 556 32 556 81 L556 90 C542 82 528 78 516 78 C494 78 479 92 479 119 L479 529 L353 529 L353 186 C353 140 322 90 261 90 C210 90 182 146 182 223 L182 529 L56 529 L56 189 C56 49 118 -7 224 -7 C280 -7 332 20 366 62 C366 19 421 -7 457 -7 L457 -7 Z M177 575 L346 631 C380 642 401 663 401 690 C401 717 379 738 352 738 C334 738 315 730 297 710 L174 579 L177 575 Z " />
<glyph glyph-name="ucircumflex" unicode="&#xfb;" horiz-adv-x="564" d="M457 -7 C511 -7 556 32 556 81 L556 90 C542 82 528 78 516 78 C494 78 479 92 479 119 L479 529 L353 529 L353 186 C353 140 322 90 261 90 C210 90 182 146 182 223 L182 529 L56 529 L56 189 C56 49 118 -7 224 -7 C280 -7 332 20 366 62 C366 19 421 -7 457 -7 L457 -7 Z M270 638 C302 638 336 621 379 596 L420 572 L423 575 C409 598 370 650 365 657 C332 703 308 732 270 732 C232 732 208 703 175 657 C169 650 130 598 116 575 L119 572 L161 598 C205 623 237 638 270 638 L270 638 Z " />
<glyph glyph-name="udieresis" unicode="&#xfc;" horiz-adv-x="564" d="M457 -7 C511 -7 556 32 556 81 L556 90 C542 82 528 78 516 78 C494 78 479 92 479 119 L479 529 L353 529 L353 186 C353 140 322 90 261 90 C210 90 182 146 182 223 L182 529 L56 529 L56 189 C56 49 118 -7 224 -7 C280 -7 332 20 366 62 C366 19 421 -7 457 -7 L457 -7 Z M429 665 C429 698 402 727 367 727 C333 727 305 698 305 665 C305 631 333 602 367 602 C402 602 429 631 429 665 L429 665 Z M226 665 C226 698 200 727 165 727 C130 727 102 698 102 665 C102 631 130 602 165 602 C200 602 226 631 226 665 L226 665 Z " />
<glyph glyph-name="yacute" unicode="&#xfd;" horiz-adv-x="537" d="M479 529 L353 529 L353 208 C353 150 315 107 260 107 C218 107 182 134 182 210 L182 529 L56 529 L56 232 C56 68 122 16 221 16 C278 16 324 38 355 74 L355 59 C355 -53 303 -102 215 -102 C172 -102 121 -85 87 -60 C81 -70 78 -82 78 -93 C78 -162 150 -202 240 -202 C427 -202 479 -59 479 127 L479 529 Z M149 575 L318 631 C352 642 373 663 373 690 C373 717 351 738 324 738 C306 738 287 730 269 710 L146 579 L149 575 Z " />
<glyph glyph-name="thorn" unicode="&#xfe;" d="M384 268 C384 169 349 83 257 83 C232 83 201 91 182 101 L182 313 C182 402 222 443 280 443 C336 443 384 380 384 268 L384 268 Z M513 271 C513 442 421 540 320 540 C272 540 214 523 182 474 L182 736 L57 736 L57 -194 L182 -194 L182 18 C209 -1 272 -7 291 -7 C429 -7 513 90 513 271 L513 271 Z " />
<glyph glyph-name="ydieresis" unicode="&#xff;" horiz-adv-x="537" d="M479 529 L353 529 L353 208 C353 150 315 107 260 107 C218 107 182 134 182 210 L182 529 L56 529 L56 232 C56 68 122 16 221 16 C278 16 324 38 355 74 L355 59 C355 -53 303 -102 215 -102 C172 -102 121 -85 87 -60 C81 -70 78 -82 78 -93 C78 -162 150 -202 240 -202 C427 -202 479 -59 479 127 L479 529 Z M429 665 C429 698 402 727 367 727 C333 727 305 698 305 665 C305 631 333 602 367 602 C402 602 429 631 429 665 L429 665 Z M226 665 C226 698 200 727 165 727 C130 727 102 698 102 665 C102 631 130 602 165 602 C200 602 226 631 226 665 L226 665 Z " />
<glyph glyph-name="dotlessi" unicode="&#x131;" horiz-adv-x="268" d="M181 529 L56 529 L56 138 C56 37 95 -6 160 -6 C211 -6 258 23 258 82 L258 91 C244 83 230 79 218 79 C197 79 181 92 181 120 L181 529 Z " />
<glyph glyph-name="Lslash" unicode="&#x141;" horiz-adv-x="473" d="M450 120 C409 115 375 112 296 112 L194 112 L194 328 L308 411 L308 523 L194 440 L194 704 L63 704 L63 345 L49 334 C24 316 17 289 17 255 L17 199 L63 233 L63 0 L283 0 C366 0 403 1 426 28 C438 43 446 66 449 99 L450 120 Z " />
<glyph glyph-name="lslash" unicode="&#x142;" horiz-adv-x="270" d="M256 91 C243 84 231 80 220 80 C197 80 180 96 180 125 L180 385 L225 417 L225 528 L180 497 L180 736 L55 736 L55 404 L43 395 C20 376 12 351 12 316 L12 259 L55 291 L55 112 C55 24 107 -6 158 -6 C210 -6 256 23 256 81 L256 91 Z " />
<glyph glyph-name="OE" unicode="&#x152;" horiz-adv-x="883" d="M443 98 C421 95 405 94 388 94 C248 94 169 188 169 353 C169 518 249 609 388 609 C405 609 421 609 443 606 L443 98 Z M861 120 C824 115 791 112 723 112 L573 112 L573 301 L721 301 C765 301 778 318 783 355 L790 408 L573 408 L573 595 L819 595 L833 704 L573 704 C499 704 443 711 405 711 C121 711 32 533 32 353 C32 171 123 -7 405 -7 C441 -7 507 0 571 0 L712 0 C777 0 813 2 834 25 C850 39 857 61 859 93 L861 120 Z " />
<glyph glyph-name="oe" unicode="&#x153;" horiz-adv-x="867" d="M646 540 C561 540 494 499 457 434 C424 494 366 539 277 539 C127 539 35 421 35 264 C35 105 121 -8 264 -8 C353 -8 415 34 452 93 C485 30 547 -8 627 -8 C739 -8 815 68 815 143 C775 113 722 90 656 90 C584 90 529 140 515 216 C709 219 824 276 824 392 C824 472 751 540 646 540 L646 540 Z M275 88 C202 88 164 173 164 267 C164 380 208 448 278 448 C351 448 389 362 389 268 C389 156 346 88 275 88 L275 88 Z M641 448 C686 448 711 421 711 386 C711 324 639 292 510 292 C517 385 574 448 641 448 L641 448 Z " />
<glyph glyph-name="Scaron" unicode="&#x160;" horiz-adv-x="518" d="M39 509 C39 406 91 351 181 317 C292 275 354 267 354 192 C354 141 314 98 240 98 C167 98 111 140 103 230 C63 220 37 178 37 139 C37 59 103 -10 242 -10 C370 -10 478 62 478 198 C478 297 430 361 331 398 C248 429 158 443 158 522 C158 565 188 610 263 610 C326 610 370 581 391 516 C429 523 454 561 454 595 C454 672 356 715 261 715 C131 715 39 628 39 509 L39 509 Z M257 845 C221 845 184 862 132 891 L105 905 L100 900 L151 832 C187 785 216 749 257 749 C298 749 327 785 363 832 L414 900 L409 905 L382 891 C330 862 293 845 257 845 L257 845 Z " />
<glyph glyph-name="scaron" unicode="&#x161;" horiz-adv-x="434" d="M390 156 C390 259 321 290 253 313 C181 337 156 349 156 390 C156 425 183 448 225 448 C268 448 299 426 324 426 C349 426 365 436 375 487 L378 504 C331 526 283 539 221 539 C114 539 43 473 43 379 C43 279 112 246 175 224 C232 204 278 187 278 146 C278 109 249 83 209 83 C163 83 114 101 69 125 L38 37 C83 11 145 -9 209 -9 C318 -9 390 57 390 156 L390 156 Z M212 676 C180 676 140 696 93 725 L62 742 L59 739 C73 716 112 664 117 657 C150 611 174 582 212 582 C250 582 274 611 307 657 C313 664 352 716 366 739 L363 742 L332 725 C285 696 245 676 212 676 L212 676 Z " />
<glyph glyph-name="Ydieresis" unicode="&#x178;" horiz-adv-x="607" d="M602 687 C581 703 552 713 521 713 C499 713 479 707 461 695 C447 686 436 672 419 638 L303 406 L161 704 L14 704 L235 275 L235 0 L366 0 L366 276 L541 617 C552 639 564 657 579 671 C587 678 594 682 602 687 L602 687 Z M470 816 C470 850 443 878 408 878 C374 878 346 850 346 816 C346 782 374 754 408 754 C443 754 470 782 470 816 L470 816 Z M267 816 C267 850 241 878 206 878 C171 878 143 850 143 816 C143 782 171 754 206 754 C241 754 267 782 267 816 L267 816 Z " />
<glyph glyph-name="Zcaron" unicode="&#x17d;" horiz-adv-x="568" d="M53 704 L53 594 L338 594 L40 69 L40 0 L390 0 C457 0 491 2 512 25 C528 40 534 63 537 97 L539 118 C500 114 460 110 385 110 L209 110 C267 207 455 546 513 643 L513 704 L53 704 Z M279 846 C243 846 206 863 154 892 L127 906 L122 901 L173 833 C209 786 238 750 279 750 C320 750 349 786 385 833 L436 901 L431 906 L404 892 C352 863 315 846 279 846 L279 846 Z " />
<glyph glyph-name="zcaron" unicode="&#x17e;" horiz-adv-x="484" d="M422 529 L43 529 L43 430 L262 430 L43 56 L43 0 L304 0 C371 0 405 1 426 28 C437 42 444 65 446 97 L447 109 C409 104 372 101 293 101 L204 101 L422 472 L422 529 Z M234 676 C202 676 162 696 115 725 L84 742 L81 739 C95 716 134 664 139 657 C172 611 196 582 234 582 C272 582 296 611 329 657 C335 664 374 716 388 739 L385 742 L354 725 C307 696 267 676 234 676 L234 676 Z " />
<glyph glyph-name="florin" unicode="&#x192;" horiz-adv-x="576" d="M570 720 C537 734 498 743 462 743 C333 743 245 662 223 461 L123 461 C121 431 117 401 115 372 L215 372 L184 140 C169 28 151 6 105 6 C87 6 68 11 31 31 C22 -6 13 -43 3 -80 C37 -94 68 -102 100 -102 C305 -102 326 73 360 372 L472 372 L479 461 L368 461 C385 569 394 636 466 636 C484 636 511 631 538 617 L570 720 Z " />
<glyph glyph-name="circumflex" unicode="&#x2c6;" horiz-adv-x="547" d="M279 638 C311 638 345 621 388 596 L429 572 L432 575 C418 598 379 650 374 657 C341 703 317 732 279 732 C241 732 217 703 184 657 C178 650 139 598 125 575 L128 572 L170 598 C214 623 246 638 279 638 L279 638 Z " />
<glyph glyph-name="caron" unicode="&#x2c7;" horiz-adv-x="547" d="M278 676 C246 676 206 696 159 725 L128 742 L125 739 C139 716 178 664 183 657 C216 611 240 582 278 582 C316 582 340 611 373 657 C379 664 418 716 432 739 L429 742 L398 725 C351 696 311 676 278 676 L278 676 Z " />
<glyph glyph-name="breve" unicode="&#x2d8;" horiz-adv-x="547" d="M407 720 C407 731 406 739 404 746 C381 696 333 658 272 658 C211 658 164 695 140 746 C139 739 137 731 137 719 C137 629 203 574 272 574 C342 574 407 630 407 720 L407 720 Z " />
<glyph glyph-name="dotaccent" unicode="&#x2d9;" horiz-adv-x="547" d="M342 665 C342 702 312 733 273 733 C235 733 204 702 204 665 C204 627 235 595 273 595 C312 595 342 627 342 665 L342 665 Z " />
<glyph glyph-name="ring" unicode="&#x2da;" horiz-adv-x="547" d="M373 671 C373 726 328 771 272 771 C218 771 173 726 173 672 C173 616 218 570 272 570 C327 570 373 615 373 671 L373 671 Z M323 671 C323 642 301 618 273 618 C246 618 224 641 224 670 C224 699 246 722 273 722 C301 722 323 700 323 671 L323 671 Z " />
<glyph glyph-name="ogonek" unicode="&#x2db;" horiz-adv-x="547" d="M380 -107 C358 -121 337 -127 323 -127 C288 -127 267 -109 267 -78 C267 -53 287 -25 340 0 L259 0 C213 -30 190 -67 190 -101 C190 -155 233 -186 282 -186 C321 -186 369 -160 380 -107 L380 -107 Z " />
<glyph glyph-name="tilde" unicode="&#x2dc;" horiz-adv-x="547" d="M189 631 C235 631 303 606 359 606 C389 606 409 617 418 638 C422 648 424 660 424 682 L424 717 C408 702 390 687 358 687 C312 687 244 712 188 712 C158 712 138 701 129 680 C125 670 123 658 123 636 L123 601 C139 616 157 631 189 631 L189 631 Z " />
<glyph glyph-name="hungarumlaut" unicode="&#x2dd;" horiz-adv-x="547" d="M497 690 C497 717 474 738 448 738 C430 738 410 730 393 710 L271 580 L275 576 L441 631 C475 642 497 663 497 690 L497 690 Z M310 690 C310 717 287 738 261 738 C243 738 223 730 206 710 L84 580 L88 576 L254 631 C288 642 310 663 310 690 L310 690 Z " />
<glyph glyph-name="pi" unicode="&#x3c0;" horiz-adv-x="614" d="M230 426 L381 426 L381 112 C381 24 433 -6 484 -6 C535 -6 583 24 583 82 L583 91 C569 83 555 79 543 79 C522 79 506 93 506 120 L506 426 L590 426 L590 529 L24 529 L24 426 L109 426 L109 0 L230 0 L230 426 Z " />
<glyph glyph-name="endash" unicode="&#x2013;" horiz-adv-x="725" d="M623 209 L623 300 L100 300 L100 209 L623 209 Z " />
<glyph glyph-name="emdash" unicode="&#x2014;" horiz-adv-x="1010" d="M943 208 L943 300 L66 300 L66 208 L943 208 Z " />
<glyph glyph-name="quoteleft" unicode="&#x2018;" horiz-adv-x="253" d="M207 736 C200 737 193 739 186 739 C124 739 48 671 48 567 C48 498 91 465 131 465 C168 465 200 491 200 532 C200 593 144 580 144 635 C144 656 162 706 207 736 L207 736 Z " />
<glyph glyph-name="quoteright" unicode="&#x2019;" horiz-adv-x="253" d="M205 634 C205 703 164 737 123 737 C86 737 53 711 53 669 C53 641 65 627 81 616 C97 604 110 594 110 566 C110 545 91 496 46 466 C54 464 61 463 68 463 C130 463 205 531 205 634 L205 634 Z " />
<glyph glyph-name="quotesinglbase" unicode="&#x201a;" horiz-adv-x="268" d="M210 29 C210 98 169 132 128 132 C91 132 58 106 58 64 C58 36 70 22 86 11 C102 -1 115 -11 115 -39 C115 -60 96 -109 51 -139 C59 -141 66 -142 73 -142 C135 -142 210 -74 210 29 L210 29 Z " />
<glyph glyph-name="quotedblleft" unicode="&#x201c;" horiz-adv-x="460" d="M207 736 C200 737 193 739 186 739 C124 739 48 671 48 567 C48 498 91 465 131 465 C168 465 200 491 200 532 C200 593 144 580 144 635 C144 656 162 706 207 736 L207 736 Z M413 736 C406 737 399 739 392 739 C330 739 254 671 254 567 C254 498 297 465 337 465 C374 465 406 491 406 532 C406 593 350 580 350 635 C350 656 368 706 413 736 L413 736 Z " />
<glyph glyph-name="quotedblright" unicode="&#x201d;" horiz-adv-x="460" d="M205 634 C205 703 164 737 123 737 C86 737 53 711 53 669 C53 641 65 627 81 616 C97 604 110 594 110 566 C110 545 91 496 46 466 C54 464 61 463 68 463 C130 463 205 531 205 634 L205 634 Z M411 634 C411 703 370 737 329 737 C292 737 259 711 259 669 C259 641 271 627 287 616 C303 604 316 594 316 566 C316 545 297 496 252 466 C260 464 267 463 274 463 C336 463 411 531 411 634 L411 634 Z " />
<glyph glyph-name="quotedblbase" unicode="&#x201e;" horiz-adv-x="495" d="M210 29 C210 98 169 132 128 132 C91 132 58 106 58 64 C58 36 70 22 86 11 C102 -1 115 -11 115 -39 C115 -60 96 -109 51 -139 C59 -141 66 -142 73 -142 C135 -142 210 -74 210 29 L210 29 Z M417 29 C417 98 376 132 335 132 C298 132 265 106 265 64 C265 36 277 22 293 11 C309 -1 322 -11 322 -39 C322 -60 303 -109 258 -139 C266 -141 273 -142 280 -142 C342 -142 417 -74 417 29 L417 29 Z " />
<glyph glyph-name="dagger" unicode="&#x2020;" horiz-adv-x="607" d="M536 505 L364 505 L364 704 L242 704 L242 505 L71 505 L71 399 L242 399 L242 -176 L364 -176 L364 399 L536 399 L536 505 Z " />
<glyph glyph-name="daggerdbl" unicode="&#x2021;" horiz-adv-x="607" d="M70 53 L242 53 L242 -146 L364 -146 L364 53 L535 53 L535 158 L364 158 L364 399 L535 399 L535 505 L364 505 L364 704 L242 704 L242 505 L70 505 L70 399 L242 399 L242 158 L70 158 L70 53 Z " />
<glyph glyph-name="bullet" unicode="&#x2022;" horiz-adv-x="455" d="M228 457 C142 457 89 387 89 314 C89 241 140 175 228 175 C314 175 365 244 365 317 C365 389 314 457 228 457 L228 457 Z " />
<glyph glyph-name="ellipsis" unicode="&#x2026;" horiz-adv-x="735" d="M198 59 C198 98 166 131 126 131 C86 131 54 98 54 59 C54 20 86 -14 126 -14 C166 -14 198 20 198 59 L198 59 Z M440 59 C440 98 408 131 368 131 C327 131 295 98 295 59 C295 20 327 -14 368 -14 C408 -14 440 20 440 59 L440 59 Z M681 59 C681 98 649 131 609 131 C568 131 537 98 537 59 C537 20 568 -14 609 -14 C649 -14 681 20 681 59 L681 59 Z " />
<glyph glyph-name="perthousand" unicode="&#x2030;" horiz-adv-x="1118" d="M632 158 C632 87 599 66 564 66 C530 66 498 85 498 157 C498 229 530 250 566 250 C601 250 632 229 632 158 L632 158 Z M722 159 C722 253 662 330 565 330 C467 330 407 253 407 159 C407 66 467 -13 564 -13 C661 -13 722 67 722 159 L722 159 Z M256 545 C256 474 223 453 188 453 C154 453 122 473 122 545 C122 615 155 637 189 637 C224 637 256 617 256 545 L256 545 Z M346 545 C346 640 286 717 189 717 C91 717 32 640 32 545 C32 454 91 374 188 374 C286 374 346 455 346 545 L346 545 Z M621 704 L527 704 L125 0 L220 0 L621 704 Z M987 158 C987 87 954 66 919 66 C885 66 853 85 853 157 C853 229 885 250 921 250 C956 250 987 229 987 158 L987 158 Z M1077 159 C1077 253 1017 330 920 330 C822 330 762 253 762 159 C762 66 822 -13 919 -13 C1016 -13 1077 67 1077 159 L1077 159 Z " />
<glyph glyph-name="guilsinglleft" unicode="&#x2039;" horiz-adv-x="253" d="M228 448 L196 448 C142 448 120 432 88 371 L27 252 L88 134 C121 71 143 56 196 56 L228 56 L143 217 C135 232 132 242 132 252 C132 262 135 272 143 286 L228 448 Z " />
<glyph glyph-name="guilsinglright" unicode="&#x203a;" horiz-adv-x="253" d="M226 252 L170 359 C131 434 110 447 43 448 L24 448 C49 397 78 349 103 300 L110 286 C117 271 122 262 121 252 C121 242 118 232 110 217 C81 163 53 109 24 56 L43 56 C107 56 128 66 164 134 L226 252 Z " />
<glyph glyph-name="fraction" unicode="&#x2044;" horiz-adv-x="319" d="M417 715 L329 715 L-99 0 L-11 0 L417 715 Z " />
<glyph glyph-name="Euro" unicode="&#x20ac;" horiz-adv-x="696" d="M647 673 C589 706 519 718 455 718 C281 718 177 608 139 476 L51 476 L27 389 L123 389 C123 377 121 361 121 349 C121 337 122 320 124 307 L54 307 L31 221 L143 221 C183 92 287 -12 457 -12 C512 -12 580 -2 624 16 L624 134 C574 114 519 104 470 104 C379 104 313 150 281 221 L454 221 C514 221 529 235 536 266 L546 307 L257 307 C253 335 254 363 257 389 L496 389 C557 389 576 404 583 435 L593 476 L277 476 C306 548 376 604 476 604 C525 604 573 590 617 565 L647 673 Z " />
<glyph glyph-name="trademark" unicode="&#x2122;" horiz-adv-x="541" d="M225 657 L225 704 L38 704 L38 657 L106 657 L106 476 L160 476 L160 657 L225 657 Z M492 476 L492 704 L433 704 C423 682 388 597 378 575 L322 704 L261 704 L261 476 L312 476 L312 612 L358 507 L394 507 C403 525 431 594 440 612 L440 476 L492 476 Z " />
<glyph glyph-name="Omega" unicode="&#x2126;" horiz-adv-x="678" d="M340 602 C451 602 508 509 508 416 C508 335 462 253 372 238 L372 0 L636 0 L636 110 L494 110 L494 164 C595 212 644 313 644 415 C644 565 542 717 340 717 C137 717 35 565 35 415 C35 314 82 214 185 164 L185 110 L42 110 L42 0 L307 0 L307 238 C216 253 170 335 170 416 C170 508 227 602 340 602 L340 602 Z " />
<glyph glyph-name="partialdiff" unicode="&#x2202;" horiz-adv-x="599" d="M541 293 C541 491 421 710 212 710 C169 710 104 695 53 673 L83 560 C132 580 168 590 204 590 C283 590 340 528 376 429 C342 447 304 459 268 459 C132 459 61 342 61 225 C61 109 133 -10 284 -10 C446 -10 541 128 541 293 L541 293 Z M403 251 C403 168 343 115 288 115 C227 115 192 175 192 232 C192 290 226 347 303 347 C323 347 359 338 392 320 C400 296 403 271 403 251 L403 251 Z " />
<glyph glyph-name="Delta" unicode="&#x2206;" horiz-adv-x="787" d="M771 0 L400 796 L16 0 L771 0 Z M601 96 L175 96 C247 250 320 400 392 554 L601 96 Z " />
<glyph glyph-name="product" unicode="&#x220f;" horiz-adv-x="778" d="M693 -194 L693 736 L84 736 L84 -194 L216 -194 L216 626 L561 626 L561 -194 L693 -194 Z " />
<glyph glyph-name="summation" unicode="&#x2211;" horiz-adv-x="709" d="M530 272 C491 326 315 570 277 624 L674 624 L674 736 L83 736 L83 680 L379 272 L83 -138 L83 -194 L674 -194 L674 -81 L277 -81 L530 272 Z " />
<glyph glyph-name="minus" unicode="&#x2212;" horiz-adv-x="725" d="M623 209 L623 300 L100 300 L100 209 L623 209 Z " />
<glyph glyph-name="radical" unicode="&#x221a;" horiz-adv-x="681" d="M181 170 L317 -133 L451 -133 L601 739 L493 739 L370 35 L241 323 L66 234 C81 201 98 168 113 134 C136 147 158 157 181 170 L181 170 Z " />
<glyph glyph-name="infinity" unicode="&#x221e;" horiz-adv-x="795" d="M755 339 C755 442 688 531 578 531 C507 531 450 475 400 406 C348 475 288 531 214 531 C103 531 39 442 39 339 C39 232 103 146 214 146 C286 146 343 199 394 269 C445 201 504 146 578 146 C688 146 755 232 755 339 L755 339 Z M343 332 C304 276 263 231 214 231 C164 231 128 276 128 339 C128 399 163 445 214 445 C260 445 301 394 343 332 L343 332 Z M451 341 C491 398 529 443 578 443 C630 443 667 397 667 339 C667 278 629 234 578 234 C529 234 493 278 451 341 L451 341 Z " />
<glyph glyph-name="integral" unicode="&#x222b;" horiz-adv-x="340" d="M234 584 C234 636 253 669 301 670 C305 670 321 671 323 671 L323 766 C312 768 297 770 277 770 C166 770 106 704 106 581 L106 -9 C106 -61 88 -94 39 -96 C35 -96 20 -97 16 -96 L16 -191 C28 -194 43 -196 62 -196 C174 -196 234 -129 234 -6 L234 584 Z " />
<glyph glyph-name="approxequal" unicode="&#x2248;" horiz-adv-x="725" d="M606 420 C573 393 531 382 492 382 C394 382 320 432 222 432 C176 432 129 420 89 387 C99 359 108 332 117 304 C153 332 193 342 231 342 C319 342 396 292 501 292 C548 292 593 303 635 339 C625 366 615 393 606 420 L606 420 Z M606 205 C573 178 531 167 492 167 C394 167 321 218 222 218 C176 218 129 206 89 172 C99 144 108 116 117 89 C153 118 193 127 231 127 C317 127 396 77 501 77 C548 77 593 88 635 124 C625 151 615 178 606 205 L606 205 Z " />
<glyph glyph-name="notequal" unicode="&#x2260;" horiz-adv-x="725" d="M631 101 L631 194 L389 194 L452 313 L631 313 L631 406 L493 406 L548 509 L431 509 L376 406 L94 406 L94 313 L334 313 L272 194 L94 194 L94 101 L230 101 L175 -1 L294 -1 L349 101 L631 101 Z " />
<glyph glyph-name="lessequal" unicode="&#x2264;" horiz-adv-x="725" d="M602 136 L602 232 L251 384 L602 529 L602 626 L122 416 L122 348 L602 136 Z M602 91 L122 91 L122 0 L602 0 L602 91 Z " />
<glyph glyph-name="greaterequal" unicode="&#x2265;" horiz-adv-x="725" d="M602 348 L602 416 L122 626 L122 529 L473 379 L122 232 L122 136 L602 348 Z M602 91 L122 91 L122 0 L602 0 L602 91 Z " />
<glyph glyph-name="lozenge" unicode="&#x25ca;" horiz-adv-x="510" d="M170 353 L255 539 C274 498 319 394 339 353 C319 312 274 207 255 166 L170 353 Z M77 354 C106 293 216 49 245 -11 L264 -11 L432 352 L264 718 L245 718 L77 354 Z " />
<glyph glyph-name="apple" unicode="&#xf8ff;" horiz-adv-x="468" d="M5 0 L463 0 L463 785 L5 785 L5 0 Z M102 80 L102 705 L366 705 L366 80 L102 80 Z " />
<glyph glyph-name="ff" unicode="&#xfb00;" horiz-adv-x="665" d="M74 524 C36 524 25 502 21 473 L15 430 L103 430 L103 0 L228 0 L228 430 L401 430 L401 0 L527 0 L527 430 L625 430 L625 524 L527 524 L527 559 C527 621 556 648 596 648 C619 648 641 641 663 627 C668 637 671 647 671 661 C671 708 623 747 557 747 C470 747 401 698 401 549 L401 524 L228 524 L228 559 C228 622 256 648 294 648 C316 648 337 641 358 627 C363 637 366 647 366 661 C366 708 317 747 255 747 C170 747 103 697 103 549 L103 524 L74 524 Z " />
<glyph glyph-name="fi" unicode="&#xfb01;" horiz-adv-x="624" d="M544 662 C544 700 515 731 476 731 C437 731 407 700 407 662 C407 625 437 593 476 593 C515 593 544 625 544 662 L544 662 Z M615 91 C601 83 587 79 575 79 C554 79 538 93 538 120 L538 529 L413 529 L413 112 C413 24 465 -6 516 -6 C568 -6 615 24 615 82 L615 91 Z M366 661 C366 685 355 706 336 721 C316 738 288 747 255 747 C204 747 149 724 123 668 C110 644 103 612 103 564 L103 524 L75 524 C37 524 24 506 19 470 L13 430 L103 430 L103 0 L228 0 L228 430 L329 430 L329 524 L228 524 L228 559 C228 603 249 648 294 648 C306 648 317 646 329 642 C338 639 348 634 358 627 C363 637 366 647 366 661 L366 661 Z " />
<glyph glyph-name="fl" unicode="&#xfb02;" horiz-adv-x="624" d="M615 91 C602 84 589 80 579 80 C556 80 539 96 539 125 L539 736 L414 736 L414 112 C414 24 466 -6 517 -6 C569 -6 615 23 615 81 L615 91 Z M366 661 C366 685 355 706 336 721 C316 738 288 747 255 747 C204 747 149 724 123 668 C110 644 103 612 103 564 L103 524 L75 524 C37 524 24 506 19 470 L13 430 L103 430 L103 0 L228 0 L228 430 L329 430 L329 524 L228 524 L228 559 C228 603 249 648 294 648 C306 648 317 646 328 642 C338 639 348 634 358 627 C363 637 366 647 366 661 L366 661 Z " />
<glyph glyph-name="ffi" unicode="&#xfb03;" horiz-adv-x="904" d="M228 524 L228 559 C228 622 256 648 294 648 C316 648 337 641 358 627 C363 637 366 647 366 661 C366 708 319 747 257 747 C172 747 103 698 103 549 L103 524 L74 524 C36 524 25 502 21 473 L15 430 L103 430 L103 0 L228 0 L228 430 L401 430 L401 0 L527 0 L527 430 L625 430 L625 524 L527 524 L527 559 C527 622 555 648 593 648 C615 648 636 641 657 627 C662 637 665 647 665 661 C665 708 617 747 554 747 C472 747 402 699 402 564 C402 544 401 544 401 524 L228 524 Z M832 529 L706 529 L706 138 C706 38 746 -6 810 -6 C861 -6 909 23 909 82 L909 91 C895 83 881 79 869 79 C847 79 832 92 832 120 L832 529 Z M838 662 C838 700 808 731 769 731 C731 731 700 700 700 662 C700 624 731 593 769 593 C808 593 838 624 838 662 L838 662 Z " />
<glyph glyph-name="ffl" unicode="&#xfb04;" horiz-adv-x="926" d="M228 524 L228 559 C228 622 256 648 294 648 C316 648 337 641 358 627 C363 637 366 647 366 661 C366 708 319 747 257 747 C172 747 103 698 103 549 L103 524 L74 524 C36 524 25 502 21 473 L15 430 L103 430 L103 0 L228 0 L228 430 L401 430 L401 0 L527 0 L527 430 L625 430 L625 524 L527 524 L527 559 C527 622 555 648 593 648 C615 648 636 641 657 627 C662 637 665 647 665 661 C665 708 617 747 554 747 C472 747 402 699 402 564 C402 544 401 544 401 524 L228 524 Z M714 138 C714 38 754 -6 818 -6 C868 -6 916 27 916 81 L916 91 C903 83 890 79 879 79 C856 79 840 94 840 123 L840 736 L714 736 L714 138 Z " />
</font>
</svg>
