<?xml version="1.0" encoding="UTF-8"?>
<svg xmlns="http://www.w3.org/2000/svg" xmlns:xlink="http://www.w3.org/1999/xlink" version="1.2" >
<font id="LaysExtraBoldExtended" horiz-adv-x="631">
<font-face  font-family="Lays" units-per-em="1000" ascent="769" descent="-231" font-style="normal" font-weight="800" font-stretch="normal" cap-height="704" x-height="529" underline-position="-80" underline-thickness="54" />
<missing-glyph horiz-adv-x="589" d="M22 0 L567 0 L567 785 L22 785 L22 0 Z M130 101 L130 684 L459 684 L459 101 L130 101 Z " />
<glyph glyph-name="NULL" horiz-adv-x="0" >
</glyph>
<glyph glyph-name="CR" unicode="&#xd;" horiz-adv-x="250" >
</glyph>
<glyph glyph-name="space" unicode="&#x20;" horiz-adv-x="253" />
<glyph glyph-name="exclam" unicode="&#x21;" horiz-adv-x="348" d="M66 704 L91 230 L257 230 L282 704 L66 704 Z M72 87 C72 18 123 -16 174 -16 C225 -16 276 18 276 87 C276 155 225 189 174 189 C123 189 72 155 72 87 L72 87 Z " />
<glyph glyph-name="quotedbl" unicode="&#x22;" horiz-adv-x="548" d="M221 461 L237 736 L83 736 L99 461 L221 461 Z M448 461 L464 736 L310 736 L326 461 L448 461 Z " />
<glyph glyph-name="numbersign" unicode="&#x23;" horiz-adv-x="666" d="M75 0 L186 0 L230 184 L358 184 L314 0 L425 0 L469 184 L612 184 L612 296 L496 296 L523 408 L648 408 L648 520 L550 520 L595 704 L483 704 L439 520 L311 520 L356 704 L245 704 L201 520 L59 520 L59 408 L174 408 L147 296 L17 296 L17 184 L120 184 L75 0 Z M284 408 L412 408 L385 296 L257 296 L284 408 Z " />
<glyph glyph-name="dollar" unicode="&#x24;" horiz-adv-x="610" d="M158 269 C74 269 44 211 44 158 C44 77 123 14 223 -2 L223 -91 L392 -91 L392 -1 C488 21 568 91 568 208 C568 317 510 371 359 421 L303 440 C232 464 217 480 217 510 C217 536 243 569 312 569 C370 569 452 534 470 459 C515 472 548 517 548 566 C548 634 477 684 392 700 L392 788 L223 788 L223 699 C130 675 48 611 48 493 C48 361 153 327 248 295 L296 279 C367 256 398 237 398 203 C398 164 349 139 291 139 C199 139 154 191 154 242 C154 251 155 260 158 269 L158 269 Z " />
<glyph glyph-name="percent" unicode="&#x25;" horiz-adv-x="859" d="M740 704 L604 704 L111 0 L250 0 L740 704 Z M208 469 C170 469 151 504 151 538 C151 572 169 606 208 607 C246 604 265 570 265 536 C265 502 246 469 208 469 L208 469 Z M24 538 C24 445 89 358 208 358 C327 358 392 445 392 538 C392 631 327 718 208 718 C89 718 24 631 24 538 L24 538 Z M651 96 C613 96 594 130 594 164 C594 199 613 234 651 234 C689 234 708 200 708 166 C708 131 689 96 651 96 L651 96 Z M467 165 C467 72 532 -15 651 -15 C770 -15 835 72 835 165 C835 258 770 345 651 345 C532 345 467 258 467 165 L467 165 Z " />
<glyph glyph-name="ampersand" unicode="&#x26;" horiz-adv-x="849" d="M566 541 C566 659 453 718 343 718 C232 718 120 657 120 536 C120 498 128 449 179 379 C107 340 44 284 44 196 C44 97 108 -12 319 -12 C402 -12 474 11 539 47 C598 11 661 -11 712 -11 C775 -11 830 22 830 99 C830 111 828 123 825 138 C808 130 782 127 763 127 C733 127 701 135 670 149 C719 203 745 266 745 332 C745 398 705 427 653 427 C623 427 589 417 557 400 C580 376 585 359 585 326 C585 293 569 259 544 228 C496 264 445 308 400 354 C481 392 566 443 566 541 L566 541 Z M415 136 C388 126 360 120 333 120 C257 120 217 160 217 203 C217 238 233 262 256 279 C301 230 359 179 415 136 L415 136 Z M314 453 C292 483 284 509 284 532 C284 568 314 585 343 585 C373 585 407 567 407 531 C407 484 362 458 323 441 L314 453 Z " />
<glyph glyph-name="quotesingle" unicode="&#x27;" horiz-adv-x="287" d="M204 461 L220 736 L66 736 L82 461 L204 461 Z " />
<glyph glyph-name="parenleft" unicode="&#x28;" horiz-adv-x="455" d="M195 275 C195 503 287 669 443 751 C208 738 19 558 19 274 C19 -10 208 -189 443 -202 C287 -120 195 45 195 275 L195 275 Z " />
<glyph glyph-name="parenright" unicode="&#x29;" horiz-adv-x="449" d="M257 275 C257 45 165 -120 9 -202 C244 -189 433 -10 433 274 C433 558 244 738 9 751 C165 669 257 503 257 275 L257 275 Z " />
<glyph glyph-name="asterisk" unicode="&#x2a;" horiz-adv-x="571" d="M533 558 L468 676 L345 598 L350 749 L222 749 L228 598 L104 676 L38 559 L160 498 L38 434 L103 317 L229 394 L222 244 L350 244 L345 394 L467 317 L533 433 L414 498 L533 558 Z " />
<glyph glyph-name="plus" unicode="&#x2b;" horiz-adv-x="708" d="M625 217 L625 355 L429 355 L429 572 L279 572 L279 355 L83 355 L83 217 L279 217 L279 0 L429 0 L429 217 L625 217 Z " />
<glyph glyph-name="comma" unicode="&#x2c;" horiz-adv-x="314" d="M266 57 C266 147 203 189 153 189 C96 189 52 143 52 93 C52 40 73 26 92 12 C109 1 123 -9 123 -27 C123 -44 115 -94 22 -148 C37 -152 52 -155 68 -155 C164 -155 266 -73 266 57 L266 57 Z " />
<glyph glyph-name="hyphen" unicode="&#x2d;" horiz-adv-x="370" d="M40 212 L330 212 L330 359 L40 359 L40 212 Z " />
<glyph glyph-name="period" unicode="&#x2e;" horiz-adv-x="314" d="M55 87 C55 18 106 -16 157 -16 C208 -16 259 18 259 87 C259 155 208 189 157 189 C106 189 55 155 55 87 L55 87 Z " />
<glyph glyph-name="slash" unicode="&#x2f;" horiz-adv-x="581" d="M603 784 L438 784 L-34 -80 L131 -80 L603 784 Z " />
<glyph glyph-name="zero" unicode="0" horiz-adv-x="658" d="M209 353 C209 489 253 568 329 568 C405 568 449 489 449 353 C449 217 405 138 329 138 C253 138 209 217 209 353 L209 353 Z M29 353 C29 143 123 -12 329 -12 C535 -12 629 143 629 353 C629 563 535 718 329 718 C123 718 29 563 29 353 L29 353 Z " />
<glyph glyph-name="one" unicode="1" horiz-adv-x="397" d="M9 501 C38 503 115 520 163 532 L163 0 L336 0 L336 726 C205 686 121 666 9 640 L9 501 Z " />
<glyph glyph-name="two" unicode="2" horiz-adv-x="589" d="M279 718 C109 718 31 608 31 520 C31 452 77 390 161 390 L170 390 L170 405 C170 451 174 481 185 504 C202 540 233 565 279 565 C337 565 372 531 372 484 C372 462 365 439 351 415 C335 387 311 355 278 321 C215 255 135 185 53 114 L53 0 L561 0 L561 145 L312 145 L356 187 C410 240 451 284 481 323 C534 391 552 446 552 504 C552 636 439 718 279 718 L279 718 Z " />
<glyph glyph-name="three" unicode="3" horiz-adv-x="582" d="M235 293 L253 293 C287 293 311 289 329 279 C353 266 367 246 367 221 C367 170 317 139 267 139 C192 139 143 192 135 271 C66 258 28 221 28 161 C28 90 85 -12 279 -12 C410 -12 547 59 548 207 C548 261 513 340 441 370 C510 411 537 465 537 532 C537 620 440 718 285 718 C92 718 34 615 34 551 C34 486 75 445 135 442 C146 529 204 568 268 568 C332 568 361 533 361 495 C361 454 329 419 260 419 L234 419 L235 293 Z " />
<glyph glyph-name="four" unicode="4" horiz-adv-x="628" d="M485 704 L263 704 L27 281 L27 146 L322 146 L322 0 L486 0 L486 146 L529 146 C574 146 592 171 599 212 L611 286 L485 286 L485 704 Z M172 286 L322 549 L322 286 L172 286 Z " />
<glyph glyph-name="five" unicode="5" horiz-adv-x="548" d="M258 -13 C387 -13 519 61 519 228 C519 347 436 456 244 456 L206 456 L219 559 L492 559 L492 704 L105 704 L53 317 L165 317 C273 317 345 304 345 227 C345 166 293 134 247 134 C175 134 138 177 137 253 C65 246 30 203 30 149 C30 69 97 -13 258 -13 L258 -13 Z " />
<glyph glyph-name="six" unicode="6" horiz-adv-x="604" d="M363 447 C304 447 242 423 199 385 C207 499 264 566 390 566 C430 566 467 560 512 550 L546 679 C488 704 427 718 364 718 C111 718 32 517 32 328 C32 185 99 -12 331 -12 C497 -12 587 120 587 242 C587 348 506 447 363 447 L363 447 Z M216 224 C216 284 265 314 315 314 C365 314 415 284 415 224 C415 163 365 132 315 132 C265 132 216 163 216 224 L216 224 Z " />
<glyph glyph-name="seven" unicode="7" horiz-adv-x="540" d="M523 704 L17 704 L19 666 C25 559 71 559 142 559 L309 559 L51 0 L241 0 L523 637 L523 704 Z " />
<glyph glyph-name="eight" unicode="8" horiz-adv-x="619" d="M588 192 C588 273 521 331 456 363 C518 394 573 446 573 520 C573 652 447 718 311 718 C172 718 46 651 46 518 C46 441 98 390 160 359 C90 327 29 272 29 187 C29 49 161 -12 305 -12 C454 -12 588 51 588 192 L588 192 Z M398 508 C398 467 364 444 315 420 C259 447 222 471 222 509 C222 551 259 578 309 578 C360 578 398 551 398 508 L398 508 Z M403 202 C403 154 359 127 310 127 C262 127 215 154 215 202 C215 239 253 270 303 294 C353 271 403 232 403 202 L403 202 Z " />
<glyph glyph-name="nine" unicode="9" horiz-adv-x="605" d="M242 259 C301 259 363 283 406 321 C398 207 341 140 215 140 C175 140 138 146 93 156 L59 27 C117 2 178 -12 241 -12 C494 -12 573 189 573 378 C573 521 506 718 274 718 C108 718 18 586 18 464 C18 358 99 259 242 259 L242 259 Z M389 482 C389 422 340 392 290 392 C240 392 190 422 190 482 C190 543 239 573 289 573 C339 573 389 543 389 482 L389 482 Z " />
<glyph glyph-name="colon" unicode="&#x3a;" horiz-adv-x="274" d="M35 87 C35 18 86 -16 137 -16 C188 -16 239 18 239 87 C239 155 188 189 137 189 C86 189 35 155 35 87 L35 87 Z M35 385 C35 316 86 282 137 282 C188 282 239 316 239 385 C239 453 188 487 137 487 C86 487 35 453 35 385 L35 385 Z " />
<glyph glyph-name="semicolon" unicode="&#x3b;" horiz-adv-x="274" d="M242 57 C242 147 181 189 133 189 C78 189 35 143 35 93 C35 40 56 26 74 12 C90 1 104 -9 104 -27 C104 -44 96 -94 6 -148 C21 -152 35 -155 51 -155 C144 -155 242 -73 242 57 L242 57 Z M35 385 C35 316 86 282 137 282 C188 282 239 316 239 385 C239 453 188 487 137 487 C86 487 35 453 35 385 L35 385 Z " />
<glyph glyph-name="less" unicode="&#x3c;" horiz-adv-x="708" d="M610 2 L610 154 L273 287 L610 425 L610 576 L97 340 L97 239 L610 2 Z " />
<glyph glyph-name="equal" unicode="&#x3d;" horiz-adv-x="708" d="M625 338 L625 476 L83 476 L83 338 L625 338 Z M625 103 L625 241 L83 241 L83 103 L625 103 Z " />
<glyph glyph-name="greater" unicode="&#x3e;" horiz-adv-x="708" d="M610 233 L610 335 L97 571 L97 421 L434 287 L97 149 L97 -3 L610 233 Z " />
<glyph glyph-name="question" unicode="&#x3f;" horiz-adv-x="588" d="M365 510 C365 478 337 457 303 431 C255 394 197 350 197 288 C197 265 200 245 207 226 L350 226 C357 341 540 343 540 525 C540 614 455 718 300 718 C122 718 50 627 50 548 C50 479 99 440 159 437 C158 443 158 450 158 457 C158 507 190 568 273 568 C330 568 365 541 365 510 L365 510 Z M185 89 C185 20 236 -14 287 -14 C338 -14 389 20 389 89 C389 157 338 191 287 191 C236 191 185 157 185 89 L185 89 Z " />
<glyph glyph-name="at" unicode="&#x40;" horiz-adv-x="888" d="M489 416 L471 314 C463 271 439 241 410 241 C392 241 378 255 378 288 C378 341 401 427 459 427 C470 427 480 424 489 416 L489 416 Z M836 407 C836 591 709 740 482 740 C233 740 44 559 44 295 C44 155 95 58 172 -4 C243 -62 337 -91 440 -91 C510 -91 586 -79 662 -50 C715 -30 754 1 754 40 C754 53 752 85 729 110 C631 53 554 27 449 27 C292 27 168 113 168 295 C168 491 311 621 482 621 C615 621 714 543 714 391 C714 294 667 241 620 241 C595 241 582 250 582 271 C582 271 583 280 583 282 L616 492 C585 514 548 536 473 536 C341 536 254 417 254 292 C254 194 310 131 381 131 C429 131 457 152 483 178 C504 149 549 131 588 131 C740 131 836 247 836 407 L836 407 Z " />
<glyph glyph-name="A" unicode="A" horiz-adv-x="798" d="M499 704 L296 704 L12 0 L181 0 L236 144 C265 147 318 150 370 150 C439 150 497 132 537 97 C558 78 574 55 588 18 L594 0 L786 0 L499 704 Z M500 265 C455 289 395 294 355 294 C340 294 308 293 292 291 L393 534 L500 265 Z " />
<glyph glyph-name="B" unicode="B" horiz-adv-x="700" d="M635 210 C635 272 592 337 535 366 C597 407 621 449 621 511 C621 636 519 709 316 709 C194 709 133 706 66 700 L66 4 C94 1 192 -4 327 -4 C461 -4 635 24 635 210 L635 210 Z M336 289 C421 289 451 259 451 209 C451 161 419 130 332 130 C311 130 259 132 241 134 L241 289 L336 289 Z M327 574 C397 574 439 547 439 497 C439 440 397 416 329 416 L241 416 L241 570 C266 574 309 574 327 574 L327 574 Z " />
<glyph glyph-name="C" unicode="C" horiz-adv-x="656" d="M625 673 C567 695 498 714 419 714 C226 714 31 598 31 350 C31 140 186 -10 420 -10 C487 -10 550 1 601 20 L601 159 C558 150 508 143 464 143 C300 143 218 232 218 350 C218 457 296 558 409 558 C437 558 461 552 484 549 C504 546 519 543 536 543 C569 543 590 566 602 602 L625 673 Z " />
<glyph glyph-name="D" unicode="D" horiz-adv-x="756" d="M66 4 C144 -3 198 -8 277 -8 C619 -8 717 179 717 354 C717 518 624 712 262 712 C198 712 144 707 66 700 L66 4 Z M295 559 C455 559 531 488 531 354 C531 209 448 143 295 143 C279 143 259 144 241 146 L241 555 C260 558 279 559 295 559 L295 559 Z " />
<glyph glyph-name="E" unicode="E" horiz-adv-x="619" d="M241 558 L521 558 L545 704 L66 704 L66 0 L341 0 C435 0 513 0 547 34 C569 56 577 78 585 133 L590 166 C539 161 496 157 401 157 L241 157 L241 281 L394 281 C460 281 478 298 487 353 L499 427 L241 427 L241 558 Z " />
<glyph glyph-name="F" unicode="F" horiz-adv-x="566" d="M241 0 L241 237 L401 237 C454 237 475 266 483 312 L495 384 L241 384 L241 558 L521 558 L542 704 L66 704 L66 0 L241 0 Z " />
<glyph glyph-name="G" unicode="G" horiz-adv-x="788" d="M411 -9 C522 -9 645 27 716 105 L716 383 L435 383 L407 237 L555 237 L555 163 C518 149 477 144 441 144 C296 144 218 234 218 350 C218 443 278 558 409 558 C443 558 474 553 497 550 C517 547 550 538 567 538 C600 538 619 561 631 597 L654 668 C589 693 508 714 419 714 C226 714 31 598 31 350 C31 140 176 -9 411 -9 L411 -9 Z " />
<glyph glyph-name="H" unicode="H" horiz-adv-x="772" d="M241 704 L66 704 L66 0 L241 0 L241 281 L521 281 L521 0 L695 0 L695 704 L522 704 L522 427 L241 427 L241 704 Z " />
<glyph glyph-name="I" unicode="I" horiz-adv-x="308" d="M241 0 L241 704 L67 704 L67 0 L241 0 Z " />
<glyph glyph-name="J" unicode="J" horiz-adv-x="481" d="M420 704 L248 704 L248 294 C248 225 235 196 217 176 C195 153 161 142 125 142 C92 142 58 151 30 167 C26 161 23 132 23 117 C23 86 33 44 69 19 C97 0 134 -13 182 -13 C270 -13 343 25 384 103 C407 147 420 204 420 288 L420 704 Z " />
<glyph glyph-name="K" unicode="K" horiz-adv-x="724" d="M241 704 L66 704 L66 0 L241 0 L241 202 L276 239 L427 61 C475 4 525 -11 587 -11 C630 -11 697 13 725 79 L714 79 C663 79 621 113 554 182 L406 365 C456 421 479 466 699 704 L479 704 L241 413 L241 704 Z " />
<glyph glyph-name="L" unicode="L" horiz-adv-x="580" d="M332 0 C437 0 488 1 525 36 C538 51 553 80 555 123 L557 168 C504 163 464 159 362 159 L241 159 L241 704 L66 704 L66 0 L332 0 Z " />
<glyph glyph-name="M" unicode="M" horiz-adv-x="881" d="M814 704 L639 704 L441 449 L304 622 C254 685 195 713 132 713 C95 713 57 703 18 685 C60 653 67 600 67 561 L67 0 L236 0 L236 457 L439 205 L639 457 L639 0 L814 0 L814 704 Z " />
<glyph glyph-name="N" unicode="N" horiz-adv-x="805" d="M738 704 L568 704 L568 268 L294 630 C239 702 185 714 127 714 C88 714 49 706 19 692 C46 666 67 643 67 572 L67 0 L235 0 L235 437 L568 0 L738 0 L738 704 Z " />
<glyph glyph-name="O" unicode="O" horiz-adv-x="848" d="M218 352 C218 467 300 559 424 559 C548 559 630 467 630 352 C630 237 548 145 424 145 C300 145 218 237 218 352 L218 352 Z M813 352 C813 532 687 713 424 713 C161 713 35 532 35 352 C35 172 161 -9 424 -9 C687 -9 813 172 813 352 L813 352 Z " />
<glyph glyph-name="P" unicode="P" horiz-adv-x="675" d="M66 701 L66 -1 L241 -1 L241 249 C282 237 322 232 360 232 C510 232 630 321 630 481 C630 595 557 710 315 710 C240 710 153 707 66 701 L66 701 Z M319 564 C430 564 450 519 450 471 C450 422 426 377 324 377 C320 377 267 378 241 380 L241 562 C263 564 306 564 319 564 L319 564 Z " />
<glyph glyph-name="Q" unicode="Q" horiz-adv-x="872" d="M813 352 C813 532 687 713 424 713 C161 713 35 532 35 352 C35 175 156 -2 410 -8 C508 -63 696 -120 795 -120 C870 -120 937 -74 937 -3 C937 18 932 41 919 64 C879 49 833 43 787 43 C741 43 693 49 652 61 C772 129 813 253 813 352 L813 352 Z M218 352 C218 467 300 559 424 559 C548 559 630 467 630 352 C630 237 548 145 424 145 C300 145 218 237 218 352 L218 352 Z " />
<glyph glyph-name="R" unicode="R" horiz-adv-x="738" d="M624 481 C624 642 499 710 285 710 C197 710 143 707 66 702 L66 -1 L241 -1 L241 233 L282 233 L440 61 C484 13 532 -12 599 -12 C649 -12 702 13 739 66 C697 83 652 112 609 151 L481 268 C579 300 624 399 624 481 L624 481 Z M241 561 C259 563 294 564 308 564 C414 564 443 523 443 477 C443 413 399 377 307 377 L241 377 L241 561 Z " />
<glyph glyph-name="S" unicode="S" horiz-adv-x="633" d="M140 241 C81 241 40 197 40 150 C40 67 128 -13 313 -13 C451 -13 593 59 593 210 C593 319 536 370 377 420 L318 439 C239 464 218 485 218 515 C218 551 264 573 318 573 C383 573 450 545 491 478 C521 486 563 527 563 571 C563 663 440 714 322 714 C181 714 45 648 45 502 C45 364 161 322 260 290 L311 274 C386 251 413 234 413 200 C413 156 366 129 305 129 C203 129 148 186 140 241 L140 241 Z " />
<glyph glyph-name="T" unicode="T" horiz-adv-x="653" d="M625 704 L28 704 L28 549 L240 549 L240 0 L413 0 L413 549 L625 549 L625 704 Z " />
<glyph glyph-name="U" unicode="U" horiz-adv-x="787" d="M646 -11 C718 -11 781 26 781 117 L781 132 C763 123 745 118 730 118 C703 118 684 134 684 170 L684 704 L507 704 L507 289 C507 243 497 214 477 192 C455 168 421 151 375 151 C342 151 302 157 277 184 C254 208 243 240 243 279 L243 704 L66 704 L66 349 C66 331 67 282 70 242 C84 59 228 -10 332 -10 C405 -10 482 23 520 65 C545 13 594 -11 646 -11 L646 -11 Z " />
<glyph glyph-name="V" unicode="V" horiz-adv-x="739" d="M190 704 L-2 704 L285 0 L459 0 L746 704 L566 704 L374 217 L190 704 Z " />
<glyph glyph-name="W" unicode="W" horiz-adv-x="1051" d="M465 645 L332 217 L198 704 L7 704 L214 0 L409 0 L530 363 L645 0 L840 0 L1045 704 L866 704 L749 217 L608 645 L465 645 Z " />
<glyph glyph-name="X" unicode="X" horiz-adv-x="755" d="M463 83 C525 -3 567 -12 627 -12 C701 -12 748 54 748 117 C741 116 733 113 730 113 C673 113 634 148 611 180 L473 371 C536 455 618 562 726 704 L530 704 C473 627 423 561 379 501 L312 595 C254 676 210 718 140 718 C69 718 12 652 12 590 C20 590 26 591 28 591 C83 591 119 559 148 519 L268 352 C125 159 68 80 9 0 L203 0 C248 61 276 104 362 222 L463 83 Z " />
<glyph glyph-name="Y" unicode="Y" horiz-adv-x="706" d="M731 680 C696 701 657 712 619 712 C592 712 566 706 542 695 C515 682 491 662 467 621 L356 432 L199 704 L-8 704 C75 566 181 398 265 259 L265 0 L441 0 L441 261 L620 561 C665 636 701 664 731 680 L731 680 Z " />
<glyph glyph-name="Z" unicode="Z" horiz-adv-x="724" d="M57 704 L57 548 L375 548 L53 93 L53 0 L463 0 C562 0 610 1 646 35 C663 50 676 79 678 123 L680 166 C626 161 582 157 486 157 L311 157 C383 263 644 620 644 620 L644 704 L57 704 Z " />
<glyph glyph-name="bracketleft" unicode="&#x5b;" horiz-adv-x="330" d="M305 -194 L305 -84 L175 -84 L175 629 L305 629 L305 736 L29 736 L29 -194 L305 -194 Z " />
<glyph glyph-name="backslash" unicode="&#x5c;" horiz-adv-x="583" d="M432 -78 L601 -78 L131 784 L-32 784 L432 -78 Z " />
<glyph glyph-name="bracketright" unicode="&#x5d;" horiz-adv-x="333" d="M305 -194 L305 736 L28 736 L28 629 L160 629 L160 -84 L28 -84 L28 -194 L305 -194 Z " />
<glyph glyph-name="asciicircum" unicode="&#x5e;" horiz-adv-x="708" d="M683 216 L414 744 L296 744 L25 216 L175 216 L348 572 L529 216 L683 216 Z " />
<glyph glyph-name="underscore" unicode="&#x5f;" horiz-adv-x="700" d="M700 -183 L700 -55 L0 -55 L0 -183 L700 -183 Z " />
<glyph glyph-name="grave" unicode="&#x60;" horiz-adv-x="624" d="M472 585 L287 733 C262 753 239 761 219 761 C179 761 151 728 151 694 C151 663 174 631 230 621 L470 580 L472 585 Z " />
<glyph glyph-name="a" unicode="a" horiz-adv-x="686" d="M553 -12 C615 -12 680 20 680 108 L680 112 C663 104 647 100 633 100 C608 100 591 117 591 151 L591 528 C569 516 544 509 515 509 C488 509 461 518 437 525 C410 533 381 540 326 540 C-52 540 -80 -12 286 -12 C351 -12 405 11 444 39 C471 0 514 -12 553 -12 L553 -12 Z M307 128 C239 128 199 181 199 255 C199 343 255 401 329 401 C372 401 403 391 420 381 L420 257 C420 205 409 179 392 161 C370 137 338 128 307 128 L307 128 Z " />
<glyph glyph-name="b" unicode="b" horiz-adv-x="642" d="M224 736 L53 736 L53 0 C75 12 100 19 129 19 C156 19 183 10 207 3 C234 -5 263 -12 318 -12 C499 -12 617 127 617 266 C617 431 524 540 358 540 C305 540 260 525 224 505 L224 736 Z M337 401 C405 401 445 348 445 274 C445 186 389 126 315 126 C272 126 241 136 224 146 L224 271 C224 323 235 350 252 368 C274 392 306 401 337 401 L337 401 Z " />
<glyph glyph-name="c" unicode="c" horiz-adv-x="515" d="M318 393 C348 393 374 385 400 385 C457 385 481 406 491 511 C435 534 378 540 307 540 C116 540 24 366 24 262 C24 99 147 -12 294 -12 C357 -12 405 -12 477 24 L477 144 C441 136 382 127 349 127 C258 127 200 190 200 268 C200 321 229 393 318 393 L318 393 Z " />
<glyph glyph-name="d" unicode="d" horiz-adv-x="686" d="M553 -12 C615 -12 680 20 680 108 L680 112 C663 104 647 100 633 100 C608 100 591 117 591 151 L591 736 L419 736 L419 529 C396 535 369 540 326 540 C128 540 26 389 26 245 C26 114 111 -12 286 -12 C351 -12 405 11 444 39 C471 0 514 -12 553 -12 L553 -12 Z M307 128 C239 128 199 181 199 255 C199 343 255 401 329 401 C372 401 403 391 420 381 L420 257 C420 205 409 179 392 161 C370 137 338 128 307 128 L307 128 Z " />
<glyph glyph-name="e" unicode="e" horiz-adv-x="570" d="M305 -12 C424 -12 528 54 528 177 L528 184 C488 148 418 126 353 126 C289 126 229 147 208 197 L238 197 C465 197 546 285 546 380 C546 468 461 540 319 540 C133 540 28 395 28 254 C28 120 126 -12 305 -12 L305 -12 Z M208 302 L193 302 C206 368 255 413 320 413 C353 413 380 398 380 372 C380 304 250 302 208 302 L208 302 Z " />
<glyph glyph-name="f" unicode="f" horiz-adv-x="504" d="M309 508 L309 520 C309 572 325 617 386 617 C425 617 455 605 486 589 C488 599 489 610 489 620 C489 702 427 751 327 751 C192 751 137 651 137 523 L137 508 L107 508 C40 508 11 475 8 421 L5 369 L137 369 L137 0 L309 0 L309 369 L471 369 L471 508 L309 508 Z " />
<glyph glyph-name="g" unicode="g" horiz-adv-x="652" d="M261 -89 C163 -89 100 -19 100 -19 C100 -19 95 -36 95 -61 C95 -174 201 -230 306 -230 C404 -230 487 -197 534 -123 C576 -57 591 19 591 110 L591 528 C569 516 544 509 515 509 C488 509 461 518 437 525 C410 533 381 540 326 540 C172 540 27 428 27 255 C27 85 140 3 262 3 C315 3 372 18 420 49 L420 44 C420 -40 375 -89 261 -89 L261 -89 Z M306 139 C257 139 198 165 198 260 C198 345 257 401 336 401 C375 401 403 391 420 381 L420 261 C420 215 410 191 396 175 C378 155 352 139 306 139 L306 139 Z " />
<glyph glyph-name="h" unicode="h" horiz-adv-x="653" d="M563 308 C563 462 486 540 367 540 C309 540 258 513 225 476 L225 736 L53 736 L53 0 L225 0 L225 285 C225 331 235 357 258 375 C275 388 296 396 317 396 C338 396 358 388 372 371 C384 357 391 336 391 299 L391 136 C391 19 464 -12 525 -12 C587 -12 652 20 652 108 L652 112 C635 104 619 100 605 100 C580 100 563 117 563 151 L563 308 Z " />
<glyph glyph-name="i" unicode="i" horiz-adv-x="314" d="M47 658 C47 595 93 565 139 565 C185 565 231 595 231 658 C231 719 185 750 139 750 C93 750 47 719 47 658 L47 658 Z M225 529 L53 529 L53 136 C53 19 126 -12 187 -12 C249 -12 314 20 314 108 L314 112 C297 104 281 100 267 100 C242 100 225 117 225 151 L225 529 Z " />
<glyph glyph-name="j" unicode="j" horiz-adv-x="266" d="M225 529 L53 529 L53 32 C53 -18 45 -39 31 -54 C16 -70 -5 -77 -27 -77 C-47 -77 -69 -71 -88 -60 C-88 -152 -11 -203 66 -203 C122 -203 178 -176 206 -114 C218 -87 225 -54 225 11 L225 529 Z M47 658 C47 595 93 565 139 565 C185 565 231 595 231 658 C231 719 185 750 139 750 C93 750 47 719 47 658 L47 658 Z " />
<glyph glyph-name="k" unicode="k" horiz-adv-x="655" d="M614 93 C584 93 563 110 536 144 L417 293 L610 529 L423 529 L224 301 L224 736 L53 736 L53 0 L224 0 L224 101 L302 190 C302 190 384 90 413 54 C450 9 486 -12 543 -12 C612 -12 650 46 654 105 C642 98 632 93 614 93 L614 93 Z " />
<glyph glyph-name="l" unicode="l" horiz-adv-x="314" d="M225 736 L53 736 L53 136 C53 19 126 -12 187 -12 C249 -12 314 20 314 108 L314 112 C297 104 281 100 267 100 C242 100 225 117 225 151 L225 736 Z " />
<glyph glyph-name="m" unicode="m" horiz-adv-x="989" d="M988 112 C971 104 955 100 941 100 C916 100 899 117 899 151 L899 308 C899 350 895 388 884 419 C855 501 772 540 688 540 C623 540 560 517 521 472 C484 518 429 540 374 540 C317 540 259 517 219 472 L212 529 L53 529 L53 0 L225 0 L225 298 C225 333 234 359 257 377 C271 388 292 397 318 397 C358 397 390 373 390 310 L390 0 L562 0 L562 309 C562 344 571 359 594 377 C608 388 629 397 655 397 C695 397 727 373 727 310 L727 136 C727 19 800 -12 861 -12 C923 -12 988 20 988 108 L988 112 Z " />
<glyph glyph-name="n" unicode="n" horiz-adv-x="655" d="M562 308 C562 462 485 540 366 540 C306 540 252 510 219 470 L213 529 L53 529 L53 0 L225 0 L225 298 C225 333 235 359 258 377 C272 388 292 397 318 397 C358 397 390 373 390 310 L390 136 C390 19 463 -12 524 -12 C586 -12 651 20 651 108 L651 112 C634 104 618 100 604 100 C579 100 562 117 562 151 L562 308 Z " />
<glyph glyph-name="o" unicode="o" horiz-adv-x="664" d="M205 264 C205 357 268 402 332 402 C396 402 459 357 459 264 C459 171 396 126 332 126 C268 126 205 171 205 264 L205 264 Z M637 264 C637 447 485 540 332 540 C179 540 27 447 27 264 C27 81 179 -12 332 -12 C485 -12 637 81 637 264 L637 264 Z " />
<glyph glyph-name="p" unicode="p" horiz-adv-x="642" d="M53 -220 L225 -220 L225 8 C253 0 293 -11 338 -11 C519 -11 617 128 617 267 C617 448 503 540 383 540 C326 540 267 517 219 475 L215 529 L53 529 L53 -220 Z M337 401 C405 401 445 348 445 274 C445 186 389 126 315 126 C272 126 241 136 224 146 L224 271 C224 323 235 350 252 368 C274 392 306 401 337 401 L337 401 Z " />
<glyph glyph-name="q" unicode="q" horiz-adv-x="686" d="M552 -231 C621 -231 686 -196 686 -111 L686 -99 C668 -108 653 -118 630 -118 C601 -118 591 -103 591 -73 L591 528 C569 516 544 509 515 509 C488 509 461 518 437 525 C410 533 381 540 326 540 C128 540 26 389 26 245 C26 114 111 -12 286 -12 C338 -12 383 2 419 23 L419 -83 C419 -200 496 -231 552 -231 L552 -231 Z M307 128 C239 128 199 181 199 255 C199 343 255 401 329 401 C372 401 403 391 420 381 L420 257 C420 205 409 179 392 161 C370 137 338 128 307 128 L307 128 Z " />
<glyph glyph-name="r" unicode="r" horiz-adv-x="487" d="M219 466 L213 529 L53 529 L53 0 L225 0 L225 249 C225 283 227 299 231 313 C244 358 276 380 318 380 C356 380 392 361 423 330 C455 358 474 405 474 444 C474 501 428 540 366 540 C319 540 265 516 219 466 L219 466 Z " />
<glyph glyph-name="s" unicode="s" horiz-adv-x="518" d="M496 162 C496 260 431 303 328 322 L250 337 C220 343 204 356 204 376 C204 395 221 410 265 410 C311 410 367 392 396 392 C433 392 455 416 469 474 L476 501 C424 521 347 540 266 540 C105 540 39 465 39 372 C39 292 69 234 231 200 L269 192 C303 185 326 176 326 154 C326 133 310 118 270 118 C220 118 151 136 79 167 L34 41 C92 12 182 -12 262 -12 C422 -12 496 62 496 162 L496 162 Z " />
<glyph glyph-name="t" unicode="t" horiz-adv-x="500" d="M462 519 L285 519 L285 619 L179 619 C143 584 88 529 37 482 C22 468 13 457 13 430 L13 380 L113 380 L113 186 C113 58 176 -12 311 -12 C412 -12 484 50 484 136 C484 145 484 161 482 170 C437 142 403 126 368 126 C346 126 324 133 308 147 C294 159 285 177 285 215 L285 380 L462 380 L462 519 Z " />
<glyph glyph-name="u" unicode="u" horiz-adv-x="651" d="M524 -12 C586 -12 651 20 651 108 L651 112 C634 104 618 100 604 100 C579 100 562 117 562 151 L562 529 L390 529 L390 222 C390 187 380 161 357 143 C343 132 323 123 297 123 C257 123 225 147 225 210 L225 529 L53 529 L53 220 C53 66 136 -12 255 -12 C323 -12 380 9 417 36 C444 0 486 -12 524 -12 L524 -12 Z " />
<glyph glyph-name="v" unicode="v" horiz-adv-x="598" d="M178 529 L0 529 L217 0 L380 0 L598 529 L426 529 L302 199 L178 529 Z " />
<glyph glyph-name="w" unicode="w" horiz-adv-x="946" d="M874 130 C887 164 893 203 893 260 L893 529 L721 529 L721 214 C721 157 680 128 640 128 C599 128 559 157 559 214 L559 529 L387 529 L387 214 C387 157 346 128 306 128 C265 128 225 157 225 214 L225 529 L53 529 L53 260 C53 203 59 164 72 130 C109 29 201 -11 290 -11 C363 -11 435 16 473 59 C510 16 582 -11 655 -11 C744 -11 837 29 874 130 L874 130 Z " />
<glyph glyph-name="x" unicode="x" horiz-adv-x="639" d="M264 469 C224 519 186 540 127 540 C61 540 6 488 6 419 C23 426 37 429 50 429 C79 429 100 410 133 368 L220 258 L6 0 L199 0 L313 142 L376 63 C416 12 467 -11 516 -11 C578 -11 631 31 633 110 C617 104 602 100 591 100 C561 100 541 123 522 146 L419 275 L623 529 L446 529 L328 388 L264 469 Z " />
<glyph glyph-name="y" unicode="y" horiz-adv-x="652" d="M232 -89 C134 -89 71 -19 71 -19 C71 -19 66 -36 66 -61 C66 -174 172 -230 277 -230 C375 -230 458 -197 505 -123 C547 -57 562 19 562 110 L562 529 L390 529 L390 239 C390 204 380 178 357 160 C343 149 323 140 297 140 C257 140 225 164 225 227 L225 529 L53 529 L53 237 C53 83 136 5 255 5 C308 5 355 18 391 36 C388 -43 342 -89 232 -89 L232 -89 Z " />
<glyph glyph-name="z" unicode="z" horiz-adv-x="540" d="M490 529 L37 529 L37 392 L256 392 L38 84 L38 0 L335 0 C418 0 461 0 495 36 C508 52 519 79 522 122 L522 146 C477 141 433 138 328 138 L273 138 L490 445 L490 529 Z " />
<glyph glyph-name="braceleft" unicode="&#x7b;" horiz-adv-x="513" d="M338 -69 L338 129 C338 242 286 273 229 287 C283 302 338 342 338 445 L338 597 C338 680 379 728 502 733 L502 736 C304 736 164 727 164 598 L164 440 C164 317 110 295 6 289 L6 286 C110 278 164 255 164 135 L164 -58 C164 -185 300 -193 495 -194 L495 -191 C384 -186 338 -142 338 -69 L338 -69 Z " />
<glyph glyph-name="bar" unicode="&#x7c;" horiz-adv-x="271" d="M211 -192 L211 734 L60 734 L60 -192 L211 -192 Z " />
<glyph glyph-name="braceright" unicode="&#x7d;" horiz-adv-x="518" d="M170 -69 C170 -142 124 -186 13 -191 L13 -194 C208 -193 344 -185 344 -58 L344 135 C344 255 398 278 502 286 L502 289 C398 295 344 317 344 440 L344 598 C344 727 204 736 6 736 L6 733 C129 728 170 680 170 597 L170 445 C170 342 225 302 279 287 C222 273 170 242 170 129 L170 -69 Z " />
<glyph glyph-name="asciitilde" unicode="&#x7e;" horiz-adv-x="708" d="M571 307 C571 334 567 362 558 371 C548 322 514 318 477 318 C430 318 391 330 355 342 C324 353 288 361 256 361 C176 361 136 303 136 247 C136 211 143 178 157 151 C165 218 208 230 236 230 C273 230 305 219 338 208 C372 196 406 184 448 184 C523 184 571 249 571 307 L571 307 Z " />
<glyph glyph-name="uni00A0" unicode="&#xa0;" horiz-adv-x="303" />
<glyph glyph-name="exclamdown" unicode="&#xa1;" horiz-adv-x="275" d="M245 -194 L220 294 L54 294 L29 -194 L245 -194 Z M239 437 C239 505 188 540 137 540 C86 540 35 505 35 437 C35 369 86 335 137 335 C188 335 239 369 239 437 L239 437 Z " />
<glyph glyph-name="cent" unicode="&#xa2;" horiz-adv-x="505" d="M323 496 C347 496 363 494 376 492 C387 491 394 490 400 490 C462 490 484 504 495 618 C464 632 421 636 386 638 L386 749 L232 749 L232 632 C112 586 29 453 29 360 C29 222 118 120 232 91 L232 -35 L386 -35 L386 94 C407 100 441 102 481 122 L481 241 C443 232 385 224 356 224 C261 224 205 293 205 371 C205 429 245 496 323 496 L323 496 Z " />
<glyph glyph-name="sterling" unicode="&#xa3;" horiz-adv-x="610" d="M583 674 C517 703 467 718 383 718 C242 718 170 624 145 512 C138 483 136 469 125 416 L118 416 C68 416 45 395 34 348 L18 277 L102 277 L93 236 C79 170 66 111 28 0 L350 0 C449 0 491 2 528 24 C566 43 580 124 582 155 C515 149 449 145 384 145 L245 145 C250 161 263 232 272 277 L402 277 C466 277 474 323 490 382 L499 416 L300 416 L314 467 C328 537 358 568 422 568 C453 568 493 561 542 545 L583 674 Z " />
<glyph glyph-name="currency" unicode="&#xa4;" horiz-adv-x="594" d="M23 0 L568 0 L568 785 L23 785 L23 0 Z M131 101 L131 684 L460 684 L460 101 L131 101 Z " />
<glyph glyph-name="yen" unicode="&#xa5;" horiz-adv-x="610" d="M560 274 L389 274 L389 337 L560 337 L560 460 L426 460 L618 704 L424 704 L315 545 L205 704 L-11 704 L182 460 L51 460 L51 337 L216 337 L216 274 L51 274 L51 150 L216 150 L216 0 L389 0 L389 150 L560 150 L560 274 Z " />
<glyph glyph-name="brokenbar" unicode="&#xa6;" horiz-adv-x="271" d="M209 369 L209 736 L60 736 L60 369 L209 369 Z M209 -194 L209 172 L60 172 L60 -194 L209 -194 Z " />
<glyph glyph-name="section" unicode="&#xa7;" horiz-adv-x="599" d="M327 204 C267 225 205 245 205 300 C205 326 222 358 247 381 L288 365 C335 347 394 332 394 277 C394 250 377 217 353 195 L327 204 Z M503 610 C503 672 446 750 288 750 C154 750 79 654 79 564 C79 523 96 484 127 455 C74 406 47 356 47 286 C47 183 104 133 229 92 L284 74 C348 52 366 35 366 12 C366 -11 341 -31 287 -31 C227 -31 127 -2 121 64 C77 63 51 19 51 -23 C51 -135 183 -179 282 -179 C389 -179 519 -128 519 18 C519 59 506 90 475 122 C511 154 550 212 550 282 C550 421 451 460 379 482 L350 491 C270 518 230 536 230 564 C230 588 254 607 303 607 C372 607 435 559 436 511 C475 514 503 562 503 610 L503 610 Z " />
<glyph glyph-name="dieresis" unicode="&#xa8;" horiz-adv-x="624" d="M514 667 C514 712 477 749 432 749 C386 749 349 712 349 667 C349 622 386 584 432 584 C477 584 514 622 514 667 L514 667 Z M269 667 C269 712 233 749 187 749 C142 749 104 712 104 667 C104 622 142 584 187 584 C233 584 269 622 269 667 L269 667 Z " />
<glyph glyph-name="copyright" unicode="&#xa9;" horiz-adv-x="794" d="M25 359 C25 147 190 -12 394 -12 C588 -12 763 135 763 359 C763 560 606 729 394 729 C175 729 25 549 25 359 L25 359 Z M110 359 C110 504 217 644 394 644 C556 644 678 516 678 359 C678 192 548 73 394 73 C229 73 110 197 110 359 L110 359 Z M402 469 C411 469 418 468 425 467 C433 466 440 465 447 465 C480 465 503 474 513 552 C475 567 436 572 394 572 C267 572 207 463 207 359 C207 224 291 144 384 144 C426 144 460 151 504 177 L504 255 C479 248 446 244 424 244 C373 244 337 283 337 359 C337 413 352 469 402 469 L402 469 Z " />
<glyph glyph-name="ordfeminine" unicode="&#xaa;" horiz-adv-x="454" d="M389 741 C369 737 356 734 340 734 C311 734 275 750 224 750 C113 750 29 666 29 557 C29 455 83 374 174 374 C225 374 256 391 280 415 C298 386 334 373 363 373 C409 373 450 404 450 462 C445 459 432 457 422 457 C399 457 389 464 389 479 L389 741 Z M215 478 C172 478 146 512 146 558 C146 610 164 655 225 655 C250 655 267 650 277 645 L277 548 C277 507 256 478 215 478 L215 478 Z " />
<glyph glyph-name="guillemotleft" unicode="&#xab;" horiz-adv-x="593" d="M323 461 L261 461 C164 461 156 456 104 382 L22 265 L104 148 C157 72 164 69 261 69 L323 69 L209 227 C200 240 192 253 192 265 C192 277 197 286 206 299 L323 461 Z M571 461 L509 461 C412 461 404 456 352 382 L270 265 L352 148 C405 72 412 69 509 69 L571 69 L457 227 C448 240 440 253 440 265 C440 277 445 286 454 299 L571 461 Z " />
<glyph glyph-name="logicalnot" unicode="&#xac;" horiz-adv-x="708" d="M643 47 L643 356 L65 356 L65 219 L529 219 L529 47 L643 47 Z " />
<glyph glyph-name="registered" unicode="&#xae;" horiz-adv-x="387" d="M250 601 C250 641 221 654 178 654 C163 654 152 652 138 650 L138 491 L180 491 L180 550 L182 550 L208 512 C219 494 232 489 243 489 C253 489 266 497 274 507 C257 514 249 524 239 538 L225 560 C242 569 250 585 250 601 L250 601 Z M208 601 C208 585 199 578 185 578 L180 578 L180 621 L184 621 C198 621 208 613 208 601 L208 601 Z M348 569 C348 643 298 718 196 718 C93 718 43 643 43 569 C43 493 94 417 196 417 C297 417 348 493 348 569 L348 569 Z M311 569 C311 510 272 452 196 452 C119 452 81 510 81 569 C81 625 119 683 196 683 C272 683 311 625 311 569 L311 569 Z " />
<glyph glyph-name="macron" unicode="&#xaf;" horiz-adv-x="624" d="M499 615 L499 737 L125 737 L125 615 L499 615 Z " />
<glyph glyph-name="degree" unicode="&#xb0;" horiz-adv-x="496" d="M319 546 C319 503 287 467 248 467 C208 467 175 501 175 545 C175 587 208 620 248 620 C287 620 319 588 319 546 L319 546 Z M447 545 C447 674 345 743 247 743 C148 743 49 674 49 545 C49 414 148 347 247 347 C345 347 447 413 447 545 L447 545 Z " />
<glyph glyph-name="plusminus" unicode="&#xb1;" horiz-adv-x="708" d="M625 357 L625 495 L429 495 L429 662 L279 662 L279 495 L83 495 L83 357 L279 357 L279 190 L429 190 L429 357 L625 357 Z M625 0 L625 138 L83 138 L83 0 L625 0 Z " />
<glyph glyph-name="twosuperior" unicode="&#xb2;" horiz-adv-x="388" d="M359 568 C359 667 283 717 181 717 C74 717 22 651 22 589 C22 539 53 498 103 498 C116 498 129 500 143 503 C128 527 121 547 121 569 C121 599 148 614 176 614 C204 614 232 599 232 568 C232 510 140 414 70 348 L31 316 L31 229 L363 229 L363 337 L214 337 C282 404 359 491 359 568 L359 568 Z " />
<glyph glyph-name="threesuperior" unicode="&#xb3;" horiz-adv-x="381" d="M353 589 C353 649 294 718 176 718 C79 718 24 658 24 605 C24 565 54 538 81 536 C91 581 120 604 163 604 C204 604 224 584 224 563 C224 539 198 512 147 512 L136 512 L136 428 L165 428 C216 428 237 406 237 383 C237 356 209 327 164 327 C114 327 72 366 72 424 C47 411 17 383 17 345 C17 272 81 229 178 229 C294 229 364 302 364 381 C364 428 333 465 287 480 C327 502 353 540 353 589 L353 589 Z " />
<glyph glyph-name="acute" unicode="&#xb4;" horiz-adv-x="624" d="M152 568 L392 609 C448 618 471 651 471 682 C471 716 444 749 403 749 C383 749 360 741 335 721 L150 573 L152 568 Z " />
<glyph glyph-name="mu" unicode="&#xb5;" horiz-adv-x="651" d="M53 194 C53 11 40 -194 40 -194 L214 -194 C208 -85 205 -39 204 -8 C220 -11 237 -12 255 -12 C324 -12 382 10 419 37 C443 7 479 -12 524 -12 C596 -12 656 37 656 114 L656 132 C636 119 616 112 600 112 C578 112 562 125 562 164 L562 529 L390 529 L390 222 C390 187 380 161 357 143 C343 132 323 123 297 123 C257 123 225 147 225 210 L225 529 L53 529 L53 194 Z " />
<glyph glyph-name="paragraph" unicode="&#xb6;" horiz-adv-x="757" d="M19 443 C19 327 108 204 272 183 L272 -194 L421 -194 L421 540 L505 540 L505 -194 L658 -194 L658 540 L737 540 L737 704 L313 704 C114 704 19 573 19 443 L19 443 Z " />
<glyph glyph-name="periodcentered" unicode="&#xb7;" horiz-adv-x="274" d="M35 356 C35 287 86 253 137 253 C188 253 239 287 239 356 C239 424 188 458 137 458 C86 458 35 424 35 356 L35 356 Z " />
<glyph glyph-name="cedilla" unicode="&#xb8;" horiz-adv-x="467" d="M404 -95 C404 -47 370 -27 333 -18 L329 -17 L353 40 L241 40 L196 -56 L217 -59 C262 -65 283 -77 283 -92 C283 -104 275 -117 239 -117 C212 -117 195 -113 167 -105 C167 -172 220 -202 276 -202 C338 -202 404 -165 404 -95 L404 -95 Z " />
<glyph glyph-name="onesuperior" unicode="&#xb9;" horiz-adv-x="271" d="M11 585 C39 590 88 601 115 610 L115 254 L236 254 L236 751 C170 731 83 710 11 695 L11 585 Z " />
<glyph glyph-name="ordmasculine" unicode="&#xba;" horiz-adv-x="471" d="M169 548 C169 591 191 634 234 634 C277 634 299 591 299 548 C299 505 277 462 234 462 C191 462 169 505 169 548 L169 548 Z M39 548 C39 397 155 346 234 346 C313 346 429 397 429 548 C429 699 313 750 234 750 C155 750 39 699 39 548 L39 548 Z " />
<glyph glyph-name="guillemotright" unicode="&#xbb;" horiz-adv-x="593" d="M139 299 C148 286 153 277 153 265 C153 253 145 240 136 227 L22 69 L84 69 C181 69 188 72 241 148 L323 265 L241 382 C189 456 181 461 84 461 L22 461 L139 299 Z M387 299 C396 286 401 277 401 265 C401 253 393 240 384 227 L270 69 L332 69 C429 69 436 72 489 148 L571 265 L489 382 C437 456 429 461 332 461 L270 461 L387 299 Z " />
<glyph glyph-name="onequarter" unicode="&#xbc;" horiz-adv-x="990" d="M958 200 L881 200 L881 479 L713 479 L556 193 L556 99 L766 99 L766 0 L883 0 L883 99 L901 99 C932 99 938 119 950 168 L958 200 Z M795 704 L658 704 L144 0 L280 0 L795 704 Z M276 726 C208 703 124 682 52 668 L52 561 C79 564 129 575 156 583 L156 248 L276 248 L276 726 Z M668 200 L766 379 L766 200 L668 200 Z " />
<glyph glyph-name="onehalf" unicode="&#xbd;" horiz-adv-x="990" d="M260 726 C192 703 108 682 36 668 L36 561 C63 564 113 575 140 583 L140 248 L260 248 L260 726 Z M945 339 C945 438 869 488 767 488 C660 488 608 422 608 360 C608 310 639 269 689 269 C702 269 715 271 729 274 C714 298 707 318 707 340 C707 370 734 385 762 385 C790 385 818 370 818 339 C818 281 726 185 656 119 L617 87 L617 0 L949 0 L949 108 L800 108 C868 175 945 262 945 339 L945 339 Z M776 704 L637 704 L126 0 L264 0 L776 704 Z " />
<glyph glyph-name="threequarters" unicode="&#xbe;" horiz-adv-x="990" d="M982 200 L905 200 L905 479 L737 479 L580 193 L580 99 L790 99 L790 0 L907 0 L907 99 L925 99 C956 99 962 119 974 168 L982 200 Z M357 589 C357 649 298 718 180 718 C83 718 28 658 28 605 C28 565 58 538 85 536 C95 581 124 604 167 604 C208 604 228 584 228 563 C228 539 202 512 151 512 L140 512 L140 428 L169 428 C220 428 241 406 241 383 C241 356 213 327 168 327 C118 327 76 366 76 424 C51 411 21 383 21 345 C21 272 85 229 182 229 C298 229 368 302 368 381 C368 428 337 465 291 480 C331 502 357 540 357 589 L357 589 Z M832 704 L695 704 L179 0 L316 0 L832 704 Z M692 200 L790 379 L790 200 L692 200 Z " />
<glyph glyph-name="questiondown" unicode="&#xbf;" horiz-adv-x="588" d="M365 8 C365 -23 330 -50 273 -50 C190 -50 158 11 158 61 C158 68 158 75 159 81 C99 78 50 39 50 -30 C50 -109 122 -200 300 -200 C455 -200 540 -96 540 -7 C540 175 357 185 350 300 L207 300 C200 281 197 253 197 230 C197 168 255 124 303 87 C337 61 365 40 365 8 L365 8 Z M185 437 C185 369 236 335 287 335 C338 335 389 369 389 437 C389 506 338 540 287 540 C236 540 185 506 185 437 L185 437 Z " />
<glyph glyph-name="Agrave" unicode="&#xc0;" horiz-adv-x="798" d="M499 704 L296 704 L12 0 L181 0 L236 144 C265 147 318 150 370 150 C439 150 497 132 537 97 C558 78 574 55 588 18 L594 0 L786 0 L499 704 Z M500 265 C455 289 395 294 355 294 C340 294 308 293 292 291 L393 534 L500 265 Z M543 749 L358 897 C333 917 310 925 290 925 C250 925 222 892 222 858 C222 827 245 795 301 785 L541 744 L543 749 Z " />
<glyph glyph-name="Aacute" unicode="&#xc1;" horiz-adv-x="798" d="M499 704 L296 704 L12 0 L181 0 L236 144 C265 147 318 150 370 150 C439 150 497 132 537 97 C558 78 574 55 588 18 L594 0 L786 0 L499 704 Z M500 265 C455 289 395 294 355 294 C340 294 308 293 292 291 L393 534 L500 265 Z M231 744 L471 785 C527 794 550 827 550 858 C550 892 523 925 482 925 C462 925 439 917 414 897 L229 749 L231 744 Z " />
<glyph glyph-name="Acircumflex" unicode="&#xc2;" horiz-adv-x="798" d="M499 704 L296 704 L12 0 L181 0 L236 144 C265 147 318 150 370 150 C439 150 497 132 537 97 C558 78 574 55 588 18 L594 0 L786 0 L499 704 Z M500 265 C455 289 395 294 355 294 C340 294 308 293 292 291 L393 534 L500 265 Z M393 806 C434 806 477 793 536 769 L585 748 L586 751 C583 757 517 838 514 839 C478 883 446 921 393 921 C340 921 308 883 272 839 C269 838 203 757 200 751 L201 748 L250 769 C309 794 352 806 393 806 L393 806 Z " />
<glyph glyph-name="Atilde" unicode="&#xc3;" horiz-adv-x="798" d="M499 704 L296 704 L12 0 L181 0 L236 144 C265 147 318 150 370 150 C439 150 497 132 537 97 C558 78 574 55 588 18 L594 0 L786 0 L499 704 Z M500 265 C455 289 395 294 355 294 C340 294 308 293 292 291 L393 534 L500 265 Z M221 769 C236 783 248 794 289 794 C339 794 412 768 471 768 C508 768 534 782 547 806 C554 819 558 836 558 883 L558 901 C543 887 531 876 490 876 C440 876 367 902 308 902 C271 902 245 888 232 864 C225 851 221 834 221 787 L221 769 Z " />
<glyph glyph-name="Adieresis" unicode="&#xc4;" horiz-adv-x="764" d="M479 704 L276 704 L-8 0 L161 0 L216 144 C245 147 298 150 350 150 C419 150 477 132 517 97 C538 78 554 55 568 18 L574 0 L766 0 L479 704 Z M480 265 C435 289 375 294 335 294 C320 294 288 293 272 291 L373 534 L480 265 Z M580 833 C580 878 543 915 498 915 C452 915 415 878 415 833 C415 788 452 750 498 750 C543 750 580 788 580 833 L580 833 Z M335 833 C335 878 299 915 253 915 C208 915 170 878 170 833 C170 788 208 750 253 750 C299 750 335 788 335 833 L335 833 Z " />
<glyph glyph-name="Aring" unicode="&#xc5;" horiz-adv-x="764" d="M479 704 L276 704 L-8 0 L161 0 L216 144 C245 147 298 150 350 150 C419 150 477 132 517 97 C538 78 554 55 568 18 L574 0 L766 0 L479 704 Z M480 265 C435 289 375 294 335 294 C320 294 288 293 272 291 L373 534 L480 265 Z M484 842 C484 901 436 949 375 949 C317 949 269 902 269 843 C269 784 317 734 375 734 C435 734 484 783 484 842 L484 842 Z M425 842 C425 814 403 790 377 790 C351 790 329 813 329 841 C329 870 351 892 377 892 C403 892 425 871 425 842 L425 842 Z " />
<glyph glyph-name="AE" unicode="&#xc6;" horiz-adv-x="1074" d="M534 0 L823 0 C917 0 999 1 1036 33 C1053 48 1064 76 1068 117 L1070 166 C1019 161 978 157 883 157 L709 157 L709 281 L876 281 C942 281 961 298 969 353 L981 427 L709 427 L709 548 L1003 548 L1027 704 L534 704 L-17 0 L175 0 L280 139 L534 139 L534 0 Z M381 271 L534 472 L534 271 L381 271 Z " />
<glyph glyph-name="Ccedilla" unicode="&#xc7;" horiz-adv-x="645" d="M464 -95 C464 -47 430 -27 393 -18 L389 -17 L392 -9 C401 -9 410 -10 420 -10 C487 -10 550 1 601 20 L601 159 C558 150 508 143 464 143 C300 143 218 232 218 350 C218 457 296 558 409 558 C437 558 461 552 484 549 C504 546 519 543 536 543 C569 543 590 566 602 602 L625 673 C567 695 498 714 419 714 C226 714 31 598 31 350 C31 183 128 54 286 8 L256 -56 L277 -59 C322 -65 343 -77 343 -92 C343 -104 335 -117 299 -117 C272 -117 255 -113 227 -105 C227 -172 280 -202 336 -202 C398 -202 464 -165 464 -95 L464 -95 Z " />
<glyph glyph-name="Egrave" unicode="&#xc8;" horiz-adv-x="633" d="M241 558 L521 558 L545 704 L66 704 L66 0 L341 0 C435 0 513 0 547 34 C569 56 577 78 585 133 L590 166 C539 161 496 157 401 157 L241 157 L241 281 L394 281 C460 281 478 298 487 353 L499 427 L241 427 L241 558 Z M468 749 L283 897 C258 917 235 925 215 925 C175 925 147 892 147 858 C147 827 170 795 226 785 L466 744 L468 749 Z " />
<glyph glyph-name="Eacute" unicode="&#xc9;" horiz-adv-x="593" d="M241 558 L521 558 L545 704 L66 704 L66 0 L341 0 C435 0 513 0 547 34 C569 56 577 78 585 133 L590 166 C539 161 496 157 401 157 L241 157 L241 281 L394 281 C460 281 478 298 487 353 L499 427 L241 427 L241 558 Z M153 744 L393 785 C449 794 472 827 472 858 C472 892 445 925 404 925 C384 925 361 917 336 897 L151 749 L153 744 Z " />
<glyph glyph-name="Ecircumflex" unicode="&#xca;" horiz-adv-x="623" d="M241 558 L521 558 L545 704 L66 704 L66 0 L341 0 C435 0 513 0 547 34 C569 56 577 78 585 133 L590 166 C539 161 496 157 401 157 L241 157 L241 281 L394 281 C460 281 478 298 487 353 L499 427 L241 427 L241 558 Z M301 806 C342 806 385 793 444 769 L493 748 L494 751 C491 757 425 838 422 839 C386 883 354 921 301 921 C248 921 216 883 180 839 C177 838 111 757 108 751 L109 748 L158 769 C217 794 260 806 301 806 L301 806 Z " />
<glyph glyph-name="Edieresis" unicode="&#xcb;" horiz-adv-x="636" d="M241 558 L521 558 L545 704 L66 704 L66 0 L341 0 C435 0 513 0 547 34 C569 56 577 78 585 133 L590 166 C539 161 496 157 401 157 L241 157 L241 281 L394 281 C460 281 478 298 487 353 L499 427 L241 427 L241 558 Z M509 833 C509 878 472 915 427 915 C381 915 344 878 344 833 C344 788 381 750 427 750 C472 750 509 788 509 833 L509 833 Z M264 833 C264 878 228 915 182 915 C137 915 99 878 99 833 C99 788 137 750 182 750 C228 750 264 788 264 833 L264 833 Z " />
<glyph glyph-name="Igrave" unicode="&#xcc;" horiz-adv-x="309" d="M240 0 L240 704 L66 704 L66 0 L240 0 Z M314 749 L129 897 C104 917 81 925 61 925 C21 925 -7 892 -7 858 C-7 827 16 795 72 785 L312 744 L314 749 Z " />
<glyph glyph-name="Iacute" unicode="&#xcd;" horiz-adv-x="309" d="M240 0 L240 704 L66 704 L66 0 L240 0 Z M-4 744 L236 785 C292 794 315 827 315 858 C315 892 288 925 247 925 C227 925 204 917 179 897 L-6 749 L-4 744 Z " />
<glyph glyph-name="Icircumflex" unicode="&#xce;" horiz-adv-x="309" d="M240 0 L240 704 L66 704 L66 0 L240 0 Z M158 806 C199 806 242 793 301 769 L350 748 L351 751 C348 757 282 838 279 839 C243 883 211 921 158 921 C105 921 73 883 37 839 C34 838 -32 757 -35 751 L-34 748 L15 769 C74 794 117 806 158 806 L158 806 Z " />
<glyph glyph-name="Idieresis" unicode="&#xcf;" horiz-adv-x="309" d="M240 0 L240 704 L66 704 L66 0 L240 0 Z M359 833 C359 878 322 915 277 915 C231 915 194 878 194 833 C194 788 231 750 277 750 C322 750 359 788 359 833 L359 833 Z M114 833 C114 878 78 915 32 915 C-13 915 -51 878 -51 833 C-51 788 -13 750 32 750 C78 750 114 788 114 833 L114 833 Z " />
<glyph glyph-name="Eth" unicode="&#xd0;" horiz-adv-x="754" d="M66 4 C146 -4 198 -8 277 -8 C619 -8 717 179 717 354 C717 518 624 712 262 712 C198 712 140 707 66 700 L66 409 L-13 409 L-13 287 L66 287 L66 4 Z M295 559 C455 559 531 488 531 354 C531 209 448 143 295 143 C279 143 259 144 241 146 L241 287 L370 287 L370 409 L241 409 L241 555 C260 558 279 559 295 559 L295 559 Z " />
<glyph glyph-name="Ntilde" unicode="&#xd1;" horiz-adv-x="805" d="M738 704 L568 704 L568 268 L294 630 C239 702 185 714 127 714 C88 714 49 706 19 692 C46 666 67 643 67 572 L67 0 L235 0 L235 437 L568 0 L738 0 L738 704 Z M234 769 C249 783 261 794 302 794 C352 794 425 768 484 768 C521 768 547 782 560 806 C567 819 571 836 571 883 L571 901 C556 887 544 876 503 876 C453 876 380 902 321 902 C284 902 258 888 245 864 C238 851 234 834 234 787 L234 769 Z " />
<glyph glyph-name="Ograve" unicode="&#xd2;" horiz-adv-x="848" d="M218 352 C218 467 300 559 424 559 C548 559 630 467 630 352 C630 237 548 145 424 145 C300 145 218 237 218 352 L218 352 Z M813 352 C813 532 687 713 424 713 C161 713 35 532 35 352 C35 172 161 -9 424 -9 C687 -9 813 172 813 352 L813 352 Z M586 749 L401 897 C376 917 353 925 333 925 C293 925 265 892 265 858 C265 827 288 795 344 785 L584 744 L586 749 Z " />
<glyph glyph-name="Oacute" unicode="&#xd3;" horiz-adv-x="848" d="M218 352 C218 467 300 559 424 559 C548 559 630 467 630 352 C630 237 548 145 424 145 C300 145 218 237 218 352 L218 352 Z M813 352 C813 532 687 713 424 713 C161 713 35 532 35 352 C35 172 161 -9 424 -9 C687 -9 813 172 813 352 L813 352 Z M266 744 L506 785 C562 794 585 827 585 858 C585 892 558 925 517 925 C497 925 474 917 449 897 L264 749 L266 744 Z " />
<glyph glyph-name="Ocircumflex" unicode="&#xd4;" horiz-adv-x="848" d="M218 352 C218 467 300 559 424 559 C548 559 630 467 630 352 C630 237 548 145 424 145 C300 145 218 237 218 352 L218 352 Z M813 352 C813 532 687 713 424 713 C161 713 35 532 35 352 C35 172 161 -9 424 -9 C687 -9 813 172 813 352 L813 352 Z M425 806 C466 806 509 793 568 769 L617 748 L618 751 C615 757 549 838 546 839 C510 883 478 921 425 921 C372 921 340 883 304 839 C301 838 235 757 232 751 L233 748 L282 769 C341 794 384 806 425 806 L425 806 Z " />
<glyph glyph-name="Otilde" unicode="&#xd5;" horiz-adv-x="848" d="M218 352 C218 467 300 559 424 559 C548 559 630 467 630 352 C630 237 548 145 424 145 C300 145 218 237 218 352 L218 352 Z M813 352 C813 532 687 713 424 713 C161 713 35 532 35 352 C35 172 161 -9 424 -9 C687 -9 813 172 813 352 L813 352 Z M256 769 C271 783 283 794 324 794 C374 794 447 768 506 768 C543 768 569 782 582 806 C589 819 593 836 593 883 L593 901 C578 887 566 876 525 876 C475 876 402 902 343 902 C306 902 280 888 267 864 C260 851 256 834 256 787 L256 769 Z " />
<glyph glyph-name="Odieresis" unicode="&#xd6;" horiz-adv-x="848" d="M218 352 C218 467 300 559 424 559 C548 559 630 467 630 352 C630 237 548 145 424 145 C300 145 218 237 218 352 L218 352 Z M813 352 C813 532 687 713 424 713 C161 713 35 532 35 352 C35 172 161 -9 424 -9 C687 -9 813 172 813 352 L813 352 Z M630 833 C630 878 593 915 548 915 C502 915 465 878 465 833 C465 788 502 750 548 750 C593 750 630 788 630 833 L630 833 Z M385 833 C385 878 349 915 303 915 C258 915 220 878 220 833 C220 788 258 750 303 750 C349 750 385 788 385 833 L385 833 Z " />
<glyph glyph-name="multiply" unicode="&#xd7;" horiz-adv-x="708" d="M640 96 L447 287 L640 478 L543 572 L354 383 L161 572 L68 478 L258 287 L68 96 L161 0 L354 192 L543 0 L640 96 Z " />
<glyph glyph-name="Oslash" unicode="&#xd8;" horiz-adv-x="848" d="M813 352 C813 432 787 513 736 578 L791 641 L655 751 L595 682 C546 701 489 713 424 713 C161 713 35 532 35 352 C35 271 60 190 111 126 L56 62 L196 -43 L252 22 C301 2 358 -9 424 -9 C687 -9 813 172 813 352 L813 352 Z M630 352 C630 237 548 145 424 145 C403 145 384 148 366 152 L613 437 C624 411 630 382 630 352 L630 352 Z M218 352 C218 467 300 559 424 559 C444 559 464 556 482 552 L234 267 C224 293 218 322 218 352 L218 352 Z " />
<glyph glyph-name="Ugrave" unicode="&#xd9;" horiz-adv-x="773" d="M646 -11 C718 -11 781 26 781 117 L781 132 C763 123 745 118 730 118 C703 118 684 134 684 170 L684 704 L507 704 L507 289 C507 243 497 214 477 192 C455 168 421 151 375 151 C342 151 302 157 277 184 C254 208 243 240 243 279 L243 704 L66 704 L66 349 C66 331 67 282 70 242 C84 59 228 -10 332 -10 C405 -10 482 23 520 65 C545 13 594 -11 646 -11 L646 -11 Z M529 749 L344 897 C319 917 296 925 276 925 C236 925 208 892 208 858 C208 827 231 795 287 785 L527 744 L529 749 Z " />
<glyph glyph-name="Uacute" unicode="&#xda;" horiz-adv-x="775" d="M646 -11 C718 -11 781 26 781 117 L781 132 C763 123 745 118 730 118 C703 118 684 134 684 170 L684 704 L507 704 L507 289 C507 243 497 214 477 192 C455 168 421 151 375 151 C342 151 302 157 277 184 C254 208 243 240 243 279 L243 704 L66 704 L66 349 C66 331 67 282 70 242 C84 59 228 -10 332 -10 C405 -10 482 23 520 65 C545 13 594 -11 646 -11 L646 -11 Z M217 744 L457 785 C513 794 536 827 536 858 C536 892 509 925 468 925 C448 925 425 917 400 897 L215 749 L217 744 Z " />
<glyph glyph-name="Ucircumflex" unicode="&#xdb;" horiz-adv-x="773" d="M646 -11 C718 -11 781 26 781 117 L781 132 C763 123 745 118 730 118 C703 118 684 134 684 170 L684 704 L507 704 L507 289 C507 243 497 214 477 192 C455 168 421 151 375 151 C342 151 302 157 277 184 C254 208 243 240 243 279 L243 704 L66 704 L66 349 C66 331 67 282 70 242 C84 59 228 -10 332 -10 C405 -10 482 23 520 65 C545 13 594 -11 646 -11 L646 -11 Z M379 806 C420 806 463 793 522 769 L571 748 L572 751 C569 757 503 838 500 839 C464 883 432 921 379 921 C326 921 294 883 258 839 C255 838 189 757 186 751 L187 748 L236 769 C295 794 338 806 379 806 L379 806 Z " />
<glyph glyph-name="Udieresis" unicode="&#xdc;" horiz-adv-x="773" d="M646 -11 C718 -11 781 26 781 117 L781 132 C763 123 745 118 730 118 C703 118 684 134 684 170 L684 704 L507 704 L507 289 C507 243 497 214 477 192 C455 168 421 151 375 151 C342 151 302 157 277 184 C254 208 243 240 243 279 L243 704 L66 704 L66 349 C66 331 67 282 70 242 C84 59 228 -10 332 -10 C405 -10 482 23 520 65 C545 13 594 -11 646 -11 L646 -11 Z M582 833 C582 878 545 915 500 915 C454 915 417 878 417 833 C417 788 454 750 500 750 C545 750 582 788 582 833 L582 833 Z M337 833 C337 878 301 915 255 915 C210 915 172 878 172 833 C172 788 210 750 255 750 C301 750 337 788 337 833 L337 833 Z " />
<glyph glyph-name="Yacute" unicode="&#xdd;" horiz-adv-x="706" d="M731 680 C696 701 657 712 619 712 C592 712 566 706 542 695 C515 682 491 662 467 621 L356 432 L199 704 L-8 704 C75 566 181 398 265 259 L265 0 L441 0 L441 261 L620 561 C665 636 701 664 731 680 L731 680 Z M197 744 L437 785 C493 794 516 827 516 858 C516 892 489 925 448 925 C428 925 405 917 380 897 L195 749 L197 744 Z " />
<glyph glyph-name="Thorn" unicode="&#xde;" horiz-adv-x="640" d="M285 593 L236 590 L236 704 L64 704 L64 0 L236 0 L236 143 C281 132 331 126 373 126 C522 126 615 222 615 364 C615 478 527 593 285 593 L285 593 Z M236 256 L236 456 C258 458 296 458 309 458 C420 458 445 407 445 359 C445 308 413 256 300 256 L236 256 Z " />
<glyph glyph-name="germandbls" unicode="&#xdf;" horiz-adv-x="700" d="M434 123 C396 123 347 142 319 178 C291 156 276 127 276 98 C276 43 331 -12 455 -12 C596 -12 682 73 682 161 C682 236 642 277 569 322 L510 358 C487 371 476 381 476 393 C476 404 486 416 504 434 C570 500 593 527 593 586 C593 669 507 749 351 749 C195 749 111 684 73 604 C60 576 53 546 53 492 L53 0 L225 0 L225 469 C225 507 228 527 234 545 C250 593 291 615 340 615 C391 615 421 591 421 562 C421 535 383 508 352 475 C306 426 288 408 288 370 C288 322 321 294 402 251 L470 210 C493 196 506 178 506 162 C506 141 484 123 434 123 L434 123 Z " />
<glyph glyph-name="agrave" unicode="&#xe0;" horiz-adv-x="686" d="M553 -12 C615 -12 680 20 680 108 L680 112 C663 104 647 100 633 100 C608 100 591 117 591 151 L591 528 C569 516 544 509 515 509 C488 509 461 518 437 525 C410 533 381 540 326 540 C-52 540 -80 -12 286 -12 C351 -12 405 11 444 39 C471 0 514 -12 553 -12 L553 -12 Z M307 128 C239 128 199 181 199 255 C199 343 255 401 329 401 C372 401 403 391 420 381 L420 257 C420 205 409 179 392 161 C370 137 338 128 307 128 L307 128 Z M488 585 L303 733 C278 753 255 761 235 761 C195 761 167 728 167 694 C167 663 190 631 246 621 L486 580 L488 585 Z " />
<glyph glyph-name="aacute" unicode="&#xe1;" horiz-adv-x="686" d="M553 -12 C615 -12 680 20 680 108 L680 112 C663 104 647 100 633 100 C608 100 591 117 591 151 L591 528 C569 516 544 509 515 509 C488 509 461 518 437 525 C410 533 381 540 326 540 C-52 540 -80 -12 286 -12 C351 -12 405 11 444 39 C471 0 514 -12 553 -12 L553 -12 Z M307 128 C239 128 199 181 199 255 C199 343 255 401 329 401 C372 401 403 391 420 381 L420 257 C420 205 409 179 392 161 C370 137 338 128 307 128 L307 128 Z M162 568 L402 609 C458 618 481 651 481 682 C481 716 454 749 413 749 C393 749 370 741 345 721 L160 573 L162 568 Z " />
<glyph glyph-name="acircumflex" unicode="&#xe2;" horiz-adv-x="686" d="M553 -12 C615 -12 680 20 680 108 L680 112 C663 104 647 100 633 100 C608 100 591 117 591 151 L591 528 C569 516 544 509 515 509 C488 509 461 518 437 525 C410 533 381 540 326 540 C-52 540 -80 -12 286 -12 C351 -12 405 11 444 39 C471 0 514 -12 553 -12 L553 -12 Z M307 128 C239 128 199 181 199 255 C199 343 255 401 329 401 C372 401 403 391 420 381 L420 257 C420 205 409 179 392 161 C370 137 338 128 307 128 L307 128 Z M324 634 C365 634 408 621 467 597 L516 576 L517 579 C514 585 448 666 445 667 C409 711 377 749 324 749 C271 749 239 711 203 667 C200 666 134 585 131 579 L132 576 L181 597 C240 622 283 634 324 634 L324 634 Z " />
<glyph glyph-name="atilde" unicode="&#xe3;" horiz-adv-x="686" d="M553 -12 C615 -12 680 20 680 108 L680 112 C663 104 647 100 633 100 C608 100 591 117 591 151 L591 528 C569 516 544 509 515 509 C488 509 461 518 437 525 C410 533 381 540 326 540 C-52 540 -80 -12 286 -12 C351 -12 405 11 444 39 C471 0 514 -12 553 -12 L553 -12 Z M307 128 C239 128 199 181 199 255 C199 343 255 401 329 401 C372 401 403 391 420 381 L420 257 C420 205 409 179 392 161 C370 137 338 128 307 128 L307 128 Z M156 604 C171 618 183 629 224 629 C274 629 347 603 406 603 C443 603 469 617 482 641 C489 654 493 671 493 718 L493 736 C478 722 466 711 425 711 C375 711 302 737 243 737 C206 737 180 723 167 699 C160 686 156 669 156 622 L156 604 Z " />
<glyph glyph-name="adieresis" unicode="&#xe4;" horiz-adv-x="686" d="M553 -12 C615 -12 680 20 680 108 L680 112 C663 104 647 100 633 100 C608 100 591 117 591 151 L591 528 C569 516 544 509 515 509 C488 509 461 518 437 525 C410 533 381 540 326 540 C-52 540 -80 -12 286 -12 C351 -12 405 11 444 39 C471 0 514 -12 553 -12 L553 -12 Z M307 128 C239 128 199 181 199 255 C199 343 255 401 329 401 C372 401 403 391 420 381 L420 257 C420 205 409 179 392 161 C370 137 338 128 307 128 L307 128 Z M524 667 C524 712 487 749 442 749 C396 749 359 712 359 667 C359 622 396 584 442 584 C487 584 524 622 524 667 L524 667 Z M279 667 C279 712 243 749 197 749 C152 749 114 712 114 667 C114 622 152 584 197 584 C243 584 279 622 279 667 L279 667 Z " />
<glyph glyph-name="aring" unicode="&#xe5;" horiz-adv-x="686" d="M553 -12 C615 -12 680 20 680 108 L680 112 C663 104 647 100 633 100 C608 100 591 117 591 151 L591 528 C569 516 544 509 515 509 C488 509 461 518 437 525 C410 533 381 540 326 540 C-52 540 -80 -12 286 -12 C351 -12 405 11 444 39 C471 0 514 -12 553 -12 L553 -12 Z M307 128 C239 128 199 181 199 255 C199 343 255 401 329 401 C372 401 403 391 420 381 L420 257 C420 205 409 179 392 161 C370 137 338 128 307 128 L307 128 Z M420 672 C420 731 372 779 311 779 C253 779 205 732 205 673 C205 614 253 564 311 564 C371 564 420 613 420 672 L420 672 Z M361 672 C361 644 339 620 313 620 C287 620 265 643 265 671 C265 700 287 722 313 722 C339 722 361 701 361 672 L361 672 Z " />
<glyph glyph-name="ae" unicode="&#xe6;" horiz-adv-x="942" d="M677 -12 C796 -12 900 54 900 177 L900 184 C860 148 790 126 725 126 C661 126 601 147 580 197 L610 197 C837 197 918 285 918 380 C918 468 833 540 691 540 C627 540 581 515 513 515 C486 515 461 522 440 527 C413 534 380 540 327 540 C177 540 32 437 32 264 C32 99 109 -12 305 -12 C358 -12 430 7 493 55 C535 14 595 -12 677 -12 L677 -12 Z M316 123 C255 123 212 178 212 256 C212 337 252 405 332 405 C371 405 400 395 416 384 L416 224 C416 138 358 123 316 123 L316 123 Z M580 302 L565 302 C578 368 627 413 692 413 C725 413 752 398 752 372 C752 304 622 302 580 302 L580 302 Z " />
<glyph glyph-name="ccedilla" unicode="&#xe7;" horiz-adv-x="515" d="M384 -95 C384 -47 350 -27 309 -17 L311 -12 C366 -11 411 -8 477 24 L477 144 C441 136 382 127 349 127 C258 127 200 190 200 268 C200 321 229 393 318 393 C348 393 374 385 400 385 C457 385 481 406 491 511 C435 534 378 540 307 540 C116 540 24 366 24 262 C24 134 100 38 203 3 L176 -56 L197 -59 C242 -65 263 -77 263 -92 C263 -104 255 -117 219 -117 C192 -117 175 -113 147 -105 C147 -172 200 -202 256 -202 C318 -202 384 -165 384 -95 L384 -95 Z " />
<glyph glyph-name="egrave" unicode="&#xe8;" horiz-adv-x="570" d="M305 -12 C424 -12 528 54 528 177 L528 184 C488 148 418 126 353 126 C289 126 229 147 208 197 L238 197 C465 197 546 285 546 380 C546 468 461 540 319 540 C133 540 28 395 28 254 C28 120 126 -12 305 -12 L305 -12 Z M208 302 L193 302 C206 368 255 413 320 413 C353 413 380 398 380 372 C380 304 250 302 208 302 L208 302 Z M457 585 L272 733 C247 753 224 761 204 761 C164 761 136 728 136 694 C136 663 159 631 215 621 L455 580 L457 585 Z " />
<glyph glyph-name="eacute" unicode="&#xe9;" horiz-adv-x="570" d="M305 -12 C424 -12 528 54 528 177 L528 184 C488 148 418 126 353 126 C289 126 229 147 208 197 L238 197 C465 197 546 285 546 380 C546 468 461 540 319 540 C133 540 28 395 28 254 C28 120 126 -12 305 -12 L305 -12 Z M208 302 L193 302 C206 368 255 413 320 413 C353 413 380 398 380 372 C380 304 250 302 208 302 L208 302 Z M141 568 L381 609 C437 618 460 651 460 682 C460 716 433 749 392 749 C372 749 349 741 324 721 L139 573 L141 568 Z " />
<glyph glyph-name="ecircumflex" unicode="&#xea;" horiz-adv-x="570" d="M305 -12 C424 -12 528 54 528 177 L528 184 C488 148 418 126 353 126 C289 126 229 147 208 197 L238 197 C465 197 546 285 546 380 C546 468 461 540 319 540 C133 540 28 395 28 254 C28 120 126 -12 305 -12 L305 -12 Z M208 302 L193 302 C206 368 255 413 320 413 C353 413 380 398 380 372 C380 304 250 302 208 302 L208 302 Z M307 634 C348 634 391 621 450 597 L499 576 L500 579 C497 585 431 666 428 667 C392 711 360 749 307 749 C254 749 222 711 186 667 C183 666 117 585 114 579 L115 576 L164 597 C223 622 266 634 307 634 L307 634 Z " />
<glyph glyph-name="edieresis" unicode="&#xeb;" horiz-adv-x="570" d="M305 -12 C424 -12 528 54 528 177 L528 184 C488 148 418 126 353 126 C289 126 229 147 208 197 L238 197 C465 197 546 285 546 380 C546 468 461 540 319 540 C133 540 28 395 28 254 C28 120 126 -12 305 -12 L305 -12 Z M208 302 L193 302 C206 368 255 413 320 413 C353 413 380 398 380 372 C380 304 250 302 208 302 L208 302 Z M513 667 C513 712 476 749 431 749 C385 749 348 712 348 667 C348 622 385 584 431 584 C476 584 513 622 513 667 L513 667 Z M268 667 C268 712 232 749 186 749 C141 749 103 712 103 667 C103 622 141 584 186 584 C232 584 268 622 268 667 L268 667 Z " />
<glyph glyph-name="igrave" unicode="&#xec;" horiz-adv-x="314" d="M308 585 L123 733 C98 753 75 761 55 761 C15 761 -13 728 -13 694 C-13 663 10 631 66 621 L306 580 L308 585 Z M53 136 C53 19 130 -12 186 -12 C255 -12 320 23 320 108 L320 120 C302 111 287 101 264 101 C235 101 225 116 225 146 L225 529 L53 529 L53 136 Z " />
<glyph glyph-name="iacute" unicode="&#xed;" horiz-adv-x="314" d="M-3 568 L237 609 C293 618 316 651 316 682 C316 716 289 749 248 749 C228 749 205 741 180 721 L-5 573 L-3 568 Z M53 136 C53 19 130 -12 186 -12 C255 -12 320 23 320 108 L320 120 C302 111 287 101 264 101 C235 101 225 116 225 146 L225 529 L53 529 L53 136 Z " />
<glyph glyph-name="icircumflex" unicode="&#xee;" horiz-adv-x="314" d="M53 136 C53 19 130 -12 186 -12 C255 -12 320 23 320 108 L320 120 C302 111 287 101 264 101 C235 101 225 116 225 146 L225 529 L53 529 L53 136 Z M143 634 C184 634 227 621 286 597 L335 576 L336 579 C333 585 267 666 264 667 C228 711 196 749 143 749 C90 749 58 711 22 667 C19 666 -47 585 -50 579 L-49 576 L0 597 C59 622 102 634 143 634 L143 634 Z " />
<glyph glyph-name="idieresis" unicode="&#xef;" horiz-adv-x="314" d="M340 667 C340 712 303 749 258 749 C212 749 175 712 175 667 C175 622 212 584 258 584 C303 584 340 622 340 667 L340 667 Z M95 667 C95 712 59 749 13 749 C-32 749 -70 712 -70 667 C-70 622 -32 584 13 584 C59 584 95 622 95 667 L95 667 Z M53 136 C53 19 130 -12 186 -12 C255 -12 320 23 320 108 L320 120 C302 111 287 101 264 101 C235 101 225 116 225 146 L225 529 L53 529 L53 136 Z " />
<glyph glyph-name="eth" unicode="&#xf0;" horiz-adv-x="621" d="M308 -12 C460 -12 593 70 593 289 C593 444 538 560 452 635 L508 667 C490 685 442 733 421 751 L344 699 C296 721 193 746 116 751 L70 621 C108 614 147 612 172 602 L122 572 L215 490 L298 550 C340 518 378 457 395 413 C360 445 315 466 254 466 C112 466 35 349 35 234 C35 112 120 -12 308 -12 L308 -12 Z M307 329 C376 329 407 280 407 229 C407 176 372 121 307 121 C246 121 213 174 213 227 C213 279 244 329 307 329 L307 329 Z " />
<glyph glyph-name="ntilde" unicode="&#xf1;" horiz-adv-x="655" d="M562 308 C562 462 485 540 366 540 C306 540 252 510 219 470 L213 529 L53 529 L53 0 L225 0 L225 298 C225 333 235 359 258 377 C272 388 292 397 318 397 C358 397 390 373 390 310 L390 136 C390 19 463 -12 524 -12 C586 -12 651 20 651 108 L651 112 C634 104 618 100 604 100 C579 100 562 117 562 151 L562 308 Z M137 604 C152 618 164 629 205 629 C255 629 328 603 387 603 C424 603 450 617 463 641 C470 654 474 671 474 718 L474 736 C459 722 447 711 406 711 C356 711 283 737 224 737 C187 737 161 723 148 699 C141 686 137 669 137 622 L137 604 Z " />
<glyph glyph-name="ograve" unicode="&#xf2;" horiz-adv-x="665" d="M205 264 C205 357 268 402 332 402 C396 402 459 357 459 264 C459 171 396 126 332 126 C268 126 205 171 205 264 L205 264 Z M637 264 C637 447 485 540 332 540 C179 540 27 447 27 264 C27 81 179 -12 332 -12 C485 -12 637 81 637 264 L637 264 Z M484 585 L299 733 C274 753 251 761 231 761 C191 761 163 728 163 694 C163 663 186 631 242 621 L482 580 L484 585 Z " />
<glyph glyph-name="oacute" unicode="&#xf3;" horiz-adv-x="661" d="M205 264 C205 357 268 402 332 402 C396 402 459 357 459 264 C459 171 396 126 332 126 C268 126 205 171 205 264 L205 264 Z M637 264 C637 447 485 540 332 540 C179 540 27 447 27 264 C27 81 179 -12 332 -12 C485 -12 637 81 637 264 L637 264 Z M173 568 L413 609 C469 618 492 651 492 682 C492 716 465 749 424 749 C404 749 381 741 356 721 L171 573 L173 568 Z " />
<glyph glyph-name="ocircumflex" unicode="&#xf4;" horiz-adv-x="659" d="M205 264 C205 357 268 402 332 402 C396 402 459 357 459 264 C459 171 396 126 332 126 C268 126 205 171 205 264 L205 264 Z M637 264 C637 447 485 540 332 540 C179 540 27 447 27 264 C27 81 179 -12 332 -12 C485 -12 637 81 637 264 L637 264 Z M331 634 C372 634 415 621 474 597 L523 576 L524 579 C521 585 455 666 452 667 C416 711 384 749 331 749 C278 749 246 711 210 667 C207 666 141 585 138 579 L139 576 L188 597 C247 622 290 634 331 634 L331 634 Z " />
<glyph glyph-name="otilde" unicode="&#xf5;" horiz-adv-x="663" d="M205 264 C205 357 268 402 332 402 C396 402 459 357 459 264 C459 171 396 126 332 126 C268 126 205 171 205 264 L205 264 Z M637 264 C637 447 485 540 332 540 C179 540 27 447 27 264 C27 81 179 -12 332 -12 C485 -12 637 81 637 264 L637 264 Z M158 604 C173 618 185 629 226 629 C276 629 349 603 408 603 C445 603 471 617 484 641 C491 654 495 671 495 718 L495 736 C480 722 468 711 427 711 C377 711 304 737 245 737 C208 737 182 723 169 699 C162 686 158 669 158 622 L158 604 Z " />
<glyph glyph-name="odieresis" unicode="&#xf6;" horiz-adv-x="666" d="M205 264 C205 357 268 402 332 402 C396 402 459 357 459 264 C459 171 396 126 332 126 C268 126 205 171 205 264 L205 264 Z M637 264 C637 447 485 540 332 540 C179 540 27 447 27 264 C27 81 179 -12 332 -12 C485 -12 637 81 637 264 L637 264 Z M535 667 C535 712 498 749 453 749 C407 749 370 712 370 667 C370 622 407 584 453 584 C498 584 535 622 535 667 L535 667 Z M290 667 C290 712 254 749 208 749 C163 749 125 712 125 667 C125 622 163 584 208 584 C254 584 290 622 290 667 L290 667 Z " />
<glyph glyph-name="divide" unicode="&#xf7;" horiz-adv-x="708" d="M270 495 C270 438 313 410 355 410 C397 410 439 438 439 495 C439 552 397 580 355 580 C313 580 270 552 270 495 L270 495 Z M83 355 L83 217 L625 217 L625 355 L83 355 Z M270 75 C270 18 313 -10 355 -10 C397 -10 439 18 439 75 C439 132 397 160 355 160 C313 160 270 132 270 75 L270 75 Z " />
<glyph glyph-name="oslash" unicode="&#xf8;" horiz-adv-x="664" d="M637 264 C637 335 614 392 577 436 L616 480 L513 561 L470 513 C427 531 379 540 332 540 C179 540 27 447 27 264 C27 190 52 130 92 86 L46 34 L149 -47 L201 12 C242 -4 287 -12 332 -12 C485 -12 637 81 637 264 L637 264 Z M205 264 C205 359 268 405 332 405 C345 405 359 403 371 399 L210 218 C207 232 205 247 205 264 L205 264 Z M459 264 C459 169 396 123 332 123 C321 123 311 124 301 126 L455 301 C458 289 459 277 459 264 L459 264 Z " />
<glyph glyph-name="ugrave" unicode="&#xf9;" horiz-adv-x="651" d="M524 -12 C586 -12 651 20 651 108 L651 112 C634 104 618 100 604 100 C579 100 562 117 562 151 L562 529 L390 529 L390 222 C390 187 380 161 357 143 C343 132 323 123 297 123 C257 123 225 147 225 210 L225 529 L53 529 L53 220 C53 66 136 -12 255 -12 C323 -12 380 9 417 36 C444 0 486 -12 524 -12 L524 -12 Z M467 585 L282 733 C257 753 234 761 214 761 C174 761 146 728 146 694 C146 663 169 631 225 621 L465 580 L467 585 Z " />
<glyph glyph-name="uacute" unicode="&#xfa;" horiz-adv-x="651" d="M524 -12 C586 -12 651 20 651 108 L651 112 C634 104 618 100 604 100 C579 100 562 117 562 151 L562 529 L390 529 L390 222 C390 187 380 161 357 143 C343 132 323 123 297 123 C257 123 225 147 225 210 L225 529 L53 529 L53 220 C53 66 136 -12 255 -12 C323 -12 380 9 417 36 C444 0 486 -12 524 -12 L524 -12 Z M159 568 L399 609 C455 618 478 651 478 682 C478 716 451 749 410 749 C390 749 367 741 342 721 L157 573 L159 568 Z " />
<glyph glyph-name="ucircumflex" unicode="&#xfb;" horiz-adv-x="651" d="M524 -12 C586 -12 651 20 651 108 L651 112 C634 104 618 100 604 100 C579 100 562 117 562 151 L562 529 L390 529 L390 222 C390 187 380 161 357 143 C343 132 323 123 297 123 C257 123 225 147 225 210 L225 529 L53 529 L53 220 C53 66 136 -12 255 -12 C323 -12 380 9 417 36 C444 0 486 -12 524 -12 L524 -12 Z M307 634 C348 634 391 621 450 597 L499 576 L500 579 C497 585 431 666 428 667 C392 711 360 749 307 749 C254 749 222 711 186 667 C183 666 117 585 114 579 L115 576 L164 597 C223 622 266 634 307 634 L307 634 Z " />
<glyph glyph-name="udieresis" unicode="&#xfc;" horiz-adv-x="651" d="M524 -12 C586 -12 651 20 651 108 L651 112 C634 104 618 100 604 100 C579 100 562 117 562 151 L562 529 L390 529 L390 222 C390 187 380 161 357 143 C343 132 323 123 297 123 C257 123 225 147 225 210 L225 529 L53 529 L53 220 C53 66 136 -12 255 -12 C323 -12 380 9 417 36 C444 0 486 -12 524 -12 L524 -12 Z M508 667 C508 712 471 749 426 749 C380 749 343 712 343 667 C343 622 380 584 426 584 C471 584 508 622 508 667 L508 667 Z M263 667 C263 712 227 749 181 749 C136 749 98 712 98 667 C98 622 136 584 181 584 C227 584 263 622 263 667 L263 667 Z " />
<glyph glyph-name="yacute" unicode="&#xfd;" horiz-adv-x="616" d="M232 -89 C134 -89 71 -19 71 -19 C71 -19 66 -36 66 -61 C66 -174 172 -230 277 -230 C375 -230 458 -197 505 -123 C547 -57 562 19 562 110 L562 529 L390 529 L390 239 C390 204 380 178 357 160 C343 149 323 140 297 140 C257 140 225 164 225 227 L225 529 L53 529 L53 237 C53 83 136 5 255 5 C308 5 355 18 391 36 C388 -43 342 -89 232 -89 L232 -89 Z M150 568 L390 609 C446 618 469 651 469 682 C469 716 442 749 401 749 C381 749 358 741 333 721 L148 573 L150 568 Z " />
<glyph glyph-name="thorn" unicode="&#xfe;" horiz-adv-x="633" d="M53 -220 L225 -220 L225 8 C253 0 293 -11 338 -11 C519 -11 617 127 617 266 C617 448 503 540 383 540 C327 540 271 519 225 480 L225 736 L53 736 L53 -220 Z M337 401 C405 401 445 348 445 274 C445 186 389 126 315 126 C272 126 241 136 224 146 L224 271 C224 323 235 350 252 368 C274 392 306 401 337 401 L337 401 Z " />
<glyph glyph-name="ydieresis" unicode="&#xff;" horiz-adv-x="616" d="M232 -89 C134 -89 71 -19 71 -19 C71 -19 66 -36 66 -61 C66 -174 172 -230 277 -230 C375 -230 458 -197 505 -123 C547 -57 562 19 562 110 L562 529 L390 529 L390 239 C390 204 380 178 357 160 C343 149 323 140 297 140 C257 140 225 164 225 227 L225 529 L53 529 L53 237 C53 83 136 5 255 5 C308 5 355 18 391 36 C388 -43 342 -89 232 -89 L232 -89 Z M512 667 C512 712 475 749 430 749 C384 749 347 712 347 667 C347 622 384 584 430 584 C475 584 512 622 512 667 L512 667 Z M267 667 C267 712 231 749 185 749 C140 749 102 712 102 667 C102 622 140 584 185 584 C231 584 267 622 267 667 L267 667 Z " />
<glyph glyph-name="dotlessi" unicode="&#x131;" horiz-adv-x="314" d="M53 136 C53 19 130 -12 186 -12 C255 -12 320 23 320 108 L320 120 C302 111 287 101 264 101 C235 101 225 116 225 146 L225 529 L53 529 L53 136 Z " />
<glyph glyph-name="Lslash" unicode="&#x141;" horiz-adv-x="561" d="M557 170 C504 164 465 161 363 161 L241 161 L241 325 L363 395 L363 530 L241 463 L241 704 L65 704 L65 365 L56 359 C26 338 15 313 15 282 L15 196 L65 224 L65 0 L332 0 C437 0 488 1 525 36 C539 51 553 83 555 126 L557 170 Z " />
<glyph glyph-name="lslash" unicode="&#x142;" horiz-adv-x="314" d="M317 119 C302 114 285 111 278 111 C247 111 224 127 224 162 L224 378 L276 410 L276 545 L224 515 L224 736 L52 736 L52 419 C52 419 45 414 43 412 C13 394 1 369 1 336 L1 251 L52 283 L52 144 C52 40 113 -8 184 -8 C253 -8 317 27 317 108 L317 119 Z " />
<glyph glyph-name="OE" unicode="&#x152;" horiz-adv-x="1063" d="M802 0 C896 1 978 1 1015 33 C1032 48 1043 76 1047 117 L1049 166 C998 161 957 157 862 157 L688 157 L688 281 L855 281 C921 281 940 298 948 353 L960 427 L688 427 L688 548 L982 548 L1006 704 L693 704 C585 704 503 711 437 711 C207 711 34 574 34 353 C34 149 195 -7 418 -7 C559 -7 628 -2 698 -1 L802 0 Z M439 146 C312 146 223 216 223 350 C223 495 315 559 434 559 C475 559 495 556 513 554 L513 153 C494 150 475 146 439 146 L439 146 Z " />
<glyph glyph-name="oe" unicode="&#x153;" horiz-adv-x="1011" d="M671 197 C910 197 987 285 987 380 C987 468 893 540 771 540 C672 540 597 504 547 450 C493 510 412 540 326 540 C170 540 27 447 27 264 C27 81 170 -12 326 -12 C409 -12 487 16 541 71 C588 21 660 -12 755 -12 C883 -12 973 90 973 171 C913 140 851 123 796 123 C726 123 668 148 640 197 L671 197 Z M205 264 C205 359 268 405 332 405 C396 405 459 359 459 264 C459 169 396 123 332 123 C268 123 205 169 205 264 L205 264 Z M640 299 L624 299 C637 365 689 410 757 410 C792 410 820 395 820 369 C820 301 684 299 640 299 L640 299 Z " />
<glyph glyph-name="Scaron" unicode="&#x160;" horiz-adv-x="633" d="M140 241 C81 241 40 197 40 150 C40 67 128 -13 313 -13 C451 -13 593 59 593 210 C593 319 536 370 377 420 L318 439 C239 464 218 485 218 515 C218 551 264 573 318 573 C383 573 450 545 491 478 C521 486 563 527 563 571 C563 663 440 714 322 714 C181 714 45 648 45 502 C45 364 161 322 260 290 L311 274 C386 251 413 234 413 200 C413 156 366 129 305 129 C203 129 148 186 140 241 L140 241 Z M315 864 C274 864 231 876 172 901 L123 922 L122 919 C125 913 191 832 194 831 C230 787 262 749 315 749 C368 749 400 787 436 831 C439 832 505 913 508 919 L507 922 L458 901 C399 877 356 864 315 864 L315 864 Z " />
<glyph glyph-name="scaron" unicode="&#x161;" horiz-adv-x="518" d="M496 162 C496 260 431 303 328 322 L250 337 C220 343 204 356 204 376 C204 395 221 410 265 410 C311 410 367 392 396 392 C433 392 455 416 469 474 L476 501 C424 521 347 540 266 540 C105 540 39 465 39 372 C39 292 69 234 231 200 L269 192 C303 185 326 176 326 154 C326 133 310 118 270 118 C220 118 151 136 79 167 L34 41 C92 12 182 -12 262 -12 C422 -12 496 62 496 162 L496 162 Z M267 691 C226 691 183 703 124 728 L75 749 L74 746 C77 740 143 659 146 658 C182 614 214 576 267 576 C320 576 352 614 388 658 C391 659 457 740 460 746 L459 749 L410 728 C351 704 308 691 267 691 L267 691 Z " />
<glyph glyph-name="Ydieresis" unicode="&#x178;" horiz-adv-x="716" d="M731 680 C696 701 657 712 619 712 C592 712 566 706 542 695 C515 682 491 662 467 621 L356 432 L199 704 L-8 704 C75 566 181 398 265 259 L265 0 L441 0 L441 261 L620 561 C665 636 701 664 731 680 L731 680 Z M559 833 C559 878 522 915 477 915 C431 915 394 878 394 833 C394 788 431 750 477 750 C522 750 559 788 559 833 L559 833 Z M314 833 C314 878 278 915 232 915 C187 915 149 878 149 833 C149 788 187 750 232 750 C278 750 314 788 314 833 L314 833 Z " />
<glyph glyph-name="Zcaron" unicode="&#x17d;" horiz-adv-x="724" d="M57 704 L57 548 L375 548 L53 93 L53 0 L463 0 C562 0 610 1 646 35 C663 50 676 79 678 123 L680 166 C626 161 582 157 486 157 L311 157 C383 263 644 620 644 620 L644 704 L57 704 Z M334 865 C293 865 250 877 191 902 L142 923 L141 920 C144 914 210 833 213 832 C249 788 281 750 334 750 C387 750 419 788 455 832 C458 833 524 914 527 920 L526 923 L477 902 C418 878 375 865 334 865 L334 865 Z " />
<glyph glyph-name="zcaron" unicode="&#x17e;" horiz-adv-x="545" d="M490 529 L37 529 L37 392 L256 392 L38 84 L38 0 L335 0 C418 0 461 0 495 36 C508 52 519 79 522 122 L522 146 C477 141 433 138 328 138 L273 138 L490 445 L490 529 Z M263 691 C222 691 179 703 120 728 L71 749 L70 746 C73 740 139 659 142 658 C178 614 210 576 263 576 C316 576 348 614 384 658 C387 659 453 740 456 746 L455 749 L406 728 C347 704 304 691 263 691 L263 691 Z " />
<glyph glyph-name="florin" unicode="&#x192;" horiz-adv-x="702" d="M679 720 C637 734 584 741 539 741 C385 741 278 669 251 474 L133 474 C123 403 119 370 117 351 L238 351 L211 150 C198 51 176 42 130 42 C111 42 92 44 47 68 C28 3 25 -4 2 -78 C50 -95 87 -102 130 -102 C303 -102 397 10 418 171 L441 351 L576 351 C578 384 586 474 586 474 L454 474 C466 549 477 598 544 598 C566 598 600 593 632 577 C654 637 668 678 679 720 L679 720 Z " />
<glyph glyph-name="circumflex" unicode="&#x2c6;" horiz-adv-x="624" d="M315 634 C356 634 399 621 458 597 L507 576 L508 579 C505 585 439 666 436 667 C400 711 368 749 315 749 C262 749 230 711 194 667 C191 666 125 585 122 579 L123 576 L172 597 C231 622 274 634 315 634 L315 634 Z " />
<glyph glyph-name="caron" unicode="&#x2c7;" horiz-adv-x="624" d="M315 691 C274 691 231 703 172 728 L123 749 L122 746 C125 740 191 659 194 658 C230 614 262 576 315 576 C368 576 400 614 436 658 C439 659 505 740 508 746 L507 749 L458 728 C399 704 356 691 315 691 L315 691 Z " />
<glyph glyph-name="breve" unicode="&#x2d8;" horiz-adv-x="624" d="M504 720 C504 733 502 741 499 748 C459 694 387 664 311 664 C235 664 164 693 122 748 C121 741 119 733 119 720 C119 613 219 555 311 555 C404 555 504 614 504 720 L504 720 Z " />
<glyph glyph-name="dotaccent" unicode="&#x2d9;" horiz-adv-x="624" d="M220 658 C220 595 266 565 312 565 C358 565 404 595 404 658 C404 719 358 750 312 750 C266 750 220 719 220 658 L220 658 Z " />
<glyph glyph-name="ring" unicode="&#x2da;" horiz-adv-x="624" d="M419 672 C419 731 371 779 310 779 C252 779 204 732 204 673 C204 614 252 564 310 564 C370 564 419 613 419 672 L419 672 Z M360 672 C360 644 338 620 312 620 C286 620 264 643 264 671 C264 700 286 722 312 722 C338 722 360 701 360 672 L360 672 Z " />
<glyph glyph-name="ogonek" unicode="&#x2db;" horiz-adv-x="913" d="M434 13 C364 -16 334 -66 334 -102 C334 -165 400 -203 468 -203 C530 -203 600 -169 620 -102 C590 -115 564 -122 544 -122 C496 -122 468 -101 468 -67 C468 -45 485 -18 536 0 L434 13 Z " />
<glyph glyph-name="tilde" unicode="&#x2dc;" horiz-adv-x="624" d="M143 604 C158 618 170 629 211 629 C261 629 334 603 393 603 C430 603 456 617 469 641 C476 654 480 671 480 718 L480 736 C465 722 453 711 412 711 C362 711 289 737 230 737 C193 737 167 723 154 699 C147 686 143 669 143 622 L143 604 Z " />
<glyph glyph-name="hungarumlaut" unicode="&#x2dd;" horiz-adv-x="624" d="M44 568 L284 609 C340 618 363 651 363 682 C363 716 336 749 295 749 C275 749 252 741 227 721 L42 573 L44 568 Z M318 568 L558 609 C614 618 637 651 637 682 C637 716 610 749 569 749 C549 749 526 741 501 721 L316 573 L318 568 Z " />
<glyph glyph-name="pi" unicode="&#x3c0;" horiz-adv-x="730" d="M280 379 L446 379 L446 130 C446 23 513 -11 580 -11 C647 -11 712 25 712 98 L712 116 C700 113 684 109 668 109 C639 109 618 119 618 140 L618 379 L715 379 L715 529 L16 529 L16 379 L114 379 L114 -4 L280 -4 L280 379 Z " />
<glyph glyph-name="endash" unicode="&#x2013;" horiz-adv-x="708" d="M83 355 L83 217 L625 217 L625 355 L83 355 Z " />
<glyph glyph-name="emdash" unicode="&#x2014;" horiz-adv-x="1201" d="M1122 217 L1122 355 L79 355 L79 217 L1122 217 Z " />
<glyph glyph-name="quoteleft" unicode="&#x2018;" horiz-adv-x="287" d="M38 539 C38 449 101 407 151 407 C208 407 252 453 252 503 C252 556 231 570 212 584 C195 595 181 605 181 623 C181 640 189 690 282 744 C267 748 252 751 236 751 C140 751 38 669 38 539 L38 539 Z " />
<glyph glyph-name="quoteright" unicode="&#x2019;" horiz-adv-x="287" d="M249 619 C249 709 186 751 136 751 C79 751 35 705 35 655 C35 602 56 588 75 574 C92 563 106 553 106 535 C106 518 98 468 5 414 C20 410 35 407 51 407 C147 407 249 489 249 619 L249 619 Z " />
<glyph glyph-name="quotesinglbase" unicode="&#x201a;" horiz-adv-x="287" d="M248 57 C248 147 185 189 135 189 C78 189 34 143 34 93 C34 40 55 26 74 12 C91 1 105 -9 105 -27 C105 -44 97 -94 4 -148 C19 -152 34 -155 50 -155 C146 -155 248 -73 248 57 L248 57 Z " />
<glyph glyph-name="quotedblleft" unicode="&#x201c;" horiz-adv-x="544" d="M38 539 C38 449 101 407 151 407 C208 407 252 453 252 503 C252 556 231 570 212 584 C195 595 181 605 181 623 C181 640 189 690 282 744 C267 748 252 751 236 751 C140 751 38 669 38 539 L38 539 Z M295 539 C295 449 358 407 408 407 C465 407 509 453 509 503 C509 556 488 570 469 584 C452 595 438 605 438 623 C438 640 446 690 539 744 C524 748 509 751 493 751 C397 751 295 669 295 539 L295 539 Z " />
<glyph glyph-name="quotedblright" unicode="&#x201d;" horiz-adv-x="547" d="M249 619 C249 709 186 751 136 751 C79 751 35 705 35 655 C35 602 56 588 75 574 C92 563 106 553 106 535 C106 518 98 468 5 414 C20 410 35 407 51 407 C147 407 249 489 249 619 L249 619 Z M509 619 C509 709 446 751 396 751 C339 751 295 705 295 655 C295 602 316 588 335 574 C352 563 366 553 366 535 C366 518 358 468 265 414 C280 410 295 407 311 407 C407 407 509 489 509 619 L509 619 Z " />
<glyph glyph-name="quotedblbase" unicode="&#x201e;" horiz-adv-x="539" d="M246 57 C246 147 183 189 133 189 C76 189 32 143 32 93 C32 40 53 26 72 12 C89 1 103 -9 103 -27 C103 -44 95 -94 2 -148 C17 -152 32 -155 48 -155 C144 -155 246 -73 246 57 L246 57 Z M504 57 C504 147 441 189 391 189 C334 189 290 143 290 93 C290 40 311 26 330 12 C347 1 361 -9 361 -27 C361 -44 353 -94 260 -148 C275 -152 290 -155 306 -155 C402 -155 504 -73 504 57 L504 57 Z " />
<glyph glyph-name="dagger" unicode="&#x2020;" horiz-adv-x="699" d="M635 489 L433 489 L433 736 L266 736 L266 489 L64 489 L64 332 L266 332 L266 -175 L433 -175 L433 332 L635 332 L635 489 Z " />
<glyph glyph-name="daggerdbl" unicode="&#x2021;" horiz-adv-x="699" d="M635 180 L433 180 L433 362 L635 362 L635 519 L433 519 L433 736 L266 736 L266 519 L64 519 L64 362 L266 362 L266 180 L64 180 L64 23 L266 23 L266 -194 L433 -194 L433 23 L635 23 L635 180 Z " />
<glyph glyph-name="bullet" unicode="&#x2022;" horiz-adv-x="509" d="M56 288 C56 179 145 90 254 90 C363 90 452 179 452 288 C452 397 363 486 254 486 C145 486 56 397 56 288 L56 288 Z " />
<glyph glyph-name="ellipsis" unicode="&#x2026;" horiz-adv-x="874" d="M35 87 C35 18 86 -16 137 -16 C188 -16 239 18 239 87 C239 155 188 189 137 189 C86 189 35 155 35 87 L35 87 Z M335 87 C335 18 386 -16 437 -16 C488 -16 539 18 539 87 C539 155 488 189 437 189 C386 189 335 155 335 87 L335 87 Z M635 87 C635 18 686 -16 737 -16 C788 -16 839 18 839 87 C839 155 788 189 737 189 C686 189 635 155 635 87 L635 87 Z " />
<glyph glyph-name="perthousand" unicode="&#x2030;" horiz-adv-x="1271" d="M740 704 L604 704 L111 0 L250 0 L740 704 Z M208 469 C170 469 151 504 151 538 C151 572 169 606 208 607 C246 604 265 570 265 536 C265 502 246 469 208 469 L208 469 Z M24 538 C24 445 89 358 208 358 C327 358 392 445 392 538 C392 631 327 718 208 718 C89 718 24 631 24 538 L24 538 Z M651 96 C613 96 594 130 594 164 C594 199 613 234 651 234 C689 234 708 200 708 166 C708 131 689 96 651 96 L651 96 Z M467 165 C467 72 532 -15 651 -15 C770 -15 835 72 835 165 C835 258 770 345 651 345 C532 345 467 258 467 165 L467 165 Z M1064 96 C1026 96 1007 130 1007 164 C1007 199 1026 234 1064 234 C1102 234 1121 200 1121 166 C1121 131 1102 96 1064 96 L1064 96 Z M880 165 C880 72 945 -15 1064 -15 C1183 -15 1248 72 1248 165 C1248 258 1183 345 1064 345 C945 345 880 258 880 165 L880 165 Z " />
<glyph glyph-name="guilsinglleft" unicode="&#x2039;" horiz-adv-x="345" d="M323 461 L261 461 C164 461 156 456 104 382 L22 265 L104 148 C157 72 164 69 261 69 L323 69 L209 227 C200 240 192 253 192 265 C192 277 197 286 206 299 L323 461 Z " />
<glyph glyph-name="guilsinglright" unicode="&#x203a;" horiz-adv-x="345" d="M139 299 C148 286 153 277 153 265 C153 253 145 240 136 227 L22 69 L84 69 C181 69 188 72 241 148 L323 265 L241 382 C189 456 181 461 84 461 L22 461 L139 299 Z " />
<glyph glyph-name="fraction" unicode="&#x2044;" horiz-adv-x="339" d="M492 710 L363 710 L-153 -1 L-25 -1 L492 710 Z " />
<glyph glyph-name="Euro" unicode="&#x20ac;" horiz-adv-x="809" d="M761 684 C692 708 619 718 551 718 C358 718 233 609 180 487 L60 487 L18 366 L153 366 C151 354 151 338 153 326 L65 326 L28 205 L183 205 C242 90 349 -12 548 -12 C610 -12 686 0 729 12 L729 163 C674 153 621 150 580 150 C492 150 426 170 390 205 L509 205 C588 205 611 227 624 265 L644 326 L330 326 C327 337 327 355 329 366 L559 366 C641 366 665 384 679 423 L698 487 L374 487 C419 534 477 560 556 560 C601 560 653 552 712 534 L761 684 Z " />
<glyph glyph-name="trademark" unicode="&#x2122;" horiz-adv-x="580" d="M234 629 L234 704 L26 704 L26 629 L99 629 L99 457 L166 457 L166 629 L234 629 Z M535 457 L535 704 L462 704 C419 603 413 593 406 571 L345 704 L270 704 L270 457 L334 457 L334 589 L384 482 L421 482 C425 486 433 506 441 527 C451 547 465 580 470 587 L470 457 L535 457 Z " />
<glyph glyph-name="Omega" unicode="&#x2126;" horiz-adv-x="797" d="M559 409 C559 345 532 284 438 274 L438 0 L759 0 L759 157 L606 157 L606 165 C702 216 749 316 749 412 C749 564 645 718 399 718 C153 718 50 564 50 412 C50 317 92 218 191 165 L191 157 L36 157 L36 0 L359 0 L359 274 C266 284 238 345 238 409 C238 505 317 552 397 552 C478 552 559 504 559 409 L559 409 Z " />
<glyph glyph-name="partialdiff" unicode="&#x2202;" horiz-adv-x="688" d="M642 302 C642 497 509 710 250 710 C199 710 108 694 43 671 L81 524 C135 541 183 550 227 550 C315 550 374 512 413 432 C372 455 330 466 288 466 C134 466 53 348 53 231 C53 111 138 -10 326 -10 C534 -10 642 138 642 302 L642 302 Z M332 155 C270 155 233 198 233 237 C233 277 266 316 340 316 C361 316 406 306 441 292 C445 279 447 267 447 255 C447 196 399 155 332 155 L332 155 Z " />
<glyph glyph-name="Delta" unicode="&#x2206;" horiz-adv-x="792" d="M780 0 L489 704 L296 704 L12 0 L780 0 Z M531 158 L239 158 L387 525 L531 158 Z " />
<glyph glyph-name="product" unicode="&#x220f;" horiz-adv-x="912" d="M830 -194 L830 736 L82 736 L82 -194 L265 -194 L265 585 L646 585 L646 -194 L830 -194 Z " />
<glyph glyph-name="summation" unicode="&#x2211;" horiz-adv-x="866" d="M636 272 C567 345 436 494 359 582 C505 582 652 582 799 583 L799 736 L64 736 L64 651 C111 598 162 541 411 272 L64 -111 L64 -194 L799 -194 L799 -41 L358 -41 C421 27 474 89 636 272 L636 272 Z " />
<glyph glyph-name="minus" unicode="&#x2212;" horiz-adv-x="708" d="M83 355 L83 217 L625 217 L625 355 L83 355 Z " />
<glyph glyph-name="radical" unicode="&#x221a;" horiz-adv-x="708" d="M319 -132 L500 -132 L688 736 L538 736 L391 44 L232 347 L19 236 L93 108 L161 145 L319 -132 Z " />
<glyph glyph-name="infinity" unicode="&#x221e;" horiz-adv-x="893" d="M877 393 C877 495 802 607 664 607 C600 607 512 528 451 468 C384 533 300 607 227 607 C86 607 17 495 17 393 C17 287 86 178 227 178 C299 178 376 247 441 314 C507 251 592 178 664 178 C802 178 877 287 877 393 L877 393 Z M227 312 C170 312 136 347 136 393 C136 435 168 473 227 473 C274 473 317 433 364 385 C320 342 278 312 227 312 L227 312 Z M664 470 C723 470 759 433 759 393 C759 350 722 313 664 313 C610 313 575 345 528 395 C567 435 615 470 664 470 L664 470 Z " />
<glyph glyph-name="integral" unicode="&#x222b;" horiz-adv-x="413" d="M293 551 C293 583 304 616 367 616 C373 616 379 616 386 615 L386 748 C365 749 348 750 331 750 C194 750 115 681 115 549 L115 2 C112 -41 77 -62 40 -62 C33 -62 27 -61 20 -60 L20 -193 C33 -195 50 -197 76 -197 C215 -197 293 -128 293 6 L293 551 Z " />
<glyph glyph-name="approxequal" unicode="&#x2248;" horiz-adv-x="708" d="M609 437 C581 412 538 401 494 401 C444 401 394 416 348 427 C301 438 250 453 198 453 C149 453 99 439 57 398 L96 282 C129 309 168 320 209 320 C252 320 295 307 339 294 C390 280 444 265 505 265 C556 265 603 280 652 325 L609 437 Z M609 204 C579 177 538 166 494 166 C443 166 398 179 350 193 C302 207 252 221 198 221 C149 221 99 205 56 162 C69 125 75 104 96 46 C130 75 168 86 209 86 C250 86 291 75 335 62 C386 47 440 32 505 32 C556 32 603 46 652 92 C646 104 638 126 609 204 L609 204 Z " />
<glyph glyph-name="notequal" unicode="&#x2260;" horiz-adv-x="708" d="M625 103 L625 241 L420 241 L462 338 L625 338 L625 476 L522 476 L567 579 L395 579 L349 476 L83 476 L83 338 L289 338 L246 241 L83 241 L83 103 L185 103 L140 0 L316 0 L360 103 L625 103 Z " />
<glyph glyph-name="lessequal" unicode="&#x2264;" horiz-adv-x="708" d="M610 161 L610 302 L286 437 L610 567 L610 711 L97 490 L97 385 L610 161 Z M610 137 L97 137 L97 0 L610 0 L610 137 Z " />
<glyph glyph-name="greaterequal" unicode="&#x2265;" horiz-adv-x="708" d="M610 385 L610 490 L97 711 L97 567 L420 433 L97 302 L97 161 L610 385 Z M610 137 L97 137 L97 0 L610 0 L610 137 Z " />
<glyph glyph-name="lozenge" unicode="&#x25ca;" horiz-adv-x="509" d="M198 355 L254 488 L310 355 L254 217 L198 355 Z M84 354 L254 -13 L256 -13 L424 355 L256 719 L252 719 L84 354 Z " />
<glyph glyph-name="apple" unicode="&#xf8ff;" horiz-adv-x="576" d="M13 0 L558 0 L558 785 L13 785 L13 0 Z M121 101 L121 684 L450 684 L450 101 L121 101 Z " />
<glyph glyph-name="ff" unicode="&#xfb00;" horiz-adv-x="889" d="M522 523 L522 508 L309 508 L309 513 C309 572 341 618 398 618 C425 618 458 609 496 589 C498 599 499 610 499 619 C499 702 434 751 334 751 C199 751 137 651 137 523 L137 508 L107 508 C50 508 11 475 8 421 L5 369 L137 369 L137 0 L309 0 L309 369 L522 369 L522 0 L694 0 L694 369 L866 369 L866 508 L694 508 L694 513 C694 572 726 618 783 618 C810 618 843 609 881 589 C883 599 884 610 884 619 C884 702 819 751 719 751 C584 751 522 651 522 523 L522 523 Z " />
<glyph glyph-name="fi" unicode="&#xfb01;" horiz-adv-x="819" d="M309 508 L309 520 C309 572 325 617 386 617 C425 617 455 605 486 589 C488 599 489 610 489 620 C489 702 427 751 327 751 C192 751 137 651 137 523 L137 508 L107 508 C40 508 11 475 8 421 L5 369 L137 369 L137 0 L309 0 L309 369 L471 369 L471 508 L309 508 Z M556 136 C556 19 633 -12 689 -12 C758 -12 823 23 823 108 L823 120 C805 111 790 101 767 101 C738 101 728 116 728 146 L728 529 L556 529 L556 136 Z M550 659 C550 596 596 566 642 566 C688 566 734 596 734 659 C734 720 688 751 642 751 C596 751 550 720 550 659 L550 659 Z " />
<glyph glyph-name="fl" unicode="&#xfb02;" horiz-adv-x="819" d="M309 508 L309 520 C309 572 325 617 386 617 C425 617 455 605 486 589 C488 599 489 610 489 620 C489 702 427 751 327 751 C192 751 137 651 137 523 L137 508 L107 508 C40 508 11 475 8 421 L5 369 L137 369 L137 0 L309 0 L309 369 L471 369 L471 508 L309 508 Z M557 136 C557 19 634 -12 690 -12 C759 -12 824 23 824 108 L824 120 C806 111 791 101 768 101 C739 101 729 116 729 146 L729 736 L557 736 L557 136 Z " />
<glyph glyph-name="ffi" unicode="&#xfb03;" horiz-adv-x="1205" d="M936 658 C936 595 982 565 1028 565 C1074 565 1120 595 1120 658 C1120 719 1074 750 1028 750 C982 750 936 719 936 658 L936 658 Z M1114 529 L942 529 L942 136 C942 19 1015 -12 1076 -12 C1138 -12 1203 20 1203 108 L1203 112 C1186 104 1170 100 1156 100 C1131 100 1114 117 1114 151 L1114 529 Z M522 523 L522 508 L309 508 L309 513 C309 572 341 618 398 618 C425 618 458 609 496 589 C498 599 499 610 499 619 C499 702 434 751 334 751 C199 751 137 651 137 523 L137 508 L107 508 C50 508 11 475 8 421 L5 369 L137 369 L137 0 L309 0 L309 369 L522 369 L522 0 L694 0 L694 369 L866 369 L866 508 L694 508 L694 513 C694 572 726 618 783 618 C810 618 843 609 881 589 C883 599 884 610 884 619 C884 702 819 751 719 751 C584 751 522 651 522 523 L522 523 Z " />
<glyph glyph-name="ffl" unicode="&#xfb04;" horiz-adv-x="1205" d="M522 523 L522 508 L309 508 L309 513 C309 572 341 618 398 618 C425 618 458 609 496 589 C498 599 499 610 499 619 C499 702 434 751 334 751 C199 751 137 651 137 523 L137 508 L107 508 C50 508 11 475 8 421 L5 369 L137 369 L137 0 L309 0 L309 369 L522 369 L522 0 L694 0 L694 369 L866 369 L866 508 L694 508 L694 513 C694 572 726 618 783 618 C810 618 843 609 881 589 C883 599 884 610 884 619 C884 702 819 751 719 751 C584 751 522 651 522 523 L522 523 Z M1114 736 L942 736 L942 136 C942 19 1015 -12 1076 -12 C1138 -12 1203 20 1203 108 L1203 112 C1186 104 1170 100 1156 100 C1131 100 1114 117 1114 151 L1114 736 Z " />
</font>
</svg>
